<?xml version="1.0" encoding="utf-8"?><svg xmlns="http://www.w3.org/2000/svg" xmlns:xlink="http://www.w3.org/1999/xlink"><symbol viewBox="0 0 18 10" id="arrow-bottom" xmlns="http://www.w3.org/2000/svg"><path d="M0.492767 0.75L8.99277 9.25L17.4928 0.75"/></symbol><symbol viewBox="0 0 77 67" id="arrow-round" xmlns="http://www.w3.org/2000/svg"><path d="M60.118 0.763932C58.8831 0.146459 57.3814 0.64702 56.7639 1.88197C56.1465 3.11691 56.647 4.61859 57.882 5.23607L60.118 0.763932ZM1.23223 46.2322C0.255922 47.2085 0.255922 48.7915 1.23223 49.7678L17.1421 65.6777C18.1184 66.654 19.7014 66.654 20.6777 65.6777C21.654 64.7014 21.654 63.1184 20.6777 62.1421L6.53553 48L20.6777 33.8579C21.654 32.8816 21.654 31.2986 20.6777 30.3223C19.7014 29.346 18.1184 29.346 17.1421 30.3223L1.23223 46.2322ZM57.882 5.23607C67.7175 10.1538 70.9389 14.8724 71.096 18.5747C71.2555 22.3339 68.3423 26.6412 61.8723 30.9138C49.1513 39.3145 25.6774 45.5 3 45.5V50.5C26.3226 50.5 50.8487 44.1855 64.6277 35.0862C71.4077 30.6088 76.3695 24.9161 76.0915 18.3628C75.8111 11.7526 70.2825 5.84619 60.118 0.763932L57.882 5.23607Z"/></symbol><symbol viewBox="0 0 48 48" id="baloons" xmlns="http://www.w3.org/2000/svg"><path d="M11.461 30.97L23 47.317V48H25V47.317L36.539 30.97C42.905 30.662 48 24.971 48 18C48 10.832 42.617 5 36 5C35.224 5 34.433 5.116 33.64 5.292C31.452 2.09 27.951 0 24 0C20.049 0 16.547 2.089 14.36 5.292C13.568 5.117 12.777 5 12 5C5.383 5 0 10.832 0 18C0 24.971 5.095 30.662 11.461 30.97ZM13.813 30.835C16.92 30.322 19.709 28.506 21.607 25.739C22.062 25.839 22.528 25.902 22.999 25.945V43.849L13.813 30.835ZM25 25.945C25.472 25.903 25.938 25.839 26.392 25.739C28.29 28.505 31.079 30.322 34.186 30.835L25 43.849V25.945ZM34.691 7.101C35.132 7.034 35.569 7 36 7C41.514 7 46 11.935 46 18C46 24.065 41.514 29 36 29C33.036 29 30.259 27.562 28.367 25.098C28.376 25.094 28.385 25.089 28.394 25.085C28.619 24.989 28.838 24.884 29.056 24.773C29.157 24.722 29.257 24.67 29.357 24.616C29.548 24.512 29.738 24.406 29.924 24.292C30.054 24.212 30.179 24.125 30.305 24.041C30.515 23.899 30.723 23.755 30.924 23.6C31.129 23.443 31.332 23.281 31.527 23.111C31.643 23.009 31.754 22.901 31.867 22.794C32.018 22.652 32.167 22.507 32.311 22.357C32.42 22.243 32.527 22.127 32.633 22.009C32.777 21.847 32.915 21.681 33.05 21.512C33.142 21.398 33.235 21.287 33.323 21.169C33.525 20.899 33.718 20.621 33.9 20.334C33.976 20.214 34.044 20.087 34.117 19.964C34.229 19.773 34.34 19.581 34.443 19.383C34.521 19.234 34.594 19.083 34.666 18.931C34.755 18.743 34.84 18.552 34.921 18.359C34.985 18.207 35.049 18.057 35.108 17.902C35.214 17.622 35.31 17.336 35.397 17.047C35.442 16.899 35.482 16.749 35.522 16.599C35.594 16.33 35.66 16.059 35.716 15.784C35.744 15.644 35.768 15.503 35.792 15.361C35.837 15.101 35.873 14.838 35.903 14.573C35.917 14.445 35.933 14.317 35.944 14.188C35.978 13.795 36 13.4 36 13C36 12.511 35.97 12.03 35.921 11.555C35.906 11.413 35.88 11.275 35.862 11.134C35.817 10.798 35.766 10.464 35.697 10.137C35.664 9.977 35.623 9.82 35.584 9.661C35.508 9.353 35.424 9.049 35.328 8.751C35.278 8.594 35.226 8.439 35.17 8.285C35.06 7.979 34.937 7.682 34.807 7.388C34.765 7.293 34.735 7.194 34.691 7.101ZM24 2C27.438 2 30.476 3.919 32.276 6.834L32.306 6.884C32.325 6.916 32.341 6.95 32.36 6.982C32.592 7.372 32.795 7.777 32.979 8.191C33.018 8.278 33.057 8.365 33.094 8.453C33.277 8.893 33.438 9.343 33.566 9.804C33.577 9.843 33.584 9.885 33.594 9.924C33.706 10.343 33.789 10.771 33.854 11.203C33.872 11.321 33.889 11.439 33.903 11.558C33.96 12.034 33.999 12.514 33.999 13C33.999 13.348 33.98 13.692 33.952 14.032C33.942 14.153 33.925 14.271 33.911 14.391C33.886 14.607 33.858 14.822 33.822 15.034C33.798 15.175 33.77 15.315 33.741 15.454C33.702 15.641 33.659 15.825 33.611 16.008C33.574 16.152 33.536 16.297 33.493 16.439C33.44 16.615 33.38 16.788 33.319 16.96C33.271 17.097 33.225 17.236 33.172 17.371C33.089 17.582 32.995 17.787 32.9 17.99C32.816 18.171 32.726 18.349 32.633 18.525C32.54 18.7 32.447 18.876 32.346 19.045C32.27 19.172 32.187 19.293 32.106 19.416C32.013 19.557 31.92 19.698 31.822 19.834C31.732 19.958 31.639 20.079 31.544 20.198C31.445 20.323 31.344 20.445 31.241 20.565C31.138 20.684 31.034 20.802 30.926 20.916C30.825 21.023 30.72 21.124 30.616 21.226C30.495 21.343 30.376 21.462 30.25 21.573C30.171 21.643 30.088 21.706 30.008 21.773C29.427 22.254 28.799 22.674 28.123 23.01C28.121 23.011 28.119 23.012 28.117 23.013C27.873 23.134 27.622 23.244 27.367 23.345C27.355 23.35 27.342 23.355 27.33 23.36C27.073 23.46 26.81 23.549 26.542 23.626C25.729 23.862 24.88 24 24 24C23.12 24 22.271 23.862 21.458 23.626C21.19 23.549 20.928 23.459 20.67 23.36C20.658 23.355 20.645 23.35 20.633 23.345C20.378 23.245 20.127 23.135 19.883 23.013C19.881 23.012 19.879 23.011 19.877 23.01C19.201 22.674 18.573 22.254 17.992 21.773C17.911 21.706 17.828 21.643 17.75 21.573C17.624 21.462 17.505 21.344 17.384 21.226C17.279 21.124 17.175 21.023 17.074 20.916C16.966 20.802 16.862 20.684 16.759 20.565C16.655 20.445 16.554 20.323 16.456 20.198C16.361 20.078 16.268 19.958 16.178 19.834C16.08 19.698 15.986 19.557 15.894 19.416C15.813 19.293 15.73 19.171 15.654 19.045C15.552 18.876 15.46 18.7 15.367 18.525C15.274 18.349 15.184 18.172 15.1 17.99C15.005 17.786 14.912 17.581 14.828 17.371C14.775 17.236 14.729 17.097 14.681 16.96C14.62 16.788 14.56 16.615 14.507 16.439C14.464 16.297 14.427 16.153 14.389 16.008C14.342 15.825 14.298 15.641 14.259 15.454C14.23 15.315 14.202 15.175 14.178 15.034C14.142 14.822 14.113 14.607 14.089 14.391C14.075 14.271 14.058 14.153 14.048 14.032C14.019 13.692 14.001 13.349 14.001 13C14.001 12.514 14.04 12.034 14.097 11.558C14.111 11.439 14.129 11.322 14.146 11.205C14.211 10.773 14.295 10.344 14.406 9.925C14.416 9.886 14.423 9.844 14.434 9.805C14.562 9.344 14.723 8.894 14.906 8.453C14.942 8.365 14.982 8.279 15.021 8.192C15.205 7.778 15.408 7.372 15.641 6.982C15.66 6.95 15.676 6.916 15.695 6.884L15.725 6.834C17.524 3.919 20.562 2 24 2ZM12 7C12.431 7 12.868 7.034 13.309 7.101C13.265 7.194 13.235 7.293 13.193 7.387C13.062 7.681 12.94 7.979 12.83 8.284C12.774 8.439 12.722 8.594 12.672 8.75C12.576 9.049 12.492 9.352 12.416 9.66C12.377 9.818 12.336 9.976 12.303 10.136C12.235 10.464 12.183 10.797 12.138 11.133C12.119 11.274 12.093 11.412 12.079 11.554C12.03 12.03 12 12.511 12 13C12 13.4 12.022 13.795 12.056 14.188C12.067 14.317 12.083 14.445 12.097 14.573C12.127 14.838 12.164 15.1 12.208 15.361C12.232 15.502 12.255 15.644 12.284 15.784C12.34 16.059 12.406 16.33 12.478 16.599C12.518 16.749 12.558 16.899 12.603 17.047C12.691 17.336 12.787 17.622 12.892 17.902C12.95 18.057 13.015 18.207 13.079 18.359C13.16 18.552 13.244 18.743 13.334 18.931C13.406 19.083 13.48 19.234 13.557 19.383C13.66 19.58 13.771 19.773 13.883 19.964C13.956 20.087 14.024 20.214 14.1 20.334C14.282 20.621 14.475 20.899 14.677 21.169C14.765 21.286 14.859 21.398 14.95 21.512C15.086 21.681 15.224 21.848 15.367 22.009C15.472 22.127 15.579 22.243 15.689 22.357C15.833 22.507 15.982 22.652 16.133 22.794C16.246 22.901 16.356 23.009 16.473 23.111C16.668 23.282 16.871 23.443 17.076 23.6C17.277 23.755 17.485 23.9 17.695 24.041C17.822 24.126 17.947 24.212 18.076 24.292C18.261 24.407 18.451 24.512 18.643 24.616C18.743 24.67 18.843 24.722 18.944 24.773C19.162 24.883 19.381 24.989 19.606 25.085C19.615 25.089 19.624 25.094 19.633 25.098C17.741 27.562 14.965 29 12 29C6.486 29 2 24.065 2 18C2 11.935 6.486 7 12 7Z"/></symbol><symbol viewBox="0 0 50 32" id="bike" xmlns="http://www.w3.org/2000/svg"><path d="M50 22.5009C50 21.1957 49.6934 19.9088 49.105 18.7438C48.5165 17.5788 47.6627 16.5684 46.6122 15.7938C45.5617 15.0192 44.344 14.5023 43.0571 14.2845C41.7702 14.0667 40.4502 14.1543 39.2034 14.5401L38.3409 12.5009H40.8334C41.0544 12.5009 41.2663 12.413 41.4225 12.2568C42.0201 11.6581 42.3556 10.8468 42.3556 10.0009C42.3556 9.15509 42.0201 8.34379 41.4225 7.74511C41.2663 7.58882 41.0544 7.50099 40.8334 7.50094H36.6667C36.5279 7.50395 36.3921 7.5427 36.2726 7.61344L33.2676 0.509307C33.2037 0.358554 33.0969 0.229948 32.9604 0.139545C32.8239 0.0491415 32.6638 0.000946267 32.5001 0.000976577H26.6668V1.66764H31.9476L33.2242 4.68429C32.4361 4.38592 31.5858 4.28965 30.7509 4.40429C28.7658 4.70384 26.8111 5.1779 24.9093 5.82095C24.4576 5.96095 23.9821 6.10678 23.4826 6.25845L19.0526 7.50094H7.53602C6.80984 7.50041 6.09026 7.63873 5.41602 7.90844L4.45519 8.29261C4.1138 8.4292 3.82116 8.66496 3.61502 8.96945C3.40889 9.27395 3.29872 9.63323 3.29872 10.0009C3.29872 10.3686 3.40889 10.7279 3.61502 11.0324C3.82116 11.3369 4.1138 11.5727 4.45519 11.7093L5.41519 12.0934C6.08968 12.3632 6.80956 12.5016 7.53602 12.5009H14.4585L15.5243 14.8984L13.9252 16.3401C13.0413 15.5354 11.9945 14.9305 10.856 14.5666C9.71748 14.2027 8.51393 14.0883 7.32722 14.2311C6.14052 14.3739 4.9985 14.7707 3.97884 15.3944C2.95919 16.018 2.08582 16.854 1.41815 17.8454C0.750476 18.8368 0.304166 19.9604 0.109576 21.1397C-0.0850141 22.319 -0.0233191 23.5264 0.290464 24.6798C0.604248 25.8331 1.16276 26.9054 1.928 27.8236C2.69325 28.7418 3.64728 29.4844 4.72519 30.0008H0.000213655V31.6675H50V30.0008H45.275C46.6884 29.3219 47.8816 28.2579 48.7174 26.9312C49.5533 25.6045 49.9978 24.0689 50 22.5009ZM37.5001 9.1676H40.4425C40.6037 9.41568 40.6894 9.70514 40.6894 10.0009C40.6894 10.2967 40.6037 10.5862 40.4425 10.8343H37.6359L37.5001 10.5134V9.1676ZM35.8259 10.8343H35.6809C35.7117 10.7926 35.7451 10.7509 35.7742 10.7118L35.8259 10.8343ZM23.9468 7.86094C24.4668 7.70428 24.9468 7.55594 25.4018 7.41428C27.2188 6.79625 29.0873 6.34139 30.9851 6.05512C31.8148 5.93736 32.6589 6.12865 33.3567 6.59262C33.9484 6.98888 34.392 7.56998 34.6184 8.24511C34.7004 8.49406 34.7249 8.75836 34.6902 9.01816C34.6554 9.27795 34.5622 9.52649 34.4176 9.7451C34.1949 10.0802 33.8928 10.355 33.5382 10.545C33.1835 10.7351 32.7874 10.8344 32.3851 10.8343H20.0001V8.96677L23.9468 7.86094ZM6.03519 10.5451L5.07519 10.1609C5.04295 10.1484 5.01525 10.1264 4.99571 10.0979C4.97618 10.0693 4.96573 10.0355 4.96573 10.0009C4.96573 9.96634 4.97618 9.93256 4.99571 9.90401C5.01525 9.87545 5.04295 9.85347 5.07519 9.84094L6.03519 9.45677C6.51202 9.26509 7.02127 9.16692 7.53518 9.1676H18.3335V10.8343H7.53602C7.02182 10.8351 6.51228 10.7369 6.03519 10.5451ZM19.1668 12.5009H36.5309L36.5926 12.6451L36.8834 13.3343H34.1667C33.9918 13.3342 33.8212 13.3892 33.6793 13.4916C33.5373 13.5939 33.4312 13.7382 33.3759 13.9043L29.3993 25.8342H22.2085L16.2826 12.5009H19.1668ZM12.2402 21.0992C12.1514 20.8559 12.0398 20.6215 11.9068 20.3992L13.7968 18.6959C14.2295 19.317 14.5528 20.0075 14.7527 20.7376L12.2402 21.0992ZM7.57851 22.8542C7.6457 22.9977 7.75241 23.1191 7.88614 23.2041C8.01986 23.2891 8.17505 23.3343 8.33351 23.3342C8.37311 23.3343 8.41265 23.3315 8.45184 23.3259L10.7852 22.9925C10.6921 23.4567 10.4691 23.8848 10.1422 24.2272C9.81534 24.5696 9.39797 24.8122 8.93864 24.9266C8.47932 25.0411 7.99694 25.0229 7.54759 24.874C7.09825 24.7251 6.70041 24.4516 6.40037 24.0855C6.10032 23.7194 5.91039 23.2756 5.85267 22.8057C5.79495 22.3359 5.87181 21.8593 6.07431 21.4314C6.27681 21.0035 6.59664 20.642 6.99658 20.3887C7.39652 20.1355 7.86014 20.001 8.33351 20.0009C8.74787 20.0038 9.15482 20.111 9.51684 20.3126L7.77601 21.8817C7.64319 22.0012 7.55229 22.1603 7.51673 22.3354C7.48117 22.5105 7.50283 22.6924 7.57851 22.8542ZM15.0418 17.5776L16.236 16.5009L17.9168 20.2842L16.4168 20.5001C16.1545 19.4452 15.6873 18.4522 15.0418 17.5776ZM1.66687 22.5009C1.66514 21.224 2.03064 19.9736 2.7198 18.8986C3.40896 17.8237 4.39271 16.9696 5.55377 16.4382C6.71482 15.9069 8.0042 15.7206 9.26818 15.9016C10.5322 16.0826 11.7174 16.6233 12.6827 17.4592L10.7968 19.1584C10.0859 18.6256 9.22195 18.3365 8.33351 18.3342C7.51934 18.3308 6.72201 18.566 6.04003 19.0107C5.35805 19.4555 4.82131 20.0903 4.49613 20.8367C4.17095 21.5831 4.07158 22.4085 4.21029 23.2107C4.349 24.013 4.71973 24.7571 5.27665 25.351C5.83358 25.9449 6.5523 26.3626 7.34402 26.5525C8.13573 26.7425 8.96574 26.6963 9.7315 26.4197C10.4973 26.1431 11.1652 25.6482 11.6528 24.9962C12.1404 24.3442 12.4263 23.5636 12.4752 22.7509L14.9943 22.39C14.9943 22.4284 15.0001 22.465 15.0001 22.5034C14.9998 24.2715 14.2971 25.967 13.0467 27.217C11.7962 28.467 10.1004 29.1691 8.33226 29.1688C6.56416 29.1684 4.86861 28.4657 3.6186 27.2153C2.3686 25.9648 1.66654 24.269 1.66687 22.5009ZM11.9418 30.0008C13.3552 29.3219 14.5484 28.2579 15.3843 26.9312C16.2201 25.6045 16.6646 24.0689 16.6668 22.5009C16.6668 22.3825 16.6543 22.2675 16.6493 22.15L18.6218 21.8667L20.9051 27.0059C20.9706 27.1532 21.0774 27.2784 21.2126 27.3663C21.3478 27.4541 21.5056 27.5009 21.6668 27.5009H30.0001C30.1751 27.5009 30.3456 27.4459 30.4875 27.3436C30.6295 27.2413 30.7356 27.0969 30.7909 26.9309L34.7676 15.0009H37.5892L37.6726 15.1917C36.3274 15.925 35.2109 17.0154 34.4459 18.3427C33.6809 19.67 33.2972 21.1828 33.3371 22.7143C33.377 24.2458 33.839 25.7365 34.672 27.0222C35.5051 28.3079 36.6769 29.3386 38.0584 30.0008H11.9418ZM41.6667 29.1675C40.2003 29.169 38.7744 28.6865 37.6102 27.795C36.4459 26.9034 35.6085 25.6525 35.2277 24.2364C34.8469 22.8203 34.944 21.3182 35.5041 19.9629C36.0641 18.6077 37.0557 17.4751 38.3251 16.7409L39.31 19.0742C38.4612 19.6597 37.8599 20.5395 37.6228 21.5431C37.3857 22.5467 37.5296 23.6026 38.0267 24.5061C38.5237 25.4096 39.3386 26.0963 40.3132 26.4333C41.2878 26.7702 42.3528 26.7333 43.3017 26.3297C44.2507 25.9261 45.016 25.1846 45.4493 24.2488C45.8826 23.3131 45.9531 22.2498 45.6471 21.265C45.3411 20.2802 44.6803 19.4442 43.7929 18.9189C42.9056 18.3935 41.8548 18.2164 40.8442 18.4217L39.8592 16.0942C40.7776 15.83 41.742 15.7663 42.6872 15.9075C43.6323 16.0486 44.5361 16.3913 45.3372 16.9123C46.1383 17.4333 46.818 18.1205 47.3303 18.9272C47.8426 19.7339 48.1755 20.6413 48.3063 21.5879C48.4372 22.5346 48.3631 23.4983 48.0889 24.4137C47.8147 25.3292 47.3469 26.175 46.7172 26.8938C46.0875 27.6126 45.3107 28.1877 44.4393 28.58C43.5679 28.9723 42.6223 29.1727 41.6667 29.1675ZM40.8992 22.8259L42.4342 22.1759L41.5175 20.0159C41.5667 20.0159 41.6142 20.0009 41.6642 20.0009C42.2534 19.9946 42.8262 20.1947 43.2832 20.5666C43.7402 20.9385 44.0527 21.4586 44.1663 22.0368C44.2799 22.6149 44.1876 23.2146 43.9053 23.7318C43.623 24.249 43.1685 24.651 42.6208 24.8682C42.073 25.0853 41.4666 25.1039 40.9066 24.9206C40.3466 24.7373 39.8684 24.3638 39.555 23.8648C39.2417 23.3659 39.1128 22.773 39.1909 22.1889C39.269 21.6049 39.5491 21.0667 39.9825 20.6676L40.8992 22.8259Z"/></symbol><symbol viewBox="0 0 50 50" id="cart-present" xmlns="http://www.w3.org/2000/svg"><path d="M41.3032 33.1841L49.9224 12.9893C49.9671 12.8851 49.9909 12.7732 49.9924 12.6599C49.9938 12.5466 49.9729 12.4341 49.9309 12.3288C49.8889 12.2236 49.8266 12.1276 49.7475 12.0465C49.6684 11.9653 49.5741 11.9006 49.4699 11.8558C49.3658 11.8111 49.2539 11.7874 49.1405 11.7859C49.0272 11.7845 48.9147 11.8053 48.8095 11.8474C48.7042 11.8894 48.6083 11.9517 48.5271 12.0308C48.446 12.1099 48.3812 12.2042 48.3365 12.3084L39.9414 31.9774H13.7132L8.6192 9.01582C8.57542 8.82138 8.4656 8.64813 8.30845 8.52556C8.1513 8.40298 7.95653 8.33865 7.75728 8.34352H0.86192C0.633325 8.34352 0.414092 8.43433 0.252451 8.59597C0.0908092 8.75761 0 8.97684 0 9.20544C0 9.43403 0.0908092 9.65327 0.252451 9.81491C0.414092 9.97655 0.633325 10.0674 0.86192 10.0674H7.06775L13.6873 39.8036C13.7311 39.998 13.8409 40.1713 13.998 40.2939C14.1552 40.4164 14.35 40.4808 14.5492 40.4759H40.5103C40.7388 40.4759 40.9581 40.3851 41.1197 40.2235C41.2814 40.0618 41.3722 39.8426 41.3722 39.614C41.3722 39.3854 41.2814 39.1662 41.1197 39.0045C40.9581 38.8429 40.7388 38.7521 40.5103 38.7521H15.2215L14.0924 33.7012H40.5103C40.6785 33.7018 40.8432 33.6531 40.9841 33.5613C41.125 33.4694 41.2359 33.3382 41.3032 33.1841Z"/><path d="M19.1433 42.1738C18.369 42.1738 17.6121 42.4036 16.9684 42.8339C16.3247 43.2643 15.8232 43.8759 15.5273 44.5915C15.2313 45.307 15.1544 46.0942 15.306 46.8535C15.4577 47.6128 15.8313 48.3101 16.3794 48.857C16.9275 49.4039 17.6256 49.7759 18.3852 49.9259C19.1449 50.0759 19.9319 49.9972 20.6468 49.6997C21.3617 49.4022 21.9722 48.8993 22.4012 48.2547C22.8301 47.6101 23.0582 46.8526 23.0565 46.0783C23.0565 45.5649 22.9552 45.0564 22.7584 44.5822C22.5617 44.1079 22.2733 43.6771 21.9098 43.3144C21.5463 42.9517 21.1149 42.6643 20.6402 42.4686C20.1655 42.2729 19.6568 42.1727 19.1433 42.1738ZM19.1433 48.2676C18.7103 48.2676 18.2871 48.1392 17.927 47.8987C17.567 47.6581 17.2864 47.3162 17.1207 46.9161C16.955 46.5161 16.9116 46.0759 16.9961 45.6512C17.0806 45.2266 17.2891 44.8365 17.5953 44.5303C17.9015 44.2241 18.2915 44.0156 18.7162 43.9311C19.1409 43.8467 19.5811 43.89 19.9811 44.0557C20.3812 44.2214 20.7231 44.502 20.9637 44.862C21.2042 45.2221 21.3326 45.6453 21.3326 46.0783C21.3326 46.659 21.102 47.2158 20.6914 47.6264C20.2808 48.037 19.724 48.2676 19.1433 48.2676Z"/><path d="M34.9078 42.174C34.1321 42.1671 33.3718 42.391 32.7236 42.8172C32.0754 43.2434 31.5684 43.8527 31.2672 44.5676C30.966 45.2825 30.8841 46.0708 31.0319 46.8323C31.1796 47.5939 31.5504 48.2944 32.0972 48.8447C32.6439 49.3951 33.3419 49.7705 34.1024 49.9234C34.863 50.0762 35.6518 49.9995 36.3687 49.7031C37.0856 49.4066 37.6982 48.9037 38.1287 48.2584C38.5592 47.613 38.7881 46.8542 38.7864 46.0785C38.7865 45.0474 38.3786 44.0582 37.652 43.3267C36.9253 42.5952 35.9388 42.1808 34.9078 42.174ZM34.9078 48.2678C34.4734 48.2746 34.0468 48.152 33.6822 47.9157C33.3177 47.6793 33.0318 47.3398 32.8608 46.9404C32.6898 46.5411 32.6414 46.0998 32.722 45.6729C32.8025 45.246 33.0083 44.8527 33.313 44.543C33.6178 44.2334 34.0078 44.0214 34.4334 43.9341C34.859 43.8468 35.3009 43.8881 35.703 44.0528C36.105 44.2174 36.449 44.4979 36.6911 44.8587C36.9332 45.2194 37.0625 45.644 37.0626 46.0785C37.0627 46.6532 36.8367 47.2049 36.4336 47.6145C36.0305 48.0241 35.4824 48.2587 34.9078 48.2678Z"/><path d="M15.6094 13.1184V25.3922C15.6094 26.0948 15.8879 26.7687 16.3839 27.2663C16.8799 27.7639 17.5529 28.0446 18.2555 28.0469H36.7954C37.498 28.0446 38.171 27.7639 38.667 27.2663C39.163 26.7687 39.4415 26.0948 39.4415 25.3922V13.1184C39.9949 12.963 40.4826 12.6317 40.8309 12.1745C41.1793 11.7173 41.3693 11.1591 41.3722 10.5844V9.40355C41.3722 8.70097 41.0937 8.02703 40.5977 7.52942C40.1017 7.03182 39.4287 6.75112 38.7261 6.74884H34.5458C34.9328 6.1536 35.1393 5.45914 35.1405 4.74918V3.7235C35.1383 2.73666 34.7452 1.7909 34.0474 1.0931C33.3496 0.395303 32.4039 0.00227644 31.417 0H30.3913C29.8414 0.00230285 29.2988 0.12639 28.8026 0.363346C28.3063 0.600302 27.8687 0.944243 27.5212 1.37045C27.1762 0.943523 26.7403 0.598954 26.2452 0.361869C25.7502 0.124783 25.2085 0.00115633 24.6596 0H23.6339C22.6471 0.00227644 21.7013 0.395303 21.0035 1.0931C20.3057 1.7909 19.9127 2.73666 19.9104 3.7235V4.74918C19.9116 5.45914 20.1182 6.1536 20.5051 6.74884H16.3248C15.6222 6.75112 14.9492 7.03182 14.4532 7.52942C13.9572 8.02703 13.6787 8.70097 13.6787 9.40355V10.5844C13.6816 11.1591 13.8716 11.7173 14.22 12.1745C14.5683 12.6317 15.056 12.963 15.6094 13.1184ZM17.3333 25.3922V13.2305H23.5649V26.323H18.2555C18.1337 26.3231 18.013 26.2989 17.9006 26.252C17.7881 26.2051 17.6861 26.1364 17.6003 26.0499C17.5146 25.9633 17.4468 25.8606 17.401 25.7478C17.3551 25.6349 17.3321 25.514 17.3333 25.3922ZM25.2888 26.323V13.2305H29.7621V26.323H25.2888ZM25.2888 8.47268H29.7621V11.5066H25.2888V8.47268ZM37.7177 25.3922C37.7188 25.514 37.6958 25.6349 37.65 25.7478C37.6041 25.8606 37.5364 25.9633 37.4506 26.0499C37.3649 26.1364 37.2628 26.2051 37.1503 26.252C37.0379 26.2989 36.9173 26.3231 36.7954 26.323H31.486V13.2305H37.7177V25.3922ZM39.6484 9.40355V10.5844C39.6484 10.829 39.5512 11.0636 39.3782 11.2365C39.2053 11.4095 38.9707 11.5066 38.7261 11.5066H31.486V8.47268H38.7261C38.848 8.47267 38.9686 8.49681 39.081 8.54369C39.1935 8.59058 39.2956 8.65929 39.3813 8.74584C39.4671 8.83239 39.5348 8.93508 39.5807 9.04797C39.6265 9.16086 39.6495 9.28172 39.6484 9.40355ZM30.3913 1.72384H31.417C31.9474 1.72384 32.456 1.93452 32.831 2.30953C33.206 2.68453 33.4167 3.19315 33.4167 3.7235V4.74918C33.4167 5.27952 33.206 5.78814 32.831 6.16315C32.456 6.53816 31.9474 6.74884 31.417 6.74884H28.3917V3.7235C28.3917 3.19315 28.6024 2.68453 28.9774 2.30953C29.3524 1.93452 29.861 1.72384 30.3913 1.72384ZM21.6342 4.74918V3.7235C21.6342 3.4609 21.686 3.20087 21.7864 2.95826C21.8869 2.71565 22.0342 2.49521 22.2199 2.30953C22.4056 2.12384 22.626 1.97655 22.8687 1.87606C23.1113 1.77556 23.3713 1.72384 23.6339 1.72384H24.6596C25.1907 1.72384 25.7002 1.93424 26.0766 2.309C26.453 2.68376 26.6656 3.19236 26.6678 3.7235V6.74884H23.6339C23.3713 6.74884 23.1113 6.69711 22.8687 6.59662C22.626 6.49613 22.4056 6.34884 22.2199 6.16315C22.0342 5.97747 21.8869 5.75703 21.7864 5.51442C21.686 5.27181 21.6342 5.01178 21.6342 4.74918ZM15.4026 9.40355C15.4014 9.28172 15.4244 9.16086 15.4703 9.04797C15.5161 8.93508 15.5839 8.83239 15.6696 8.74584C15.7554 8.65929 15.8574 8.59058 15.9699 8.54369C16.0823 8.49681 16.203 8.47267 16.3248 8.47268H23.5649V11.5066H16.3248C16.0802 11.5066 15.8456 11.4095 15.6727 11.2365C15.4997 11.0636 15.4026 10.829 15.4026 10.5844V9.40355Z"/></symbol><symbol viewBox="0 0 50 50" id="cheers" xmlns="http://www.w3.org/2000/svg"><path fill-rule="evenodd" clip-rule="evenodd" d="M22.6098 9.5759L21.0843 10.234C20.0327 7.77314 18.4046 5.60136 16.3375 3.90182C15.1387 2.92798 13.8077 2.12954 12.3841 1.53048L13.0305 0C14.5992 0.659919 16.0658 1.54009 17.386 2.61395C19.661 4.48159 21.4527 6.86955 22.6098 9.5759ZM29.2577 10.2339C30.3086 7.77295 31.9368 5.60128 34.0045 3.9026C35.2025 2.92831 36.5334 2.12983 37.957 1.53126L37.3106 0.000778952C35.7417 0.660374 34.2751 1.54058 32.9551 2.61473C30.6798 4.4826 28.8878 6.87086 27.7305 9.57754L29.2577 10.2339ZM34.9118 8.81314C36.4938 7.14547 38.3815 5.7972 40.4721 4.8415C43.2098 3.5995 46.2125 3.0543 49.2121 3.25452L49.3201 1.59276C46.0458 1.37646 42.7688 1.97301 39.7808 3.3293C37.498 4.37381 35.4368 5.84641 33.7087 7.66735L34.9118 8.81314ZM23.1773 13.1606C23.1744 13.2847 23.1427 13.4063 23.0849 13.516L6.86602 45.2141L6.24286 47.5323L9.45841 48.3964L9.02635 50L1 47.848L1.43206 46.2444L4.63926 47.1085L5.26242 44.7821L7.06547 9.22864C7.07361 9.10508 7.10826 8.98477 7.16709 8.87584C7.22583 8.76692 7.30734 8.67186 7.40613 8.59717C7.50633 8.52355 7.62183 8.47336 7.74413 8.45035C7.86636 8.42742 7.99215 8.43207 8.11238 8.46423L22.5614 12.3361C22.6807 12.3679 22.7912 12.4262 22.8848 12.5068C22.9783 12.5874 23.0524 12.6881 23.1015 12.8014C23.1542 12.9137 23.1802 13.0367 23.1773 13.1606ZM21.1406 13.6739L8.67738 10.3337L8.07084 22.2319C8.47938 22.1878 8.89133 22.185 9.30054 22.2236C9.96392 22.3212 10.6413 22.217 11.2448 21.9245C11.8616 21.6683 12.386 21.2307 12.7487 20.6699C13.2856 19.8864 14.0351 19.2724 14.909 18.9001C15.764 18.4909 16.7191 18.3379 17.6592 18.4597C18.0014 18.5027 18.3479 18.4999 18.6895 18.4514L21.1406 13.6739ZM9.1676 23.8771C8.77434 23.8333 8.37685 23.8473 7.98775 23.9186L7.11532 41.0846L17.8337 20.1381L17.8105 20.1363H17.8105H17.8104H17.8104C17.7113 20.1287 17.6188 20.1215 17.5263 20.1215C16.8664 20.02 16.1912 20.1214 15.5903 20.4123C14.9707 20.6716 14.4437 21.1118 14.0781 21.6752C13.5438 22.4559 12.797 23.0672 11.9261 23.4367C11.0696 23.8507 10.1103 24.0038 9.1676 23.8771ZM45.7014 47.1085L48.9086 46.2444L49.3407 47.848L41.3143 50L40.8823 48.3964L44.0978 47.5323L43.4746 45.2141L27.2558 13.516C27.2001 13.4056 27.1697 13.2842 27.1668 13.1606C27.1639 13.037 27.1886 12.9143 27.2392 12.8014C27.2882 12.6881 27.3623 12.5874 27.4559 12.5068C27.5494 12.4262 27.66 12.3679 27.7793 12.3361L42.2283 8.46423C42.3485 8.43207 42.4743 8.42742 42.5966 8.45035C42.7188 8.47336 42.8343 8.52355 42.9346 8.59717C43.0334 8.67186 43.1149 8.76692 43.1736 8.87584C43.2324 8.98477 43.2671 9.10508 43.2752 9.22864L45.0782 44.7821L45.7014 47.1085ZM29.2084 13.6739L31.6512 18.4514C31.9928 18.4999 32.3392 18.5027 32.6815 18.4597C33.6215 18.3379 34.5767 18.4909 35.4317 18.9001C36.3055 19.2724 37.055 19.8864 37.592 20.6699C37.9547 21.2307 38.4791 21.6683 39.0959 21.9245C39.6993 22.217 40.3768 22.3212 41.0402 22.2236C41.4493 22.185 41.8613 22.1878 42.2699 22.2319L41.6633 10.3337L29.2084 13.6739ZM32.5302 20.1363L32.507 20.1381L43.2254 41.0846L42.3529 23.9186C41.961 23.8472 41.5608 23.8332 41.1648 23.8771C40.2247 24.0032 39.2683 23.8501 38.4146 23.4367C37.5436 23.0672 36.7968 22.4559 36.2626 21.6752C35.897 21.1118 35.37 20.6716 34.7504 20.4123C34.1495 20.1214 33.4743 20.02 32.8144 20.1215C32.7219 20.1215 32.6294 20.1287 32.5303 20.1363H32.5302H32.5302H32.5302ZM15.4296 8.81313C13.8476 7.14555 11.96 5.79725 9.86931 4.84155C7.1313 3.60037 4.12891 3.05522 1.12931 3.25457L1.02129 1.59281C4.2956 1.37637 7.57267 1.97293 10.5606 3.32935C12.8435 4.37364 14.9048 5.84627 16.6327 7.66735L15.4296 8.81313Z"/></symbol><symbol viewBox="0 0 36 36" id="clock" xmlns="http://www.w3.org/2000/svg"><path d="M30.2852 30.2438C33.5185 26.989 35.3332 22.5875 35.3332 17.9998C35.3332 13.412 33.5185 9.01048 30.2852 5.75572V5.71435H30.2439C26.9891 2.4811 22.5876 0.666504 17.9998 0.666504C13.412 0.666504 9.01057 2.4811 5.7558 5.71435H5.71444V5.75572C2.48119 9.01048 0.666504 13.412 0.666504 17.9998C0.666504 22.5875 2.48119 26.989 5.71444 30.2438V30.2852H5.7558C9.01057 33.5185 13.412 35.3331 17.9998 35.3331C22.5876 35.3331 26.9891 33.5185 30.2439 30.2852H30.2852V30.2438ZM27.3318 26.19C27.1735 26.0545 26.9699 25.9837 26.7617 25.9917C26.5535 25.9997 26.356 26.0861 26.2086 26.2335C26.0613 26.3808 25.975 26.5783 25.967 26.7865C25.959 26.9947 26.0298 27.1983 26.1653 27.3565L28.4735 29.6647C25.8117 32.0878 22.3963 33.5194 18.8023 33.7184V30.4093C18.8023 30.1898 18.7151 29.9795 18.56 29.8243C18.4049 29.6691 18.1944 29.5819 17.975 29.5819C17.7556 29.5819 17.5452 29.6691 17.39 29.8243C17.2349 29.9795 17.1477 30.1898 17.1477 30.4093V33.7184C13.5538 33.5194 10.1383 32.0878 7.47659 29.6647L9.78475 27.3565C9.92027 27.1983 9.99108 26.9947 9.98306 26.7865C9.97503 26.5783 9.88874 26.3808 9.7414 26.2335C9.59406 26.0861 9.3965 25.9997 9.18835 25.9917C8.98012 25.9837 8.77652 26.0545 8.61826 26.19L6.31009 28.4982C3.90207 25.8306 2.48532 22.4158 2.29769 18.8271H5.56552C5.78492 18.8271 5.99539 18.7399 6.15051 18.5847C6.30563 18.4296 6.39282 18.2192 6.39282 17.9998C6.39282 17.7804 6.30563 17.57 6.15051 17.4148C5.99539 17.2597 5.78492 17.1725 5.56552 17.1725H2.29769C2.48532 13.5837 3.90207 10.1689 6.31009 7.50132L8.61826 9.80949C8.7733 9.96362 8.98293 10.0501 9.20151 10.0501C9.42008 10.0501 9.62972 9.96362 9.78475 9.80949C9.93888 9.65454 10.0253 9.44482 10.0253 9.22624C10.0253 9.00767 9.93888 8.79803 9.78475 8.643L7.47659 6.33483C10.1441 3.92689 13.559 2.51006 17.1477 2.32243V5.59026C17.1477 5.80966 17.2349 6.02013 17.39 6.17524C17.5452 6.33045 17.7556 6.41756 17.975 6.41756C18.1944 6.41756 18.4049 6.33045 18.56 6.17524C18.7151 6.02013 18.8023 5.80966 18.8023 5.59026V2.32243C22.3911 2.51006 25.8059 3.92689 28.4735 6.33483L26.1653 8.643C26.0112 8.79803 25.9247 9.00767 25.9247 9.22624C25.9247 9.44482 26.0112 9.65454 26.1653 9.80949C26.3203 9.96362 26.53 10.0501 26.7485 10.0501C26.9671 10.0501 27.1767 9.96362 27.3318 9.80949L29.6399 7.50132C32.063 10.1631 33.4947 13.5786 33.6937 17.1725H30.3845C30.1651 17.1725 29.9547 17.2597 29.7995 17.4148C29.6444 17.57 29.5572 17.7804 29.5572 17.9998C29.5572 18.2192 29.6444 18.4296 29.7995 18.5847C29.9547 18.7399 30.1651 18.8271 30.3845 18.8271H33.6937C33.4947 22.421 32.063 25.8365 29.6399 28.4982L27.3318 26.19Z"/><path d="M18.8026 17.661V12.2091C18.8026 11.9897 18.7154 11.7793 18.5602 11.6242C18.4051 11.469 18.1947 11.3818 17.9753 11.3818C17.7559 11.3818 17.5454 11.469 17.3903 11.6242C17.2352 11.7793 17.148 11.9897 17.148 12.2091V18.0002C17.1474 18.1091 17.1682 18.2171 17.2093 18.3178C17.2505 18.4186 17.3112 18.5103 17.3879 18.5876L23.179 24.3787C23.2559 24.4562 23.3474 24.5178 23.4482 24.5598C23.549 24.6018 23.6572 24.6234 23.7664 24.6234C23.8756 24.6234 23.9837 24.6018 24.0845 24.5598C24.1854 24.5178 24.2769 24.4562 24.3537 24.3787C24.4313 24.3018 24.4928 24.2103 24.5348 24.1095C24.5769 24.0087 24.5985 23.9005 24.5985 23.7913C24.5985 23.6821 24.5769 23.574 24.5348 23.4732C24.4928 23.3724 24.4313 23.2809 24.3537 23.2039L18.8026 17.661Z"/></symbol><symbol viewBox="0 0 50 50" id="dancing" xmlns="http://www.w3.org/2000/svg"><g clip-path="url(#ahclip0_423_4169)"><path fill-rule="evenodd" clip-rule="evenodd" d="M21.6158 44.4577C21.5426 44.6574 21.396 44.8216 21.2057 44.9167L17.8699 46.5733C17.7555 46.6327 17.6288 46.6646 17.4999 46.6667H16.6666C16.1496 46.6673 15.6456 46.8278 15.2236 47.1262C14.8015 47.4246 14.4821 47.8462 14.3091 48.3333H21.6666V46.6667C21.6666 46.4457 21.7544 46.2337 21.9106 46.0774C22.0669 45.9212 22.2789 45.8333 22.4999 45.8333C22.7209 45.8333 22.9329 45.9212 23.0891 46.0774C23.2454 46.2337 23.3332 46.4457 23.3332 46.6667V49.1667C23.3332 49.3877 23.2454 49.5997 23.0891 49.7559C22.9329 49.9122 22.7209 50 22.4999 50H13.3332C13.1122 50 12.9002 49.9122 12.744 49.7559C12.5877 49.5997 12.4999 49.3877 12.4999 49.1667C12.5011 48.1884 12.8461 47.2417 13.4744 46.4918C14.1026 45.7419 14.9745 45.2367 15.9374 45.0642L12.8782 40.6933C12.2261 39.769 11.9082 38.6501 11.9771 37.5209C12.0461 36.3917 12.4976 35.3198 13.2574 34.4817L18.2916 28.8891L17.5416 22.1191L14.4966 19.835L14.4757 19.8191L9.25738 16.5575C8.25372 15.9287 7.4123 15.0722 6.80155 14.0575L3.66655 8.83329C3.29082 8.22079 3.17382 7.48404 3.34127 6.78521C3.50873 6.08643 3.94692 5.48277 4.55946 5.10704C5.17201 4.73132 5.90871 4.61432 6.60752 4.78177C6.95355 4.86468 7.2798 5.01494 7.5678 5.22396C7.85572 5.43297 8.09972 5.69666 8.28572 5.99996L11.4082 10.9966L12.6541 11.4966C12.7586 11.5351 12.8545 11.5941 12.9358 11.6703C13.0171 11.7464 13.0824 11.838 13.1277 11.9399C13.1731 12.0416 13.1975 12.1515 13.1996 12.2629C13.2017 12.3743 13.1815 12.485 13.1401 12.5885C13.0986 12.6919 13.0369 12.786 12.9585 12.8651C12.8801 12.9443 12.7866 13.007 12.6836 13.0494C12.5806 13.0918 12.4701 13.113 12.3586 13.112C12.2472 13.111 12.1371 13.0876 12.0349 13.0433L10.5349 12.4441C10.37 12.3787 10.2306 12.2618 10.1374 12.1108L6.87322 6.88913C6.72488 6.66398 6.49487 6.50524 6.23174 6.4464C5.96861 6.38756 5.69291 6.43321 5.46279 6.57373C5.23267 6.71421 5.06611 6.93863 4.99826 7.19963C4.9304 7.46054 4.96653 7.73763 5.09905 7.97246L8.23405 13.2008C8.70863 13.991 9.36338 14.6578 10.1449 15.1466L14.1774 17.6666V13.4658C14.152 13.3101 14.1713 13.1505 14.2331 13.0053C14.2948 12.8602 14.3965 12.7355 14.5263 12.646C14.6561 12.5563 14.8086 12.5054 14.9662 12.499C15.1238 12.4926 15.28 12.5311 15.4166 12.61L20.1999 15H21.2832C20.4575 14.086 20.0002 12.8983 19.9999 11.6666V9.34413C18.938 8.55821 18.1877 7.42263 17.8812 6.13754C17.5748 4.85249 17.732 3.5005 18.3249 2.31995L19.2541 0.460786C19.3036 0.361594 19.3725 0.273294 19.4566 0.201061C19.5408 0.128827 19.6385 0.0741105 19.7441 0.0401188C19.8496 0.0061271 19.9608 -0.00645625 20.0713 0.00310209C20.1818 0.0126604 20.2892 0.0441689 20.3874 0.0957856C22.3547 1.12551 24.5419 1.66443 26.7624 1.66662H27.9166C28.9446 1.66321 29.9437 2.00662 30.7523 2.64132C31.5609 3.27602 32.1319 4.16491 32.3728 5.16427C32.6137 6.16363 32.5106 7.21504 32.08 8.14846C31.6493 9.08196 30.9165 9.84288 29.9999 10.3083V11.6666C29.9994 12.3685 29.8507 13.0625 29.5634 13.703C29.2762 14.3434 28.857 14.916 28.3332 15.3833V16.6666C28.3332 17.5507 27.9821 18.3986 27.3569 19.0236C26.7318 19.6488 25.884 20 24.9999 20C24.1158 20 23.268 19.6488 22.6429 19.0236C22.0177 18.3986 21.6666 17.5507 21.6666 16.6666H19.9999C19.8701 16.6671 19.7419 16.6371 19.6257 16.5791L15.8424 14.6875V18.7583L18.8316 21C18.9226 21.0683 18.9988 21.1546 19.0553 21.2535C19.1117 21.3524 19.1474 21.4618 19.1599 21.575L19.9932 29.075C20.0061 29.1918 19.9941 29.3101 19.9581 29.422C19.9221 29.5338 19.8627 29.6368 19.7841 29.7241L14.4999 35.595C13.9936 36.154 13.6931 36.8687 13.6476 37.6215C13.6021 38.3742 13.8146 39.12 14.2499 39.7358L17.7699 44.7667L19.7549 43.7725L17.5649 38.6617C17.49 38.4869 17.4771 38.2917 17.5282 38.1087C17.5795 37.9256 17.6918 37.7655 17.8466 37.655L23.6799 33.4883C23.7826 33.4149 23.9007 33.3657 24.0252 33.3447C24.1497 33.3235 24.2774 33.331 24.3986 33.3665C24.5198 33.4019 24.6314 33.4645 24.7249 33.5494C24.8184 33.6343 24.8913 33.7394 24.9382 33.8567L27.2241 39.5708C27.4692 40.1908 27.8957 40.7224 28.4477 41.0963C28.9997 41.4702 29.6516 41.669 30.3182 41.6667H37.8182L36.9499 39.93L31.5482 39.1583C31.3294 39.1269 31.1321 39.0099 30.9996 38.833C30.867 38.6561 30.8102 38.4338 30.8416 38.215C30.873 37.9962 30.99 37.7988 31.1669 37.6663C31.3438 37.5337 31.5661 37.4769 31.7849 37.5083L37.3032 38.2967L39.5374 36.8067C39.6745 36.7156 39.8353 36.6669 39.9999 36.6667H42.4999C42.7209 36.6667 42.9329 36.7545 43.0892 36.9107C43.2454 37.067 43.3332 37.279 43.3332 37.5V46.6667C43.3332 46.8877 43.2454 47.0997 43.0892 47.2559C42.9329 47.4122 42.7209 47.5 42.4999 47.5C41.3952 47.4987 40.3362 47.0592 39.5551 46.2782C38.774 45.497 38.3346 44.438 38.3332 43.3333H30.3207C29.3211 43.3371 28.3435 43.0396 27.5154 42.4797C26.6873 41.9197 26.0471 41.1232 25.6782 40.1942L23.7874 35.4658L19.3632 38.6258L21.5991 43.8425C21.683 44.0379 21.689 44.258 21.6158 44.4577ZM26.1784 17.8451C26.491 17.5326 26.6666 17.1086 26.6666 16.6666V16.375C25.5895 16.7639 24.4103 16.7639 23.3332 16.375V16.6666C23.3332 17.1086 23.5088 17.5326 23.8214 17.8451C24.134 18.1577 24.5579 18.3333 24.9999 18.3333C25.4419 18.3333 25.8658 18.1577 26.1784 17.8451ZM27.3569 14.0236C27.9821 13.3985 28.3332 12.5507 28.3332 11.6666V8.32163C26.5732 8.24113 24.8603 7.72729 23.3466 6.82579L21.6666 7.94579V11.6666C21.6666 12.5507 22.0177 13.3985 22.6429 14.0236C23.268 14.6488 24.1158 15 24.9999 15C25.884 15 26.7318 14.6488 27.3569 14.0236ZM19.8157 3.06579C19.4226 3.85567 19.3021 4.75355 19.4732 5.61912C19.5792 6.14911 19.7934 6.65153 20.1024 7.09496C20.1661 6.97904 20.2566 6.88021 20.3666 6.80663L22.8666 5.13996C23.0035 5.04859 23.1645 4.99983 23.3291 4.99983C23.4937 4.99983 23.6546 5.04859 23.7916 5.13996C25.2837 6.13719 27.0386 6.66854 28.8332 6.66663H29.1666C29.3876 6.66663 29.5996 6.75446 29.7558 6.91071C29.9121 7.06696 29.9999 7.27896 29.9999 7.49996V8.27329C30.5321 7.73413 30.8313 7.00754 30.8332 6.24996C30.8332 5.47641 30.5259 4.73455 29.979 4.18756C29.432 3.64058 28.6902 3.33329 27.9166 3.33329H26.7624C24.5589 3.33076 22.3814 2.85742 20.3757 1.94495L19.8157 3.06579ZM40.2499 38.3333L38.5741 39.4525L39.9041 42.1308C39.9647 42.2446 39.9976 42.3711 39.9999 42.5V43.3333C40.0006 43.8502 40.1611 44.3542 40.4594 44.7763C40.7578 45.1984 41.1795 45.5178 41.6666 45.6908V38.3333H40.2499ZM30.5242 15.0625L38.1817 12L37.1084 7.70248C36.9575 7.05073 37.0685 6.36581 37.4176 5.79516C37.7668 5.2245 38.326 4.81378 38.975 4.65143C39.624 4.48907 40.3108 4.58808 40.8875 4.92712C41.4641 5.26616 41.8846 5.81812 42.0584 6.46415L43.6592 12.8525C43.8472 13.5882 43.7767 14.3662 43.4595 15.0562C43.1422 15.7462 42.5975 16.3062 41.9167 16.6425L32.45 21.37L31.6709 29.1667L32.2484 35.5308C32.2584 35.6398 32.2468 35.7498 32.2143 35.8543C32.1817 35.9588 32.1289 36.0558 32.0589 36.14C31.9889 36.2241 31.9029 36.2936 31.8061 36.3445C31.7092 36.3954 31.6032 36.4268 31.4942 36.4367H31.4175C31.2096 36.4365 31.0094 36.3586 30.8559 36.2183C30.7025 36.078 30.6071 35.8854 30.5884 35.6783L30.0725 30H22.5C22.279 30 22.067 29.9122 21.9108 29.7559C21.7545 29.5997 21.6667 29.3877 21.6667 29.1667C21.6667 28.9457 21.7545 28.7337 21.9108 28.5774C22.067 28.4212 22.279 28.3333 22.5 28.3333H30.0834L30.8375 20.75C30.8515 20.61 30.9008 20.4758 30.9806 20.36C31.0604 20.2442 31.1684 20.1504 31.2942 20.0875L35.6075 17.9308L34.5359 15.25L31.1425 16.6108C31.0409 16.6514 30.9322 16.6716 30.8227 16.6702C30.7133 16.6688 30.6052 16.6459 30.5045 16.6027C30.4039 16.5595 30.3129 16.4969 30.2364 16.4186C30.16 16.3402 30.0998 16.2475 30.0592 16.1458C30.0186 16.0442 29.9984 15.9355 29.9998 15.826C30.0012 15.7166 30.0241 15.6085 30.0674 15.5078C30.1105 15.4072 30.1731 15.3162 30.2514 15.2397C30.3299 15.1633 30.4225 15.1031 30.5242 15.0625ZM40.0388 6.32506C39.8377 6.20428 39.5969 6.16828 39.3692 6.22498C39.1419 6.28225 38.9465 6.42728 38.826 6.6283C38.7054 6.82931 38.6694 7.06998 38.7259 7.29748L39.9759 12.2975C40.0249 12.4932 40.0012 12.7001 39.9093 12.8797C39.8174 13.0593 39.6634 13.1995 39.4759 13.2742L36.0834 14.6308L37.1042 17.1825L41.1667 15.1517C41.5071 14.9837 41.7795 14.7038 41.9381 14.359C42.0968 14.0142 42.1322 13.6253 42.0384 13.2575L40.4417 6.86915C40.3848 6.64155 40.2399 6.44586 40.0388 6.32506ZM10.8333 21.6667H4.16667C3.94565 21.6667 3.73369 21.7545 3.57741 21.9108C3.42114 22.067 3.33334 22.279 3.33334 22.5V26.82C3.06645 26.7214 2.78453 26.6694 2.5 26.6667C2.00555 26.6667 1.5222 26.8133 1.11107 27.088C0.69995 27.3627 0.379524 27.7532 0.190299 28.21C0.00108212 28.6668 -0.0484261 29.1694 0.0480406 29.6544C0.144499 30.1394 0.382599 30.5849 0.732233 30.9344C1.08187 31.2841 1.52733 31.5222 2.01228 31.6187C2.49723 31.7151 2.99989 31.6656 3.45671 31.4764C3.91353 31.2872 4.30398 30.9668 4.57868 30.5556C4.85338 30.1445 5 29.6611 5 29.1667V26.6667H10V29.32C9.73309 29.2214 9.45117 29.1694 9.16667 29.1667C8.67226 29.1667 8.18884 29.3133 7.77776 29.588C7.36659 29.8627 7.04617 30.2532 6.85701 30.71C6.66776 31.1668 6.61825 31.6694 6.71467 32.1544C6.81117 32.6394 7.04926 33.0849 7.39892 33.4344C7.74851 33.7841 8.19401 34.0222 8.67892 34.1187C9.16392 34.2151 9.66659 34.1656 10.1234 33.9764C10.5802 33.7872 10.9707 33.4668 11.2453 33.0556C11.5201 32.6445 11.6667 32.1611 11.6667 31.6667V22.5C11.6667 22.279 11.5788 22.067 11.4226 21.9108C11.2663 21.7545 11.0543 21.6667 10.8333 21.6667ZM2.5 30C2.33518 30 2.17407 29.9512 2.03703 29.8596C1.89998 29.768 1.79318 29.6379 1.7301 29.4856C1.66703 29.3334 1.65053 29.1658 1.68268 29.0041C1.71483 28.8424 1.7942 28.6939 1.91074 28.5774C2.02729 28.4609 2.17578 28.3815 2.33743 28.3494C2.49908 28.3172 2.66663 28.3337 2.8189 28.3968C2.97118 28.4599 3.10133 28.5667 3.19289 28.7037C3.28446 28.8408 3.33334 29.0019 3.33334 29.1667C3.33334 29.3877 3.24554 29.5997 3.08926 29.7559C2.93298 29.9122 2.72102 30 2.5 30ZM5 23.3334H10V25H5V23.3334ZM9.16667 32.5C9.00184 32.5 8.84076 32.4512 8.70367 32.3596C8.56667 32.268 8.45984 32.1379 8.39676 31.9856C8.33367 31.8334 8.31717 31.6658 8.34934 31.5041C8.38151 31.3424 8.46084 31.1939 8.57742 31.0774C8.69392 30.9609 8.84242 30.8815 9.00409 30.8494C9.16576 30.8172 9.33334 30.8337 9.48559 30.8968C9.63784 30.9599 9.76801 31.0667 9.85959 31.2037C9.95118 31.3408 10 31.5019 10 31.6667C10 31.8877 9.91218 32.0997 9.75593 32.2559C9.59968 32.4122 9.38768 32.5 9.16667 32.5ZM43.9702 22.895L48.3035 20.395C48.3984 20.3401 48.503 20.3045 48.6116 20.2901C48.7202 20.2758 48.8305 20.283 48.9364 20.3113C49.0421 20.3396 49.1413 20.3886 49.2282 20.4552C49.3151 20.522 49.3879 20.6051 49.4427 20.7C49.9938 21.6574 50.1426 22.7943 49.8566 23.8613C49.5705 24.9283 48.8729 25.8383 47.9169 26.3916L45.7502 27.6416L47.8335 31.25C48.0985 31.7077 48.2111 32.2377 48.1549 32.7636C48.0987 33.2894 47.8766 33.7837 47.5209 34.175C47.1651 34.5662 46.694 34.8342 46.1759 34.94C45.6578 35.0458 45.1193 34.9841 44.6387 34.7636C44.158 34.5432 43.7599 34.1755 43.502 33.7137C43.2441 33.2521 43.1398 32.7203 43.2042 32.1954C43.2686 31.6705 43.4983 31.1797 43.8602 30.794C44.2219 30.4083 44.6971 30.1477 45.2168 30.05L43.8868 27.755L43.0535 26.3116C42.8892 26.0271 42.7825 25.7131 42.7397 25.3873C42.6968 25.0616 42.7185 24.7306 42.8037 24.4133C42.8888 24.096 43.0357 23.7986 43.2358 23.5381C43.4359 23.2776 43.6855 23.059 43.9702 22.895ZM46.1554 33.1772C46.3122 33.065 46.4252 32.902 46.4752 32.7158C46.5036 32.61 46.5109 32.4996 46.4966 32.3908C46.4823 32.2822 46.4467 32.1774 46.3918 32.0825C46.2953 31.9157 46.144 31.7873 45.9636 31.7195C45.7832 31.6517 45.5849 31.6485 45.4023 31.7105C45.2198 31.7725 45.0644 31.8959 44.9627 32.0596C44.8609 32.2232 44.819 32.4172 44.8442 32.6083C44.8693 32.7994 44.9599 32.9758 45.1006 33.1077C45.2413 33.2395 45.4233 33.3184 45.6156 33.3311C45.8079 33.3437 45.9987 33.2894 46.1554 33.1772ZM44.916 26.1983L47.0827 24.9483H47.0835C47.5308 24.6896 47.8869 24.2985 48.1029 23.8291C48.3189 23.3596 48.3839 22.8346 48.2893 22.3266L44.8052 24.3383C44.7103 24.393 44.6272 24.4657 44.5605 24.5526C44.4938 24.6393 44.4448 24.7384 44.4164 24.8441C44.388 24.9498 44.3808 25.0601 44.395 25.1686C44.4092 25.2771 44.4447 25.3818 44.4993 25.4766L44.916 26.1983ZM12.0625 5.79753H12.8958V6.63087C12.8958 6.85187 12.9837 7.06387 13.1399 7.22012C13.2962 7.37637 13.5082 7.4642 13.7292 7.4642C13.9502 7.4642 14.1622 7.37637 14.3184 7.22012C14.4747 7.06387 14.5625 6.85187 14.5625 6.63087V5.79753H15.3958C15.6168 5.79753 15.8288 5.70973 15.9851 5.55346C16.1413 5.39717 16.2292 5.18521 16.2292 4.9642C16.2292 4.74318 16.1413 4.53122 15.9851 4.37494C15.8288 4.21866 15.6168 4.13086 15.3958 4.13086H14.5625V3.29753C14.5625 3.07651 14.4747 2.86455 14.3184 2.70827C14.1622 2.552 13.9502 2.4642 13.7292 2.4642C13.5082 2.4642 13.2962 2.552 13.1399 2.70827C12.9837 2.86455 12.8958 3.07651 12.8958 3.29753V4.13086H12.0625C11.8415 4.13086 11.6295 4.21866 11.4733 4.37494C11.317 4.53122 11.2292 4.74318 11.2292 4.9642C11.2292 5.18521 11.317 5.39717 11.4733 5.55346C11.6295 5.70973 11.8415 5.79753 12.0625 5.79753ZM4.16667 39.1667H5C5.22102 39.1667 5.43298 39.2545 5.58926 39.4108C5.74554 39.567 5.83334 39.779 5.83334 40C5.83334 40.221 5.74554 40.433 5.58926 40.5893C5.43298 40.7455 5.22102 40.8334 5 40.8334H4.16667V41.6667C4.16667 41.8877 4.07887 42.0997 3.9226 42.256C3.76631 42.4122 3.55435 42.5 3.33334 42.5C3.11232 42.5 2.90036 42.4122 2.74408 42.256C2.5878 42.0997 2.5 41.8877 2.5 41.6667V40.8334H1.66667C1.44565 40.8334 1.23369 40.7455 1.07741 40.5893C0.921134 40.433 0.833334 40.221 0.833334 40C0.833334 39.779 0.921134 39.567 1.07741 39.4108C1.23369 39.2545 1.44565 39.1667 1.66667 39.1667H2.5V38.3334C2.5 38.1124 2.5878 37.9004 2.74408 37.7441C2.90036 37.5879 3.11232 37.5 3.33334 37.5C3.55435 37.5 3.76631 37.5879 3.9226 37.7441C4.07887 37.9004 4.16667 38.1124 4.16667 38.3334V39.1667ZM36.6667 33.3334C36.8877 33.3334 37.0997 33.2455 37.256 33.0893C37.4122 32.933 37.5 32.721 37.5 32.5V31.6667H38.3334C38.5544 31.6667 38.7664 31.5789 38.9226 31.4226C39.0789 31.2664 39.1667 31.0544 39.1667 30.8334C39.1667 30.6124 39.0789 30.4004 38.9226 30.2441C38.7664 30.0879 38.5544 30 38.3334 30H37.5V29.1667C37.5 28.9457 37.4122 28.7337 37.256 28.5774C37.0997 28.4212 36.8877 28.3334 36.6667 28.3334C36.4457 28.3334 36.2337 28.4212 36.0774 28.5774C35.9212 28.7337 35.8334 28.9457 35.8334 29.1667V30H35C34.779 30 34.567 30.0879 34.4108 30.2441C34.2545 30.4004 34.1667 30.6124 34.1667 30.8334C34.1667 31.0544 34.2545 31.2664 34.4108 31.4226C34.567 31.5789 34.779 31.6667 35 31.6667H35.8334V32.5C35.8334 32.721 35.9212 32.933 36.0774 33.0893C36.2337 33.2455 36.4457 33.3334 36.6667 33.3334ZM48.889 10.412C48.4779 10.6868 47.9945 10.8333 47.5 10.8333C46.837 10.8333 46.2011 10.5699 45.7323 10.1011C45.2635 9.63226 45 8.99642 45 8.33334C45 7.83892 45.1466 7.35551 45.4214 6.94442C45.696 6.53329 46.0865 6.21286 46.5434 6.02364C47.0001 5.83442 47.5028 5.78491 47.9878 5.88138C48.4727 5.97784 48.9182 6.21594 49.2678 6.56557C49.6175 6.91517 49.8556 7.36067 49.9521 7.84559C50.0485 8.33059 49.999 8.83326 49.8097 9.29009C49.6205 9.74684 49.3001 10.1373 48.889 10.412ZM47.963 7.64042C47.826 7.54892 47.6649 7.50001 47.5 7.50001C47.279 7.50001 47.067 7.58784 46.9108 7.74409C46.7545 7.90034 46.6667 8.11234 46.6667 8.33334C46.6667 8.49817 46.7155 8.65926 46.8071 8.79634C46.8987 8.93334 47.0289 9.04017 47.1811 9.10326C47.3334 9.16634 47.501 9.18284 47.6626 9.15067C47.8243 9.11851 47.9728 9.03917 48.0893 8.92259C48.2059 8.80609 48.2852 8.65759 48.3174 8.49592C48.3495 8.33426 48.333 8.16667 48.27 8.01442C48.2069 7.86217 48.1 7.73201 47.963 7.64042ZM1.66667 1.66667C2.1269 1.66667 2.5 1.29357 2.5 0.833334C2.5 0.3731 2.1269 1.88813e-10 1.66667 1.88813e-10C1.20643 1.88813e-10 0.833334 0.3731 0.833334 0.833334C0.833334 1.29357 1.20643 1.66667 1.66667 1.66667ZM3.72813 14.13C3.72813 14.5902 3.35504 14.9633 2.89479 14.9633C2.43456 14.9633 2.06146 14.5902 2.06146 14.13C2.06146 13.6697 2.43456 13.2966 2.89479 13.2966C3.35504 13.2966 3.72813 13.6697 3.72813 14.13ZM39.1667 24.45C39.627 24.45 40 24.0769 40 23.6167C40 23.1564 39.627 22.7834 39.1667 22.7834C38.7065 22.7834 38.3334 23.1564 38.3334 23.6167C38.3334 24.0769 38.7065 24.45 39.1667 24.45ZM40 1.66667C40 2.1269 39.627 2.5 39.1667 2.5C38.7065 2.5 38.3334 2.1269 38.3334 1.66667C38.3334 1.20643 38.7065 0.833334 39.1667 0.833334C39.627 0.833334 40 1.20643 40 1.66667Z"/></g><defs><clipPath id="ahclip0_423_4169"><rect width="50" height="50"/></clipPath></defs></symbol><symbol viewBox="0 0 24 25" id="heart" xmlns="http://www.w3.org/2000/svg"><path fill-rule="evenodd" clip-rule="evenodd" d="M12.6924 7.58373C12.3055 7.95505 11.6945 7.95505 11.3076 7.58373L10.6152 6.91927C9.80477 6.14154 8.70994 5.66667 7.5 5.66667C5.01472 5.66667 3 7.68139 3 10.1667C3 12.5493 4.28979 14.5167 6.15176 16.1332C8.01532 17.7511 10.2434 18.8241 11.5746 19.3717C11.853 19.4862 12.147 19.4862 12.4254 19.3717C13.7566 18.8241 15.9847 17.7511 17.8482 16.1332C19.7102 14.5167 21 12.5493 21 10.1667C21 7.68139 18.9853 5.66667 16.5 5.66667C15.2901 5.66667 14.1952 6.14154 13.3848 6.91927L12.6924 7.58373ZM12 5.47624C10.8321 4.35548 9.24649 3.66667 7.5 3.66667C3.91015 3.66667 1 6.57682 1 10.1667C1 16.5349 7.97034 20.0517 10.8138 21.2214C11.5796 21.5364 12.4204 21.5364 13.1862 21.2214C16.0297 20.0517 23 16.5349 23 10.1667C23 6.57682 20.0899 3.66667 16.5 3.66667C14.7535 3.66667 13.1679 4.35548 12 5.47624Z"/></symbol><symbol viewBox="0 0 24 24" id="heart-line" xmlns="http://www.w3.org/2000/svg"><path d="M12.001 4.52853C14.35 2.42 17.98 2.49 20.2426 4.75736C22.5053 7.02472 22.583 10.637 20.4786 12.993L11.9999 21.485L3.52138 12.993C1.41705 10.637 1.49571 7.01901 3.75736 4.75736C6.02157 2.49315 9.64519 2.41687 12.001 4.52853ZM18.827 6.1701C17.3279 4.66794 14.9076 4.60701 13.337 6.01687L12.0019 7.21524L10.6661 6.01781C9.09098 4.60597 6.67506 4.66808 5.17157 6.17157C3.68183 7.66131 3.60704 10.0473 4.97993 11.6232L11.9999 18.6543L19.0201 11.6232C20.3935 10.0467 20.319 7.66525 18.827 6.1701Z"/></symbol><symbol viewBox="0 0 24 24" id="id-card-line" xmlns="http://www.w3.org/2000/svg"><path d="M3 6H21V18H3V6ZM2 4C1.44772 4 1 4.44772 1 5V19C1 19.5523 1.44772 20 2 20H22C22.5523 20 23 19.5523 23 19V5C23 4.44772 22.5523 4 22 4H2ZM13 8H19V10H13V8ZM18 12H13V14H18V12ZM10.5 10C10.5 11.3807 9.38071 12.5 8 12.5C6.61929 12.5 5.5 11.3807 5.5 10C5.5 8.61929 6.61929 7.5 8 7.5C9.38071 7.5 10.5 8.61929 10.5 10ZM8 13.5C6.067 13.5 4.5 15.067 4.5 17H11.5C11.5 15.067 9.933 13.5 8 13.5Z"/></symbol><symbol viewBox="0 0 30 20" id="metro" xmlns="http://www.w3.org/2000/svg"><path d="M27.5495 17.2061L20.7509 0L15 10.0582L9.27239 0L2.45051 17.2061H0.448181V19.8137H10.7392V17.2061H9.20255L10.6927 12.922L15 20L19.3073 12.922L20.7974 17.2061H19.2608V19.8137H29.5518V17.2061H27.5495Z"/></symbol><symbol viewBox="0 0 32 40" id="people" xmlns="http://www.w3.org/2000/svg"><path d="M24.668 16.463C26.668 15.1822 28 12.9462 28 10.3998C28 6.4294 24.7696 3.1998 20.8 3.1998C20.1144 3.1998 19.436 3.3022 18.7752 3.4982C17.308 1.8478 15.1768 0.799805 12.8 0.799805C8.3888 0.799805 4.8 4.3886 4.8 8.7998C4.8 11.5446 6.1912 13.971 8.304 15.4118C3.5704 16.3846 0 20.583 0 25.5998V39.1998H25.6V35.9998H32V26.3998C32 21.7326 28.9096 17.775 24.668 16.463ZM19.7776 4.8958C20.1152 4.8318 20.4568 4.7998 20.8 4.7998C23.888 4.7998 26.4 7.3126 26.4 10.3998C26.4 13.487 23.888 15.9998 20.8 15.9998C19.7016 15.9998 18.644 15.6798 17.7392 15.0846C17.7512 15.075 17.7608 15.0646 17.7728 15.055C18.4592 14.5078 19.052 13.851 19.5288 13.1102C19.5472 13.0814 19.564 13.051 19.5824 13.0222C19.7168 12.807 19.8416 12.5854 19.9552 12.3566C19.976 12.3142 19.9968 12.271 20.0168 12.2286C20.1208 12.011 20.2144 11.7878 20.2992 11.5598C20.3184 11.5086 20.3376 11.4574 20.356 11.4054C20.4328 11.1846 20.4976 10.9598 20.5552 10.7302C20.5704 10.671 20.5872 10.6118 20.6008 10.5526C20.6512 10.327 20.6904 10.0974 20.7208 9.8646C20.7296 9.80221 20.7424 9.7414 20.7488 9.679C20.7808 9.391 20.8 9.0974 20.8 8.7998C20.8 8.483 20.7768 8.1718 20.7408 7.8646C20.7296 7.76781 20.7112 7.67261 20.6968 7.57581C20.6632 7.35981 20.6232 7.147 20.5728 6.9374C20.5488 6.8366 20.5232 6.7366 20.4952 6.6374C20.4296 6.4046 20.3536 6.1774 20.268 5.9534C20.2448 5.8934 20.2264 5.8318 20.2016 5.7718C20.08 5.475 19.9408 5.1878 19.7856 4.9102C19.7824 4.9054 19.78 4.9006 19.7776 4.8958ZM6.4 8.7998C6.4 5.27101 9.2712 2.3998 12.8 2.3998C14.7816 2.3998 16.5544 3.3054 17.7296 4.723L17.7808 4.7894C17.82 4.8374 17.8544 4.8894 17.892 4.9382C18.2984 5.4734 18.6096 6.0566 18.8288 6.6718C18.844 6.7142 18.8608 6.755 18.8744 6.7974C18.9696 7.083 19.0408 7.37661 19.0944 7.67421C19.1056 7.73741 19.1144 7.8014 19.124 7.8654C19.1688 8.1734 19.2 8.4838 19.2 8.7998C19.2 9.0622 19.18 9.3214 19.148 9.5782C19.1408 9.639 19.1296 9.6982 19.1208 9.7582C19.088 9.96941 19.0472 10.1782 18.9936 10.3838C18.9824 10.4278 18.972 10.4718 18.96 10.5158C18.8152 11.0302 18.6088 11.5238 18.3432 11.9846C18.3376 11.9934 18.332 12.0022 18.3272 12.011C18.1984 12.2318 18.056 12.4438 17.9016 12.6486C17.8872 12.6678 17.8728 12.6878 17.8584 12.707C17.532 13.1294 17.152 13.5118 16.7248 13.8446C16.7024 13.8622 16.6792 13.8782 16.6568 13.8958C16.4536 14.0494 16.2416 14.1934 16.0192 14.323C15.9936 14.3382 15.9688 14.3542 15.9432 14.3694L15.8192 14.4414C14.9184 14.9238 13.8912 15.1998 12.8 15.1998C9.2712 15.1998 6.4 12.3286 6.4 8.7998ZM24 37.5998H1.6V25.5998C1.6 20.7478 5.548 16.7998 10.4 16.7998H15.2C16.396 16.7998 17.5368 17.0414 18.5776 17.4758L18.7312 17.5446C18.82 17.5838 18.9056 17.6286 18.9928 17.671C19.2304 17.7846 19.46 17.9086 19.684 18.0414C19.7856 18.1022 19.8888 18.1614 19.988 18.2262C20.0944 18.295 20.1968 18.3678 20.3 18.4414C20.4064 18.5174 20.5112 18.5958 20.6144 18.6766C20.7064 18.7486 20.7976 18.8198 20.8864 18.895C21.0216 19.0102 21.152 19.1302 21.28 19.2534C21.3808 19.3502 21.4792 19.4494 21.5752 19.551C21.6832 19.6654 21.7904 19.7806 21.8928 19.8998C21.9688 19.9894 22.0416 20.0806 22.1136 20.1726C22.1952 20.2766 22.2736 20.3822 22.3512 20.4902C22.4216 20.5878 22.492 20.6854 22.5584 20.7862C22.6496 20.9246 22.7336 21.0678 22.8168 21.211C22.904 21.3614 22.9848 21.5142 23.0632 21.6694C23.1208 21.783 23.1768 21.8974 23.2296 22.0142C23.2816 22.1294 23.3304 22.247 23.3768 22.3646C23.4264 22.4902 23.472 22.6174 23.5168 22.7454C23.5536 22.8526 23.5936 22.959 23.6264 23.0678C23.6936 23.291 23.752 23.5174 23.8016 23.747C23.8208 23.835 23.8344 23.9254 23.8512 24.0142C23.884 24.1918 23.912 24.371 23.9336 24.5518C23.944 24.6366 23.9544 24.7214 23.9616 24.807C23.9832 25.0686 24 25.3326 24 25.5998V35.9998V37.5998ZM30.4 34.3998H25.6V25.5998C25.6 25.2198 25.5768 24.8454 25.5368 24.4758C25.5272 24.387 25.5088 24.3006 25.4968 24.2126C25.4584 23.9286 25.4144 23.647 25.3536 23.371C25.3328 23.2782 25.3056 23.1878 25.2824 23.0958C25.2152 22.827 25.1416 22.5606 25.0544 22.3006C25.024 22.2102 24.9888 22.1214 24.956 22.0318C24.8624 21.7758 24.7608 21.5246 24.648 21.2782C24.6064 21.1886 24.5632 21.1006 24.5192 21.0118C24.4008 20.7726 24.2744 20.5382 24.1384 20.3094C24.0864 20.2222 24.0344 20.1358 23.9808 20.0494C23.8384 19.8254 23.6872 19.6086 23.5288 19.3958C23.4688 19.3158 23.4112 19.2342 23.3496 19.1558C23.1752 18.9358 22.9904 18.7262 22.8 18.5214C22.744 18.4614 22.6928 18.399 22.6352 18.3398C22.3824 18.0814 22.1192 17.8334 21.8408 17.6022C26.5816 17.7302 30.4 21.6278 30.4 26.3998V34.3998Z"/></symbol><symbol viewBox="0 0 22 22" id="phone" xmlns="http://www.w3.org/2000/svg"><path d="M20.8881 15.9562V18.9562C20.8892 19.2347 20.8322 19.5104 20.7206 19.7656C20.6091 20.0208 20.4454 20.2498 20.2402 20.4381C20.035 20.6264 19.7927 20.7697 19.5289 20.8589C19.265 20.9482 18.9855 20.9813 18.7081 20.9562C15.631 20.6219 12.6751 19.5704 10.0781 17.8862C7.66194 16.3509 5.61345 14.3024 4.07812 11.8862C2.38809 9.27743 1.33636 6.30722 1.00812 3.21623C0.983127 2.9397 1.01599 2.66099 1.10462 2.39785C1.19324 2.13472 1.33569 1.89292 1.52288 1.68785C1.71008 1.48278 1.93792 1.31894 2.19191 1.20675C2.44589 1.09456 2.72046 1.03649 2.99812 1.03623H5.99812C6.48342 1.03145 6.95391 1.20331 7.32188 1.51976C7.68985 1.83622 7.93019 2.27568 7.99812 2.75623C8.12474 3.7163 8.35957 4.65896 8.69812 5.56623C8.83266 5.92415 8.86178 6.31314 8.78202 6.68711C8.70227 7.06108 8.51698 7.40434 8.24812 7.67623L6.97812 8.94623C8.40167 11.4498 10.4746 13.5227 12.9781 14.9462L14.2481 13.6762C14.52 13.4074 14.8633 13.2221 15.2372 13.1423C15.6112 13.0626 16.0002 13.0917 16.3581 13.2262C17.2654 13.5648 18.2081 13.7996 19.1681 13.9262C19.6539 13.9948 20.0975 14.2394 20.4146 14.6137C20.7318 14.988 20.9003 15.4658 20.8881 15.9562Z" stroke-linecap="round" stroke-linejoin="round"/></symbol><symbol viewBox="0 0 47 54" id="play" xmlns="http://www.w3.org/2000/svg"><path d="M46.4348 27.0001L0.782639 53.3574V0.642796L46.4348 27.0001Z"/></symbol><symbol viewBox="0 0 54 66" id="point" xmlns="http://www.w3.org/2000/svg"><path fill-rule="evenodd" clip-rule="evenodd" d="M8.53473 46.2893C-1.8449 35.9097 -1.84492 19.081 8.53473 8.70136C18.9144 -1.6783 35.7431 -1.67827 46.1227 8.70136C56.5023 19.081 56.5023 35.9097 46.1227 46.2893L27.3287 65.0833L8.53473 46.2893ZM19.8111 19.9777C15.6593 24.1296 15.6593 30.8611 19.8111 35.0129C23.963 39.1648 30.6945 39.1647 34.8463 35.0129C38.9981 30.8611 38.9982 24.1296 34.8463 19.9777C30.6945 15.8259 23.9629 15.8259 19.8111 19.9777Z"/></symbol><symbol viewBox="0 0 40 40" id="robot-face" xmlns="http://www.w3.org/2000/svg"><path d="M37.5355 18.1616H36.2427V11.8587C36.2427 9.46367 34.2943 7.51516 31.8992 7.51516H28.1013V6.84859C28.1013 5.83484 27.2765 5.01016 26.2629 5.01016H23.7175V3.71727C23.7175 1.66758 22.0499 0 20.0002 0C17.9505 0 16.2829 1.66758 16.2829 3.71727V5.01008H13.7376C12.7238 5.01008 11.8991 5.83484 11.8991 6.84852V7.51508H8.10123C5.70623 7.51508 3.75771 9.46359 3.75771 11.8586V18.1615H2.4649C1.45115 18.1615 0.626465 18.9862 0.626465 19.9999V27.515C0.626465 28.5287 1.45123 29.3534 2.4649 29.3534H3.75771V35.6564C3.75771 38.0514 5.70615 39.9999 8.10123 39.9999H31.8991C34.2941 39.9999 36.2426 38.0515 36.2426 35.6564V29.3534H37.5354C38.5492 29.3534 39.3739 28.5287 39.3739 27.515V20C39.374 18.9862 38.5492 18.1616 37.5355 18.1616ZM17.4548 3.71727C17.4548 2.31375 18.5967 1.17188 20.0002 1.17188C21.4037 1.17188 22.5456 2.31375 22.5456 3.71727V5.01008H17.4549V3.71727H17.4548ZM13.0711 6.84852C13.0711 6.48094 13.3701 6.18195 13.7376 6.18195H26.2628C26.6304 6.18195 26.9294 6.48102 26.9294 6.84852V7.51508H13.0711V6.84852ZM38.2021 27.5151C38.2021 27.8827 37.903 28.1816 37.5355 28.1816H36.2427V22.5052C36.2427 22.1816 35.9804 21.9193 35.6568 21.9193C35.3332 21.9193 35.0708 22.1816 35.0708 22.5052V35.6564C35.0708 37.4052 33.6481 38.828 31.8992 38.828H8.10123C6.3524 38.828 4.92959 37.4053 4.92959 35.6564V22.5048C4.92959 22.1812 4.66725 21.9188 4.34365 21.9188C4.02006 21.9188 3.75771 22.1812 3.75771 22.5048V28.1817H2.4649C2.09732 28.1817 1.79834 27.8827 1.79834 27.5152V20C1.79834 19.6324 2.0974 19.3334 2.4649 19.3334H3.75771V20.0002C3.75771 20.3238 4.02006 20.5861 4.34365 20.5861C4.66725 20.5861 4.92959 20.3238 4.92959 20.0002V11.8587C4.92959 10.1098 6.35232 8.68703 8.10123 8.68703H31.8991C33.6479 8.68703 35.0708 10.1098 35.0708 11.8587V20C35.0708 20.3236 35.3331 20.5859 35.6567 20.5859C35.9803 20.5859 36.2426 20.3236 36.2426 20V19.3334H37.5354C37.903 19.3334 38.202 19.6325 38.202 20V27.5151H38.2021Z"/><path d="M28.1416 29.4346H11.8589C10.8452 29.4346 10.0205 30.2593 10.0205 31.273V32.5255C10.0205 33.5393 10.8453 34.3639 11.8589 34.3639H28.1417C29.1554 34.3639 29.9801 33.5392 29.9801 32.5255V31.273C29.9801 30.2593 29.1554 29.4346 28.1416 29.4346ZM17.4549 30.6064H19.4143V33.1921H17.4549V30.6064ZM16.283 33.1921H14.3236V30.6064H16.283V33.1921ZM20.5862 30.6064H22.5457V33.1921H20.5862V30.6064ZM23.7175 30.6064H25.6769V33.1921H23.7175V30.6064ZM11.1923 32.5256V31.2731C11.1923 30.9055 11.4914 30.6065 11.8589 30.6065H13.1517V33.1922H11.8589C11.4914 33.1921 11.1923 32.8931 11.1923 32.5256ZM28.8082 32.5256C28.8082 32.8932 28.5092 33.1921 28.1417 33.1921H26.8489V30.6064H28.1417C28.5093 30.6064 28.8082 30.9055 28.8082 31.273V32.5256Z"/><path d="M10.868 24.4335C10.5893 24.269 10.2301 24.3617 10.0656 24.6404C9.90116 24.9191 9.99382 25.2784 10.2725 25.4428C11.1578 25.9652 12.1397 26.2197 13.1148 26.2197C14.5605 26.2197 15.9912 25.6598 17.068 24.5829C18.8712 22.7799 19.2247 19.9854 17.928 17.7873C17.7636 17.5087 17.4044 17.4159 17.1255 17.5804C16.8469 17.7448 16.7542 18.1041 16.9187 18.3828C17.9438 20.1204 17.6644 22.3293 16.2394 23.7543C15.5335 24.4603 14.6351 24.8846 13.6971 25.0089V16.2446C14.2693 16.3216 14.833 16.5109 15.3543 16.8184C15.6329 16.9828 15.9923 16.8902 16.1567 16.6115C16.3212 16.3328 16.2285 15.9735 15.9498 15.8091C13.7518 14.5123 10.9573 14.8659 9.15429 16.6689C7.35124 18.472 6.99765 21.2665 8.29444 23.4646C8.40374 23.6498 8.59905 23.7528 8.7996 23.7528C8.90077 23.7528 9.00335 23.7267 9.09679 23.6714C9.37546 23.5071 9.46811 23.1478 9.30366 22.869C8.2785 21.1314 8.55788 18.9226 9.98288 17.4975C10.6888 16.7915 11.5872 16.3672 12.5253 16.2429V25.0073C11.953 24.9303 11.3894 24.741 10.868 24.4335Z"/><path d="M30.9001 17.5804C30.6215 17.7448 30.5288 18.1041 30.6933 18.3828C31.7184 20.1204 31.439 22.3292 30.014 23.7543C29.3081 24.4603 28.4097 24.8846 27.4716 25.0089V16.2446C28.0438 16.3216 28.6075 16.5108 29.1288 16.8184C29.4075 16.9828 29.7668 16.8902 29.9312 16.6115C30.0957 16.3328 30.003 15.9735 29.7243 15.8091C27.5263 14.5123 24.7318 14.8659 22.9287 16.6689C21.1256 18.4721 20.7721 21.2665 22.0689 23.4646C22.1782 23.6498 22.3735 23.7528 22.5741 23.7528C22.6753 23.7528 22.7778 23.7267 22.8713 23.6714C23.15 23.5071 23.2426 23.1478 23.0782 22.869C22.053 21.1314 22.3324 18.9226 23.7574 17.4975C24.4633 16.7916 25.3617 16.3673 26.2998 16.243V25.0073C25.7276 24.9303 25.1639 24.741 24.6426 24.4335C24.364 24.269 24.0047 24.3616 23.8402 24.6403C23.6758 24.919 23.7684 25.2783 24.0471 25.4428C24.9324 25.9651 25.9143 26.2196 26.8893 26.2196C28.3351 26.2196 29.7658 25.6597 30.8427 24.5829C32.6458 22.7798 32.9993 19.9853 31.7025 17.7873C31.5382 17.5087 31.179 17.416 30.9001 17.5804Z"/></symbol><symbol viewBox="0 0 30 24" id="sale" xmlns="http://www.w3.org/2000/svg"><path d="M10.072 23.3598L24.472 0.63979H19.928L5.528 23.3598H10.072ZM23.48 23.6158C26.936 23.6158 29.784 20.7678 29.784 17.3118C29.784 13.8238 26.936 11.0078 23.48 11.0078C19.992 11.0078 17.176 13.8238 17.176 17.3118C17.176 20.7678 19.992 23.6158 23.48 23.6158ZM23.48 19.9038C22.04 19.9038 20.92 18.7198 20.92 17.3118C20.92 15.9038 22.04 14.7198 23.48 14.7198C24.92 14.7198 26.008 15.9038 26.008 17.3118C26.008 18.7198 24.92 19.9038 23.48 19.9038ZM6.52 12.9918C9.976 12.9918 12.824 10.1438 12.824 6.68779C12.824 3.19979 9.976 0.383789 6.52 0.383789C3.032 0.383789 0.216003 3.19979 0.216003 6.68779C0.216003 10.1438 3.032 12.9918 6.52 12.9918ZM6.52 9.27979C5.08 9.27979 3.96 8.09579 3.96 6.68779C3.96 5.27979 5.08 4.09579 6.52 4.09579C7.96 4.09579 9.08 5.27979 9.08 6.68779C9.08 8.09579 7.96 9.27979 6.52 9.27979Z"/></symbol><symbol viewBox="0 0 24 24" id="search" xmlns="http://www.w3.org/2000/svg"><path d="M18.5 18.5L22 22M21 11.5C21 6.25329 16.7467 2 11.5 2C6.25329 2 2 6.25329 2 11.5C2 16.7467 6.25329 21 11.5 21C16.7467 21 21 16.7467 21 11.5Z" stroke-width="1.5" stroke-linecap="round" stroke-linejoin="round"/></symbol><symbol viewBox="0 0 24 24" id="search-line" xmlns="http://www.w3.org/2000/svg"><path d="M18.031 16.6168L22.3137 20.8995L20.8995 22.3137L16.6168 18.031C15.0769 19.263 13.124 20 11 20C6.032 20 2 15.968 2 11C2 6.032 6.032 2 11 2C15.968 2 20 6.032 20 11C20 13.124 19.263 15.0769 18.031 16.6168ZM16.0247 15.8748C17.2475 14.6146 18 12.8956 18 11C18 7.1325 14.8675 4 11 4C7.1325 4 4 7.1325 4 11C4 14.8675 7.1325 18 11 18C12.8956 18 14.6146 17.2475 15.8748 16.0247L16.0247 15.8748Z"/></symbol><symbol viewBox="0 0 50 50" id="star" xmlns="http://www.w3.org/2000/svg"><path fill-rule="evenodd" clip-rule="evenodd" d="M15.0122 0C18.2583 0 20.8386 2.58023 20.8386 5.82633H19.1739C19.1739 3.4958 17.3428 1.66467 15.0122 1.66467V0ZM0.362954 18.9772C0.0300206 18.8107 -0.0532127 18.3946 0.0300205 18.0616C0.196487 17.7287 0.52942 17.479 0.862353 17.479H18.6743L24.2509 2.9964C24.3341 2.7467 24.6671 2.497 25 2.497C25.3329 2.497 25.6659 2.7467 25.7491 2.9964L31.3257 17.5622H49.1376C49.5538 17.5622 49.8867 17.8119 49.97 18.1448C50.0532 18.4778 49.97 18.8939 49.637 19.0604L35.6539 28.7155L42.3958 46.3609C42.5622 46.6939 42.3957 47.0268 42.146 47.2765C41.9796 47.3597 41.8131 47.443 41.6467 47.443C41.4802 47.443 41.3137 47.3597 41.1473 47.2765L25 36.04L8.85275 47.1933C8.51981 47.443 8.10365 47.443 7.85395 47.1933C7.60425 47.0268 7.43778 46.6106 7.60425 46.2777L14.3461 28.6322L0.362954 18.9772ZM5.77312 20.7251L15.8443 27.7167C16.1773 27.8831 16.2605 28.2993 16.094 28.6322L11.0168 41.8663L23.585 26.2185L5.77312 20.7251ZM24.5006 34.3753C24.6671 34.2921 24.8335 34.2089 25 34.2089C25.1665 34.2089 25.3329 34.2921 25.4162 34.3753L37.4018 42.6987L25 27.134L12.515 42.6987L24.5006 34.3753ZM38.9 41.9496L33.8227 28.7155C33.7395 28.2993 33.8227 27.8831 34.1557 27.7167L44.2269 20.7251L26.415 26.2185L38.9 41.9496ZM43.6442 19.1436H30.7431C30.4102 19.1436 30.0772 18.8939 29.994 18.6442L25.8323 7.82393V24.637L43.6442 19.1436ZM20.006 18.6442C19.9228 18.8939 19.5898 19.1436 19.2569 19.1436H6.35575L24.1677 24.7203V7.82393L20.006 18.6442ZM46.641 11.6527C44.3105 11.6527 42.4794 13.4838 42.4794 15.8143H40.8147C40.8147 12.5682 43.3949 9.98799 46.641 9.98799V11.6527ZM49.9704 9.98799H48.3057V11.6527H49.9704V9.98799ZM13.3474 0H11.6827V1.66467H13.3474V0ZM38.3177 3.32933C38.3177 4.7443 39.3997 5.82633 40.8147 5.82633C41.3141 5.82633 41.647 6.15926 41.647 6.65866C41.647 7.15806 41.3141 7.49099 40.8147 7.49099C39.3997 7.49099 38.3177 8.57302 38.3177 9.98799C38.3177 10.4874 37.9848 10.8203 37.4854 10.8203C36.986 10.8203 36.653 10.4874 36.653 9.98799C36.653 8.57302 35.571 7.49099 34.156 7.49099C33.6566 7.49099 33.3237 7.15806 33.3237 6.65866C33.3237 6.15926 33.6566 5.82633 34.156 5.82633C35.571 5.82633 36.653 4.7443 36.653 3.32933C36.653 2.82993 36.986 2.497 37.4854 2.497C37.9848 2.497 38.3177 2.82993 38.3177 3.32933ZM36.653 6.65866C36.986 6.90836 37.2357 7.15806 37.4854 7.49099C37.7351 7.15806 37.9848 6.90836 38.3177 6.65866C37.9848 6.40896 37.7351 6.15926 37.4854 5.82633C37.2357 6.15926 36.986 6.40896 36.653 6.65866ZM7.5212 3.32933C6.10624 3.32933 5.0242 2.2473 5.0242 0.832332C5.0242 0.332933 4.69127 0 4.19187 0C3.69247 0 3.35954 0.332933 3.35954 0.832332C3.35954 2.2473 2.27751 3.32933 0.862541 3.32933C0.363141 3.32933 0.0302083 3.66226 0.0302083 4.16166C0.0302083 4.66106 0.363141 4.99399 0.862541 4.99399C2.27751 4.99399 3.35954 6.07603 3.35954 7.49099C3.35954 7.99039 3.69247 8.32333 4.19187 8.32333C4.69127 8.32333 5.0242 7.99039 5.0242 7.49099C5.0242 6.07603 6.10624 4.99399 7.5212 4.99399C8.0206 4.99399 8.35353 4.66106 8.35353 4.16166C8.35353 3.66226 8.0206 3.32933 7.5212 3.32933ZM4.19187 4.99399C3.94217 4.66106 3.69247 4.41136 3.35954 4.16166C3.69247 3.91196 3.94217 3.66226 4.19187 3.32933C4.44157 3.66226 4.69127 3.91196 5.0242 4.16166C4.69127 4.41136 4.44157 4.66106 4.19187 4.99399ZM48.3057 0H49.9704V1.66467H48.3057V0ZM10.8504 6.65862H9.18573V8.32329H10.8504V6.65862ZM0.0302371 12.485H1.6949V14.1497H0.0302371V12.485ZM8.3534 14.1496H6.68874V15.8143H8.3534V14.1496ZM44.9762 0H46.6409V1.66467H44.9762V0ZM46.641 31.6286C43.3949 31.6286 40.8147 34.2088 40.8147 37.4549H42.4794C42.4794 35.1244 44.3105 33.2933 46.641 33.2933V31.6286ZM48.3057 31.6286H49.9704V33.2933H48.3057V31.6286ZM9.18606 28.2993H7.52139C7.52139 30.6299 5.69026 32.461 3.35973 32.461V34.1257C6.60583 34.1257 9.18606 31.5454 9.18606 28.2993ZM0.0302371 32.461H1.6949V34.1256H0.0302371V32.461ZM1.6949 48.2753H0.0302371V49.94H1.6949V48.2753ZM20.8387 42.449H22.5034V44.1136H20.8387V42.449ZM31.6589 48.2753H29.9942V49.94H31.6589V48.2753ZM48.3057 48.2753H49.9704V49.94H48.3057V48.2753Z"/></symbol><symbol viewBox="0 0 61 60" id="telegram" xmlns="http://www.w3.org/2000/svg"><g clip-path="url(#avclip0_349_1661)"><path d="M60.4824 0H0.517578C0.50787 0 0.5 0.00787 0.5 0.0175781V59.9824C0.5 59.9921 0.50787 60 0.517578 60H60.4824C60.4921 60 60.5 59.9921 60.5 59.9824V0.0175781C60.5 0.00787 60.4921 0 60.4824 0Z"/><path d="M23.8203 47.3438C22.5312 47.3438 22.6484 46.875 22.2969 45.7031L18.5469 33.3984L47.2578 16.5234"/><path d="M23.8203 47.3438C24.6406 47.3438 25.1094 46.875 25.6953 46.4062L30.9688 41.3672L24.4062 37.3828"/><path d="M24.4062 37.3827L40.2266 48.9843C41.8672 50.039 43.2734 49.453 43.7422 47.3437L50.1875 17.1093C50.7734 14.5312 49.1328 13.3593 47.375 14.1796L9.75781 28.7108C7.29687 29.6483 7.29687 31.1718 9.28906 31.7577L19.0156 34.8046L41.2812 20.6249C42.3359 20.039 43.2734 20.2733 42.5703 21.0937"/></g><defs><clipPath id="avclip0_349_1661"><rect x="0.5" width="60" height="60" rx="10"/></clipPath></defs></symbol><symbol viewBox="0 0 61 60" id="tiktok" xmlns="http://www.w3.org/2000/svg"><g clip-path="url(#awclip0_350_1694)"><path d="M60.4824 0H0.517578C0.50787 0 0.5 0.00787 0.5 0.0175781V59.9824C0.5 59.9921 0.50787 60 0.517578 60H60.4824C60.4921 60 60.5 59.9921 60.5 59.9824V0.0175781C60.5 0.00787 60.4921 0 60.4824 0Z"/><path fill-rule="evenodd" clip-rule="evenodd" d="M38.1752 55.1996C40.0009 55.1996 41.481 53.7315 41.481 51.9207C41.481 50.1099 40.0009 48.6416 38.1752 48.6416H37.6772C39.5029 48.6416 40.983 50.1099 40.983 51.9207C40.983 53.7315 39.5029 55.1996 37.6772 55.1996H38.1752Z"/><path fill-rule="evenodd" clip-rule="evenodd" d="M37.6321 48.6416H37.1341C35.3084 48.6416 33.8281 50.1099 33.8281 51.9207C33.8281 53.7315 35.3084 55.1996 37.1341 55.1996H37.6321C35.8062 55.1996 34.3261 53.7315 34.3261 51.9207C34.3261 50.1099 35.8062 48.6416 37.6321 48.6416Z"/><path d="M37.6546 53.5148C38.5426 53.5148 39.2624 52.801 39.2624 51.9205C39.2624 51.04 38.5426 50.3262 37.6546 50.3262C36.7667 50.3262 36.0469 51.04 36.0469 51.9205C36.0469 52.801 36.7667 53.5148 37.6546 53.5148Z"/><path fill-rule="evenodd" clip-rule="evenodd" d="M12.5 47.1602V48.8222H14.4469V55.1553H16.3945V48.867H17.9792L18.5226 47.1602H12.5ZM28.4396 47.1602V48.8222H30.3865V55.1553H32.3341V48.867H33.9188L34.4622 47.1602H28.4396ZM18.8852 48.1034C18.8852 47.5826 19.3102 47.1602 19.8354 47.1602C20.361 47.1602 20.7865 47.5826 20.7865 48.1034C20.7865 48.6242 20.3612 49.0466 19.8354 49.0466C19.3102 49.0463 18.8852 48.6242 18.8852 48.1034ZM18.8852 49.7205H20.7865V55.1553H18.8852V49.7205ZM21.6018 47.1602V55.1553H23.5038V53.0894L24.0925 52.5498L25.9489 55.2002H27.9865L25.3146 51.3374L27.7146 49.0014H25.4053L23.5038 50.8878V47.1602H21.6018ZM42.1146 47.1602V55.1553H44.0168V53.0894L44.6053 52.5498L46.4622 55.2002H48.5L45.8281 51.3374L48.2281 49.0014H45.9188L44.0168 50.8878V47.1602H42.1146Z"/><path fill-rule="evenodd" clip-rule="evenodd" d="M39.1801 19.4842C41.8066 21.3608 45.0246 22.465 48.4998 22.465V15.7808C47.842 15.781 47.186 15.7124 46.5426 15.576V20.8376C43.0676 20.8376 39.8502 19.7333 37.2229 17.8568V31.4972C37.2229 38.3208 31.6885 43.8521 24.8617 43.8521C22.3146 43.8521 19.947 43.0824 17.9802 41.7624C20.2249 44.0564 23.3552 45.4796 26.8184 45.4796C33.6457 45.4796 39.1803 39.9483 39.1803 33.1244V19.4842H39.1801ZM41.5945 12.7407C40.2522 11.275 39.3709 9.38068 39.1801 7.28644V6.42676H37.3254C37.7922 9.08836 39.3846 11.3624 41.5945 12.7407ZM22.298 36.5264C21.5481 35.5436 21.1428 34.3411 21.1446 33.1049C21.1446 29.984 23.6761 27.4536 26.7992 27.4536C27.3812 27.4532 27.9597 27.5425 28.5145 27.7184V20.8848C27.8663 20.7961 27.2121 20.7584 26.558 20.7723V26.0912C26.003 25.9153 25.4242 25.826 24.842 25.8264C21.7189 25.8264 19.1876 28.3568 19.1876 31.478C19.1876 33.6848 20.4529 35.5956 22.298 36.5264Z"/><path fill-rule="evenodd" clip-rule="evenodd" d="M37.2229 17.8568C39.8502 19.7333 43.0676 20.8376 46.5426 20.8376V15.576C44.6029 15.1632 42.8857 14.15 41.5945 12.7407C39.3846 11.3624 37.7922 9.08836 37.3254 6.42676H32.4536V33.1241C32.4426 36.2364 29.9154 38.7564 26.799 38.7564C24.9625 38.7564 23.331 37.8816 22.2978 36.5264C20.4527 35.5956 19.1874 33.6848 19.1874 31.478C19.1874 28.3568 21.7187 25.8264 24.8418 25.8264C25.4401 25.8264 26.0168 25.9196 26.5578 26.0912V20.7723C19.851 20.9108 14.457 26.388 14.457 33.1244C14.457 36.487 15.8003 39.5355 17.9802 41.7627C19.947 43.0827 22.3146 43.8524 24.8617 43.8524C31.6885 43.8524 37.2229 38.3208 37.2229 31.4974V17.8568Z"/><path fill-rule="evenodd" clip-rule="evenodd" d="M46.5426 15.5763V14.1536C44.7933 14.1562 43.0786 13.6666 41.5945 12.7407C42.9082 14.1782 44.6381 15.1696 46.5426 15.5763ZM37.3254 6.427C37.2808 6.17267 37.2466 5.91661 37.2229 5.65948V4.7998H30.4962V31.4974C30.4854 34.6095 27.9584 37.1295 24.8418 37.1295C23.9266 37.1295 23.0629 36.9125 22.2978 36.5266C23.331 37.8819 24.9625 38.7567 26.799 38.7567C29.9151 38.7567 32.4426 36.2367 32.4536 33.1244V6.427H37.3254ZM26.558 20.7725V19.2579C25.9959 19.181 25.4292 19.1426 24.8619 19.1429C18.0344 19.1429 12.5 24.6744 12.5 31.4974C12.5 35.7752 14.6751 39.5451 17.9804 41.7627C15.8005 39.5355 14.4572 36.487 14.4572 33.1244C14.4572 26.3883 19.851 20.911 26.558 20.7725Z"/><path fill-rule="evenodd" clip-rule="evenodd" d="M37.6769 55.1996C39.5026 55.1996 40.9829 53.7315 40.9829 51.9207C40.9829 50.1099 39.5026 48.6416 37.6769 48.6416H37.6318C35.8061 48.6416 34.326 50.1099 34.326 51.9207C34.326 53.7315 35.8061 55.1996 37.6318 55.1996H37.6769ZM36.0469 51.9207C36.0469 51.0399 36.7668 50.3264 37.6549 50.3264C38.5421 50.3264 39.2621 51.0399 39.2621 51.9207C39.2621 52.8015 38.5421 53.5155 37.6549 53.5155C36.7668 53.5153 36.0469 52.8015 36.0469 51.9207Z"/></g><defs><clipPath id="awclip0_350_1694"><rect x="0.5" width="60" height="60" rx="10"/></clipPath></defs></symbol><symbol viewBox="0 0 24 24" id="user" xmlns="http://www.w3.org/2000/svg"><path d="M18.5588 19.5488C17.5654 16.8918 15.0036 15 12 15C8.99638 15 6.4346 16.8918 5.44117 19.5488M18.5588 19.5488C20.6672 17.7154 22 15.0134 22 12C22 6.47715 17.5228 2 12 2C6.47715 2 2 6.47715 2 12C2 15.0134 3.33285 17.7154 5.44117 19.5488M18.5588 19.5488C16.8031 21.0756 14.5095 22 12 22C9.49052 22 7.19694 21.0756 5.44117 19.5488M15 9C15 10.6569 13.6569 12 12 12C10.3431 12 9 10.6569 9 9C9 7.34315 10.3431 6 12 6C13.6569 6 15 7.34315 15 9Z" stroke-width="1.5" stroke-linejoin="round"/></symbol><symbol viewBox="0 0 24 24" id="user-star-line" xmlns="http://www.w3.org/2000/svg"><path d="M12 14V16C8.68629 16 6 18.6863 6 22H4C4 17.5817 7.58172 14 12 14ZM12 13C8.685 13 6 10.315 6 7C6 3.685 8.685 1 12 1C15.315 1 18 3.685 18 7C18 10.315 15.315 13 12 13ZM12 11C14.21 11 16 9.21 16 7C16 4.79 14.21 3 12 3C9.79 3 8 4.79 8 7C8 9.21 9.79 11 12 11ZM18 21.5L15.0611 23.0451L15.6224 19.7725L13.2447 17.4549L16.5305 16.9775L18 14L19.4695 16.9775L22.7553 17.4549L20.3776 19.7725L20.9389 23.0451L18 21.5Z"/></symbol><symbol viewBox="0 0 61 60" id="vk" xmlns="http://www.w3.org/2000/svg"><g clip-path="url(#azclip0_349_1649)"><path d="M60.4824 0H0.517578C0.50787 0 0.5 0.00787 0.5 0.0175781V59.9824C0.5 59.9921 0.50787 60 0.517578 60H60.4824C60.4921 60 60.5 59.9921 60.5 59.9824V0.0175781C60.5 0.00787 60.4921 0 60.4824 0Z"/><path d="M32.425 43.226C18.75 43.226 10.9501 33.851 10.6251 18.251H17.4751C17.7001 29.701 22.75 34.551 26.75 35.551V18.251H33.2002V28.126C37.1502 27.701 41.2997 23.201 42.6997 18.251H49.1499C48.0749 24.351 43.5749 28.851 40.3749 30.701C43.5749 32.201 48.7001 36.126 50.6501 43.226H43.5499C42.0249 38.476 38.2252 34.801 33.2002 34.301V43.226H32.425Z"/></g><defs><clipPath id="azclip0_349_1649"><rect x="0.5" width="60" height="60" rx="10"/></clipPath></defs></symbol><symbol id="website" enable-background="new 0 0 497 497" viewBox="0 0 497 497" xmlns="http://www.w3.org/2000/svg"><g><path d="m497 128.5v312c0 11.046-8.954 20-20 20h-457c-11.046 0-20-8.954-20-20v-312z"/><g><path d="m290.498 294.5c0-23.196-18.804-42-42-42-7.031 0-13.659 1.728-19.482 4.782-13.386 7.021-19.327 21.053-19.327 37.218 0 23.196 15.613 36.457 38.809 36.457 16.214 0 30.282-3.645 37.282-17.099 3.014-5.792 4.718-12.376 4.718-19.358z"/><path d="m286.468 312.47c-6.73 14.21-21.2 24.03-37.97 24.03-23.2 0-42-18.8-42-42 0-16.77 9.82-31.24 24.03-37.97-2.59 5.45-4.03 11.54-4.03 17.97 0 23.2 18.8 42 42 42 6.43 0 12.52-1.44 17.97-4.03z"/></g><g><path d="m429.496 294.5c0-23.196-18.804-42-42-42-7.031 0-13.659 1.728-19.482 4.782-13.386 7.021-19.327 21.053-19.327 37.218 0 23.196 15.613 36.457 38.809 36.457 16.214 0 30.282-3.645 37.282-17.099 3.014-5.792 4.718-12.376 4.718-19.358z"/><path d="m425.466 312.47c-6.73 14.21-21.2 24.03-37.97 24.03-23.2 0-42-18.8-42-42 0-16.77 9.82-31.24 24.03-37.97-2.59 5.45-4.03 11.54-4.03 17.97 0 23.2 18.8 42 42 42 6.43 0 12.52-1.44 17.97-4.03z"/></g><path d="m497 148.5v-20l-276.011-12.798-220.989 12.798v20 292c0 11.046 8.954 20 20 20h15c-8.28 0-15-6.72-15-15v-291c0-3.314 2.686-6 6-6z"/><g><path d="m497 56.5v72.5h-497v-72.5c0-11.046 8.954-20 20-20h457c11.046 0 20 8.954 20 20z"/><g><path d="m227.758 108.5c-8.255 0-14.947-6.716-14.947-15s6.692-15 14.947-15h208.315c8.255 0 14.947 6.716 14.947 15s-6.692 15-14.947 15z"/><ellipse cx="160.869" cy="93.5" rx="14.947" ry="15"/><path d="m171.361 104.184 12.874-12.869-13.139 1.179z"/><path d="m150.592 82.608 12.562-12.516-2.693 10.408z"/><ellipse cx="98.034" cy="93.5" rx="14.947" ry="15"/><path d="m108.553 104.157 12.382-12.499-12.674.836z"/><path d="m87.757 82.608 12.371-12.459-2.502 10.351z"/><ellipse cx="32.947" cy="93.5" rx="14.947" ry="15"/><path d="m43.769 103.846 12.721-13.186-13.139 1.381z"/><path d="m22.67 82.608 11.622-12.038-1.753 9.93z"/></g><ellipse cx="173.849" cy="80.5" rx="14.947" ry="15"/><path d="m217.514 82.577 12.971-12.991-3.025 14.276z"/><path d="m446.83 103.915 13.149-13.179-10.185 3.381z"/><ellipse cx="110.946" cy="80.5" rx="14.947" ry="15"/><ellipse cx="45.495" cy="80.5" rx="14.947" ry="15"/><path d="m240.737 95.5c-8.255 0-14.947-6.716-14.947-15s6.692-15 14.947-15h208.315c8.255 0 14.947 6.716 14.947 15s-6.692 15-14.947 15z"/></g><path d="m135.893 215 226.628 2c5.523 0 10-4.477 10-10l3.479-7v-30c0-5.523-4.477-10-10-10h-224l-6.107 5c-5.523 0-10 4.477-10 10v30c0 5.523 4.477 10 10 10z"/><path d="m376 200v10c0 5.523-4.477 10-10 10h-234c-5.523 0-10-4.477-10-10v-40c0-5.523 4.477-10 10-10h10v33c0 3.866 3.134 7 7 7z"/><g><path d="m151.5 294.5c0-23.196-18.804-42-42-42-7.031 0-13.659 1.728-19.482 4.782-13.386 7.021-19.327 21.053-19.327 37.218 0 23.196 15.613 36.457 38.809 36.457 16.214 0 30.282-3.645 37.282-17.099 3.014-5.792 4.718-12.376 4.718-19.358z"/><path d="m147.47 312.47c-6.73 14.21-21.2 24.03-37.97 24.03-23.2 0-42-18.8-42-42 0-16.77 9.82-31.24 24.03-37.97-2.59 5.45-4.03 11.54-4.03 17.97 0 23.2 18.8 42 42 42 6.43 0 12.52-1.44 17.97-4.03z"/></g><g><g><path d="m149.5 374h-70c-4.142 0-7.5-3.358-7.5-7.5s3.358-7.5 7.5-7.5h70c4.142 0 7.5 3.358 7.5 7.5s-3.358 7.5-7.5 7.5z"/></g><g><path d="m149.5 404h-80c-4.142 0-7.5-3.358-7.5-7.5s3.358-7.5 7.5-7.5h80c4.142 0 7.5 3.358 7.5 7.5s-3.358 7.5-7.5 7.5z"/></g><g><path d="m149.5 434h-80c-4.142 0-7.5-3.358-7.5-7.5s3.358-7.5 7.5-7.5h80c4.142 0 7.5 3.358 7.5 7.5s-3.358 7.5-7.5 7.5z"/></g></g><g><g><path d="m288.5 374h-70c-4.142 0-7.5-3.358-7.5-7.5s3.358-7.5 7.5-7.5h70c4.143 0 7.5 3.358 7.5 7.5s-3.357 7.5-7.5 7.5z"/></g><g><path d="m288.5 404h-80c-4.142 0-7.5-3.358-7.5-7.5s3.358-7.5 7.5-7.5h80c4.143 0 7.5 3.358 7.5 7.5s-3.357 7.5-7.5 7.5z"/></g><g><path d="m288.5 434h-80c-4.142 0-7.5-3.358-7.5-7.5s3.358-7.5 7.5-7.5h80c4.143 0 7.5 3.358 7.5 7.5s-3.357 7.5-7.5 7.5z"/></g></g><g><g><path d="m427.5 374h-70c-4.143 0-7.5-3.358-7.5-7.5s3.357-7.5 7.5-7.5h70c4.143 0 7.5 3.358 7.5 7.5s-3.357 7.5-7.5 7.5z"/></g><g><path d="m427.5 404h-80c-4.143 0-7.5-3.358-7.5-7.5s3.357-7.5 7.5-7.5h80c4.143 0 7.5 3.358 7.5 7.5s-3.357 7.5-7.5 7.5z"/></g><g><path d="m427.5 434h-80c-4.143 0-7.5-3.358-7.5-7.5s3.357-7.5 7.5-7.5h80c4.143 0 7.5 3.358 7.5 7.5s-3.357 7.5-7.5 7.5z"/></g></g></g></symbol><symbol viewBox="0 0 61 60" id="whatsapp" xmlns="http://www.w3.org/2000/svg"><g clip-path="url(#bbclip0_349_1675)"><path d="M60.4824 0H0.517578C0.50787 0 0.5 0.00787 0.5 0.0175781V59.9824C0.5 59.9921 0.50787 60 0.517578 60H60.4824C60.4921 60 60.5 59.9921 60.5 59.9824V0.0175781C60.5 0.00787 60.4921 0 60.4824 0Z"/><path fill-rule="evenodd" clip-rule="evenodd" d="M30.6788 15.1733C27.1224 15.0599 23.6468 16.248 20.9041 18.5148C18.1614 20.7816 16.3401 23.9713 15.7819 27.4854C15.2237 30.9996 15.9669 34.5967 17.8722 37.6018L18.2142 38.1412L16.9843 43.8515L22.6067 42.2702L23.1663 42.5783C26.2835 44.2943 29.9196 44.8138 33.3925 44.0395C36.8655 43.2652 39.9365 41.2502 42.0295 38.3727C44.1225 35.4951 45.0936 31.9527 44.7605 28.4101C44.4275 24.8676 42.8132 21.5682 40.2206 19.1312C37.628 16.6941 34.2352 15.2868 30.6788 15.1733ZM18.9165 16.1099C22.2448 13.359 26.4626 11.9172 30.7783 12.0549C35.0941 12.1926 39.2113 13.9004 42.3575 16.8578C45.5037 19.8153 47.4627 23.8191 47.8668 28.1181C48.271 32.4171 47.0926 36.7159 44.5527 40.2079C42.0128 43.6999 38.286 46.1451 34.0715 47.0847C30.0692 47.9771 25.8883 47.4534 22.2378 45.615L12.8438 48.2571L14.8987 38.7164C12.8383 35.1865 12.0572 31.0458 12.7005 26.996C13.3779 22.7315 15.5881 18.8607 18.9165 16.1099Z"/><path d="M36.5937 31.992C36.2422 31.7576 35.8906 31.6404 35.5391 32.1092L34.1328 33.9842C33.7812 34.2186 33.5469 34.3357 33.0781 34.1014C31.3203 33.1639 28.8594 32.1092 26.75 28.5936C26.6328 28.1248 26.8672 27.8904 27.1016 27.6561L28.1562 26.0154C28.3906 25.7811 28.2734 25.5467 28.1562 25.3123L26.75 21.9139C26.3984 20.9764 26.0469 21.0936 25.6953 21.0936H24.7578C24.5234 21.0936 24.0547 21.2107 23.5859 21.6795C21.0078 24.2576 22.0625 27.8904 23.9375 30.2342C24.2891 30.7029 26.6328 34.9217 31.6719 37.1482C35.4219 38.7889 36.2422 38.5545 37.2969 38.3201C38.5859 38.2029 39.875 37.1482 40.4609 36.0936C40.5781 35.742 41.1641 34.2186 40.6953 33.9842"/></g><defs><clipPath id="bbclip0_349_1675"><rect x="0.5" width="60" height="60" rx="10"/></clipPath></defs></symbol><symbol viewBox="0 0 61 60" id="youtube" xmlns="http://www.w3.org/2000/svg"><g clip-path="url(#bcclip0_349_1681)"><path d="M60.4824 0H0.517578C0.50787 0 0.5 0.00787 0.5 0.0175781V59.9824C0.5 59.9921 0.50787 60 0.517578 60H60.4824C60.4921 60 60.5 59.9921 60.5 59.9824V0.0175781C60.5 0.00787 60.4921 0 60.4824 0Z"/><path d="M50.539 19.8043C50.0703 18.0465 48.5468 16.6402 46.789 16.1715C42.8046 15.1168 18.7812 14.9996 14.2109 16.1715C12.4531 16.6402 10.9297 18.0465 10.4609 19.8043C9.40622 24.2574 9.28903 35.6246 10.4609 40.1949C10.9297 41.9527 12.4531 43.359 14.2109 43.8277C18.4297 44.9996 42.4531 44.9996 46.789 43.8277C48.5468 43.359 50.0703 41.9527 50.539 40.1949C51.5937 35.9762 51.5937 24.1402 50.539 19.8043Z"/><path d="M26.2812 23.7891V36.2109L37.1797 30"/></g><defs><clipPath id="bcclip0_349_1681"><rect x="0.5" width="60" height="60" rx="10"/></clipPath></defs></symbol><symbol viewBox="0 0 61 60" id="yzen" xmlns="http://www.w3.org/2000/svg"><g clip-path="url(#bdclip0_349_1688)"><path d="M60.4824 0H0.517578C0.50787 0 0.5 0.00787 0.5 0.0175781V59.9824C0.5 59.9921 0.50787 60 0.517578 60H60.4824C60.4921 60 60.5 59.9921 60.5 59.9824V0.0175781C60.5 0.00787 60.4921 0 60.4824 0Z"/><path d="M60.5 30.3214V29.6786C47.2143 29.25 41.15 28.9286 36.2857 24.2143C31.5714 19.35 31.2286 13.2857 30.8214 0H30.1786C29.75 13.2857 29.4286 19.35 24.7143 24.2143C19.85 28.9286 13.7857 29.2714 0.5 29.6786V30.3214C13.7857 30.75 19.85 31.0714 24.7143 35.7857C29.4286 40.65 29.7714 46.7143 30.1786 60H30.8214C31.25 46.7143 31.5714 40.65 36.2857 35.7857C41.15 31.0714 47.2143 30.7286 60.5 30.3214Z"/></g><defs><clipPath id="bdclip0_349_1688"><rect x="0.5" width="60" height="60" rx="10"/></clipPath></defs></symbol></svg>