<svg width="48" height="48" viewBox="0 0 48 48" fill="none" xmlns="http://www.w3.org/2000/svg">
<path d="M11.461 30.97L23 47.317V48H25V47.317L36.539 30.97C42.905 30.662 48 24.971 48 18C48 10.832 42.617 5 36 5C35.224 5 34.433 5.116 33.64 5.292C31.452 2.09 27.951 0 24 0C20.049 0 16.547 2.089 14.36 5.292C13.568 5.117 12.777 5 12 5C5.383 5 0 10.832 0 18C0 24.971 5.095 30.662 11.461 30.97ZM13.813 30.835C16.92 30.322 19.709 28.506 21.607 25.739C22.062 25.839 22.528 25.902 22.999 25.945V43.849L13.813 30.835ZM25 25.945C25.472 25.903 25.938 25.839 26.392 25.739C28.29 28.505 31.079 30.322 34.186 30.835L25 43.849V25.945ZM34.691 7.101C35.132 7.034 35.569 7 36 7C41.514 7 46 11.935 46 18C46 24.065 41.514 29 36 29C33.036 29 30.259 27.562 28.367 25.098C28.376 25.094 28.385 25.089 28.394 25.085C28.619 24.989 28.838 24.884 29.056 24.773C29.157 24.722 29.257 24.67 29.357 24.616C29.548 24.512 29.738 24.406 29.924 24.292C30.054 24.212 30.179 24.125 30.305 24.041C30.515 23.899 30.723 23.755 30.924 23.6C31.129 23.443 31.332 23.281 31.527 23.111C31.643 23.009 31.754 22.901 31.867 22.794C32.018 22.652 32.167 22.507 32.311 22.357C32.42 22.243 32.527 22.127 32.633 22.009C32.777 21.847 32.915 21.681 33.05 21.512C33.142 21.398 33.235 21.287 33.323 21.169C33.525 20.899 33.718 20.621 33.9 20.334C33.976 20.214 34.044 20.087 34.117 19.964C34.229 19.773 34.34 19.581 34.443 19.383C34.521 19.234 34.594 19.083 34.666 18.931C34.755 18.743 34.84 18.552 34.921 18.359C34.985 18.207 35.049 18.057 35.108 17.902C35.214 17.622 35.31 17.336 35.397 17.047C35.442 16.899 35.482 16.749 35.522 16.599C35.594 16.33 35.66 16.059 35.716 15.784C35.744 15.644 35.768 15.503 35.792 15.361C35.837 15.101 35.873 14.838 35.903 14.573C35.917 14.445 35.933 14.317 35.944 14.188C35.978 13.795 36 13.4 36 13C36 12.511 35.97 12.03 35.921 11.555C35.906 11.413 35.88 11.275 35.862 11.134C35.817 10.798 35.766 10.464 35.697 10.137C35.664 9.977 35.623 9.82 35.584 9.661C35.508 9.353 35.424 9.049 35.328 8.751C35.278 8.594 35.226 8.439 35.17 8.285C35.06 7.979 34.937 7.682 34.807 7.388C34.765 7.293 34.735 7.194 34.691 7.101ZM24 2C27.438 2 30.476 3.919 32.276 6.834L32.306 6.884C32.325 6.916 32.341 6.95 32.36 6.982C32.592 7.372 32.795 7.777 32.979 8.191C33.018 8.278 33.057 8.365 33.094 8.453C33.277 8.893 33.438 9.343 33.566 9.804C33.577 9.843 33.584 9.885 33.594 9.924C33.706 10.343 33.789 10.771 33.854 11.203C33.872 11.321 33.889 11.439 33.903 11.558C33.96 12.034 33.999 12.514 33.999 13C33.999 13.348 33.98 13.692 33.952 14.032C33.942 14.153 33.925 14.271 33.911 14.391C33.886 14.607 33.858 14.822 33.822 15.034C33.798 15.175 33.77 15.315 33.741 15.454C33.702 15.641 33.659 15.825 33.611 16.008C33.574 16.152 33.536 16.297 33.493 16.439C33.44 16.615 33.38 16.788 33.319 16.96C33.271 17.097 33.225 17.236 33.172 17.371C33.089 17.582 32.995 17.787 32.9 17.99C32.816 18.171 32.726 18.349 32.633 18.525C32.54 18.7 32.447 18.876 32.346 19.045C32.27 19.172 32.187 19.293 32.106 19.416C32.013 19.557 31.92 19.698 31.822 19.834C31.732 19.958 31.639 20.079 31.544 20.198C31.445 20.323 31.344 20.445 31.241 20.565C31.138 20.684 31.034 20.802 30.926 20.916C30.825 21.023 30.72 21.124 30.616 21.226C30.495 21.343 30.376 21.462 30.25 21.573C30.171 21.643 30.088 21.706 30.008 21.773C29.427 22.254 28.799 22.674 28.123 23.01C28.121 23.011 28.119 23.012 28.117 23.013C27.873 23.134 27.622 23.244 27.367 23.345C27.355 23.35 27.342 23.355 27.33 23.36C27.073 23.46 26.81 23.549 26.542 23.626C25.729 23.862 24.88 24 24 24C23.12 24 22.271 23.862 21.458 23.626C21.19 23.549 20.928 23.459 20.67 23.36C20.658 23.355 20.645 23.35 20.633 23.345C20.378 23.245 20.127 23.135 19.883 23.013C19.881 23.012 19.879 23.011 19.877 23.01C19.201 22.674 18.573 22.254 17.992 21.773C17.911 21.706 17.828 21.643 17.75 21.573C17.624 21.462 17.505 21.344 17.384 21.226C17.279 21.124 17.175 21.023 17.074 20.916C16.966 20.802 16.862 20.684 16.759 20.565C16.655 20.445 16.554 20.323 16.456 20.198C16.361 20.078 16.268 19.958 16.178 19.834C16.08 19.698 15.986 19.557 15.894 19.416C15.813 19.293 15.73 19.171 15.654 19.045C15.552 18.876 15.46 18.7 15.367 18.525C15.274 18.349 15.184 18.172 15.1 17.99C15.005 17.786 14.912 17.581 14.828 17.371C14.775 17.236 14.729 17.097 14.681 16.96C14.62 16.788 14.56 16.615 14.507 16.439C14.464 16.297 14.427 16.153 14.389 16.008C14.342 15.825 14.298 15.641 14.259 15.454C14.23 15.315 14.202 15.175 14.178 15.034C14.142 14.822 14.113 14.607 14.089 14.391C14.075 14.271 14.058 14.153 14.048 14.032C14.019 13.692 14.001 13.349 14.001 13C14.001 12.514 14.04 12.034 14.097 11.558C14.111 11.439 14.129 11.322 14.146 11.205C14.211 10.773 14.295 10.344 14.406 9.925C14.416 9.886 14.423 9.844 14.434 9.805C14.562 9.344 14.723 8.894 14.906 8.453C14.942 8.365 14.982 8.279 15.021 8.192C15.205 7.778 15.408 7.372 15.641 6.982C15.66 6.95 15.676 6.916 15.695 6.884L15.725 6.834C17.524 3.919 20.562 2 24 2ZM12 7C12.431 7 12.868 7.034 13.309 7.101C13.265 7.194 13.235 7.293 13.193 7.387C13.062 7.681 12.94 7.979 12.83 8.284C12.774 8.439 12.722 8.594 12.672 8.75C12.576 9.049 12.492 9.352 12.416 9.66C12.377 9.818 12.336 9.976 12.303 10.136C12.235 10.464 12.183 10.797 12.138 11.133C12.119 11.274 12.093 11.412 12.079 11.554C12.03 12.03 12 12.511 12 13C12 13.4 12.022 13.795 12.056 14.188C12.067 14.317 12.083 14.445 12.097 14.573C12.127 14.838 12.164 15.1 12.208 15.361C12.232 15.502 12.255 15.644 12.284 15.784C12.34 16.059 12.406 16.33 12.478 16.599C12.518 16.749 12.558 16.899 12.603 17.047C12.691 17.336 12.787 17.622 12.892 17.902C12.95 18.057 13.015 18.207 13.079 18.359C13.16 18.552 13.244 18.743 13.334 18.931C13.406 19.083 13.48 19.234 13.557 19.383C13.66 19.58 13.771 19.773 13.883 19.964C13.956 20.087 14.024 20.214 14.1 20.334C14.282 20.621 14.475 20.899 14.677 21.169C14.765 21.286 14.859 21.398 14.95 21.512C15.086 21.681 15.224 21.848 15.367 22.009C15.472 22.127 15.579 22.243 15.689 22.357C15.833 22.507 15.982 22.652 16.133 22.794C16.246 22.901 16.356 23.009 16.473 23.111C16.668 23.282 16.871 23.443 17.076 23.6C17.277 23.755 17.485 23.9 17.695 24.041C17.822 24.126 17.947 24.212 18.076 24.292C18.261 24.407 18.451 24.512 18.643 24.616C18.743 24.67 18.843 24.722 18.944 24.773C19.162 24.883 19.381 24.989 19.606 25.085C19.615 25.089 19.624 25.094 19.633 25.098C17.741 27.562 14.965 29 12 29C6.486 29 2 24.065 2 18C2 11.935 6.486 7 12 7Z" fill="black"/>
</svg>
