<svg width="61" height="60" viewBox="0 0 61 60" fill="none" xmlns="http://www.w3.org/2000/svg">
<g clip-path="url(#clip0_349_1661)">
<path d="M60.4824 0H0.517578C0.50787 0 0.5 0.00787 0.5 0.0175781V59.9824C0.5 59.9921 0.50787 60 0.517578 60H60.4824C60.4921 60 60.5 59.9921 60.5 59.9824V0.0175781C60.5 0.00787 60.4921 0 60.4824 0Z" fill="#37AEE2"/>
<path d="M23.8203 47.3438C22.5312 47.3438 22.6484 46.875 22.2969 45.7031L18.5469 33.3984L47.2578 16.5234" fill="#C8DAEA"/>
<path d="M23.8203 47.3438C24.6406 47.3438 25.1094 46.875 25.6953 46.4062L30.9688 41.3672L24.4062 37.3828" fill="#A9C9DD"/>
<path d="M24.4062 37.3827L40.2266 48.9843C41.8672 50.039 43.2734 49.453 43.7422 47.3437L50.1875 17.1093C50.7734 14.5312 49.1328 13.3593 47.375 14.1796L9.75781 28.7108C7.29687 29.6483 7.29687 31.1718 9.28906 31.7577L19.0156 34.8046L41.2812 20.6249C42.3359 20.039 43.2734 20.2733 42.5703 21.0937" fill="#F6FBFE"/>
</g>
<defs>
<clipPath id="clip0_349_1661">
<rect x="0.5" width="60" height="60" rx="10" fill="white"/>
</clipPath>
</defs>
</svg>
