<svg width="61" height="60" viewBox="0 0 61 60" fill="none" xmlns="http://www.w3.org/2000/svg">
<g clip-path="url(#clip0_349_1675)">
<path d="M60.4824 0H0.517578C0.50787 0 0.5 0.00787 0.5 0.0175781V59.9824C0.5 59.9921 0.50787 60 0.517578 60H60.4824C60.4921 60 60.5 59.9921 60.5 59.9824V0.0175781C60.5 0.00787 60.4921 0 60.4824 0Z" fill="#25D366"/>
<path fill-rule="evenodd" clip-rule="evenodd" d="M30.6788 15.1733C27.1224 15.0599 23.6468 16.248 20.9041 18.5148C18.1614 20.7816 16.3401 23.9713 15.7819 27.4854C15.2237 30.9996 15.9669 34.5967 17.8722 37.6018L18.2142 38.1412L16.9843 43.8515L22.6067 42.2702L23.1663 42.5783C26.2835 44.2943 29.9196 44.8138 33.3925 44.0395C36.8655 43.2652 39.9365 41.2502 42.0295 38.3727C44.1225 35.4951 45.0936 31.9527 44.7605 28.4101C44.4275 24.8676 42.8132 21.5682 40.2206 19.1312C37.628 16.6941 34.2352 15.2868 30.6788 15.1733ZM18.9165 16.1099C22.2448 13.359 26.4626 11.9172 30.7783 12.0549C35.0941 12.1926 39.2113 13.9004 42.3575 16.8578C45.5037 19.8153 47.4627 23.8191 47.8668 28.1181C48.271 32.4171 47.0926 36.7159 44.5527 40.2079C42.0128 43.6999 38.286 46.1451 34.0715 47.0847C30.0692 47.9771 25.8883 47.4534 22.2378 45.615L12.8438 48.2571L14.8987 38.7164C12.8383 35.1865 12.0572 31.0458 12.7005 26.996C13.3779 22.7315 15.5881 18.8607 18.9165 16.1099Z" fill="white"/>
<path d="M36.5937 31.992C36.2422 31.7576 35.8906 31.6404 35.5391 32.1092L34.1328 33.9842C33.7812 34.2186 33.5469 34.3357 33.0781 34.1014C31.3203 33.1639 28.8594 32.1092 26.75 28.5936C26.6328 28.1248 26.8672 27.8904 27.1016 27.6561L28.1562 26.0154C28.3906 25.7811 28.2734 25.5467 28.1562 25.3123L26.75 21.9139C26.3984 20.9764 26.0469 21.0936 25.6953 21.0936H24.7578C24.5234 21.0936 24.0547 21.2107 23.5859 21.6795C21.0078 24.2576 22.0625 27.8904 23.9375 30.2342C24.2891 30.7029 26.6328 34.9217 31.6719 37.1482C35.4219 38.7889 36.2422 38.5545 37.2969 38.3201C38.5859 38.2029 39.875 37.1482 40.4609 36.0936C40.5781 35.742 41.1641 34.2186 40.6953 33.9842" fill="white"/>
</g>
<defs>
<clipPath id="clip0_349_1675">
<rect x="0.5" width="60" height="60" rx="10" fill="white"/>
</clipPath>
</defs>
</svg>
