<svg width="1218" height="1100" viewBox="0 0 1218 1100" fill="none" xmlns="http://www.w3.org/2000/svg">
<path opacity="0.15" fill-rule="evenodd" clip-rule="evenodd" d="M505.867 -1037.83L418.8 -987.125L333.308 -1040.6L421.883 -1191L505.867 -1037.83ZM415.542 -777.054C406.904 -761.452 397.765 -744.848 388.181 -727.32C317.985 -598.929 224.209 -421.309 129.735 -224.181C35.1472 -26.8149 -59.4648 188.707 -131.819 393.138C-204.823 599.407 -252.344 786.696 -258.165 930L-458 921.38C-450.872 745.882 -394.809 534.667 -319.72 322.508C-243.981 108.511 -145.991 -114.321 -49.5951 -315.458C46.9144 -516.833 142.504 -697.866 213.927 -828.502C249.661 -893.861 279.4 -946.704 300.252 -983.286C310.68 -1001.58 318.888 -1015.81 324.517 -1025.52C327.332 -1030.37 329.502 -1034.1 330.982 -1036.63C331.722 -1037.89 332.29 -1038.86 332.679 -1039.53C332.874 -1039.86 333.024 -1040.11 333.129 -1040.29L333.289 -1040.56C333.3 -1040.58 333.308 -1040.6 418.8 -987.125C505.867 -1037.83 505.875 -1037.81 505.886 -1037.79L506.457 -1036.75C506.822 -1036.08 507.351 -1035.11 508.042 -1033.84C509.422 -1031.3 511.444 -1027.57 514.064 -1022.72C519.305 -1013 526.943 -998.751 536.634 -980.445C556.014 -943.837 583.623 -890.964 616.718 -825.573C682.867 -694.875 771.147 -513.753 859.525 -312.272C947.795 -111.034 1036.8 111.963 1103.91 326.156C1170.46 538.54 1218 750.027 1218 925.69H1017.99C1017.99 782.55 978.135 595.534 913.578 389.49C849.589 185.255 763.798 -30.1023 677.271 -227.368C590.849 -424.389 504.331 -601.92 439.381 -730.25C431.062 -746.686 423.101 -762.309 415.542 -777.054Z" fill="#EEEEEE"/>
<path opacity="0.15" fill-rule="evenodd" clip-rule="evenodd" d="M254.095 951.195L341.158 902L426.646 953.883L338.076 1099.82L254.095 951.195ZM344.416 698.169C353.053 683.03 362.193 666.919 371.776 649.912C441.968 525.334 535.739 352.99 630.208 161.717C724.791 -29.7867 819.398 -238.907 891.748 -437.266C964.749 -637.408 1012.27 -819.134 1018.09 -958.182L1217.91 -949.818C1210.79 -779.532 1154.73 -574.592 1079.64 -368.734C1003.9 -161.093 905.919 55.1201 809.529 250.283C713.024 445.677 617.44 621.333 546.02 748.089C510.289 811.506 480.551 862.779 459.7 898.275C449.273 916.025 441.065 929.836 435.436 939.254C432.622 943.963 430.452 947.575 428.972 950.032C428.232 951.26 427.664 952.2 427.275 952.844C427.08 953.166 426.929 953.415 426.824 953.588L426.665 953.852C426.654 953.87 426.646 953.883 341.158 902C254.095 951.195 254.088 951.181 254.077 951.162L253.505 950.148C253.141 949.501 252.612 948.559 251.921 947.327C250.541 944.865 248.519 941.248 245.899 936.533C240.658 927.104 233.021 913.281 223.331 895.518C203.951 859.997 176.344 808.695 143.25 745.246C77.1051 618.431 -11.1705 442.688 -99.5435 247.191C-187.809 51.9305 -276.813 -164.442 -343.919 -372.273C-410.458 -578.349 -458 -783.555 -458 -954H-258C-258 -815.112 -218.147 -633.651 -153.594 -433.727C-89.608 -235.558 -3.82214 -26.597 82.7013 164.809C169.118 355.978 255.632 528.236 320.578 652.754C328.897 668.702 336.858 683.861 344.416 698.169Z" fill="#EEEEEE"/>
</svg>
