<svg width="36" height="36" viewBox="0 0 36 36" fill="none" xmlns="http://www.w3.org/2000/svg">
<path d="M30.2852 30.2438C33.5185 26.989 35.3332 22.5875 35.3332 17.9998C35.3332 13.412 33.5185 9.01048 30.2852 5.75572V5.71435H30.2439C26.9891 2.4811 22.5876 0.666504 17.9998 0.666504C13.412 0.666504 9.01057 2.4811 5.7558 5.71435H5.71444V5.75572C2.48119 9.01048 0.666504 13.412 0.666504 17.9998C0.666504 22.5875 2.48119 26.989 5.71444 30.2438V30.2852H5.7558C9.01057 33.5185 13.412 35.3331 17.9998 35.3331C22.5876 35.3331 26.9891 33.5185 30.2439 30.2852H30.2852V30.2438ZM27.3318 26.19C27.1735 26.0545 26.9699 25.9837 26.7617 25.9917C26.5535 25.9997 26.356 26.0861 26.2086 26.2335C26.0613 26.3808 25.975 26.5783 25.967 26.7865C25.959 26.9947 26.0298 27.1983 26.1653 27.3565L28.4735 29.6647C25.8117 32.0878 22.3963 33.5194 18.8023 33.7184V30.4093C18.8023 30.1898 18.7151 29.9795 18.56 29.8243C18.4049 29.6691 18.1944 29.5819 17.975 29.5819C17.7556 29.5819 17.5452 29.6691 17.39 29.8243C17.2349 29.9795 17.1477 30.1898 17.1477 30.4093V33.7184C13.5538 33.5194 10.1383 32.0878 7.47659 29.6647L9.78475 27.3565C9.92027 27.1983 9.99108 26.9947 9.98306 26.7865C9.97503 26.5783 9.88874 26.3808 9.7414 26.2335C9.59406 26.0861 9.3965 25.9997 9.18835 25.9917C8.98012 25.9837 8.77652 26.0545 8.61826 26.19L6.31009 28.4982C3.90207 25.8306 2.48532 22.4158 2.29769 18.8271H5.56552C5.78492 18.8271 5.99539 18.7399 6.15051 18.5847C6.30563 18.4296 6.39282 18.2192 6.39282 17.9998C6.39282 17.7804 6.30563 17.57 6.15051 17.4148C5.99539 17.2597 5.78492 17.1725 5.56552 17.1725H2.29769C2.48532 13.5837 3.90207 10.1689 6.31009 7.50132L8.61826 9.80949C8.7733 9.96362 8.98293 10.0501 9.20151 10.0501C9.42008 10.0501 9.62972 9.96362 9.78475 9.80949C9.93888 9.65454 10.0253 9.44482 10.0253 9.22624C10.0253 9.00767 9.93888 8.79803 9.78475 8.643L7.47659 6.33483C10.1441 3.92689 13.559 2.51006 17.1477 2.32243V5.59026C17.1477 5.80966 17.2349 6.02013 17.39 6.17524C17.5452 6.33045 17.7556 6.41756 17.975 6.41756C18.1944 6.41756 18.4049 6.33045 18.56 6.17524C18.7151 6.02013 18.8023 5.80966 18.8023 5.59026V2.32243C22.3911 2.51006 25.8059 3.92689 28.4735 6.33483L26.1653 8.643C26.0112 8.79803 25.9247 9.00767 25.9247 9.22624C25.9247 9.44482 26.0112 9.65454 26.1653 9.80949C26.3203 9.96362 26.53 10.0501 26.7485 10.0501C26.9671 10.0501 27.1767 9.96362 27.3318 9.80949L29.6399 7.50132C32.063 10.1631 33.4947 13.5786 33.6937 17.1725H30.3845C30.1651 17.1725 29.9547 17.2597 29.7995 17.4148C29.6444 17.57 29.5572 17.7804 29.5572 17.9998C29.5572 18.2192 29.6444 18.4296 29.7995 18.5847C29.9547 18.7399 30.1651 18.8271 30.3845 18.8271H33.6937C33.4947 22.421 32.063 25.8365 29.6399 28.4982L27.3318 26.19Z" fill="#CE2127"/>
<path d="M18.8026 17.661V12.2091C18.8026 11.9897 18.7154 11.7793 18.5602 11.6242C18.4051 11.469 18.1947 11.3818 17.9753 11.3818C17.7559 11.3818 17.5454 11.469 17.3903 11.6242C17.2352 11.7793 17.148 11.9897 17.148 12.2091V18.0002C17.1474 18.1091 17.1682 18.2171 17.2093 18.3178C17.2505 18.4186 17.3112 18.5103 17.3879 18.5876L23.179 24.3787C23.2559 24.4562 23.3474 24.5178 23.4482 24.5598C23.549 24.6018 23.6572 24.6234 23.7664 24.6234C23.8756 24.6234 23.9837 24.6018 24.0845 24.5598C24.1854 24.5178 24.2769 24.4562 24.3537 24.3787C24.4313 24.3018 24.4928 24.2103 24.5348 24.1095C24.5769 24.0087 24.5985 23.9005 24.5985 23.7913C24.5985 23.6821 24.5769 23.574 24.5348 23.4732C24.4928 23.3724 24.4313 23.2809 24.3537 23.2039L18.8026 17.661Z" fill="#CE2127"/>
</svg>
