<svg width="40" height="40" viewBox="0 0 40 40" fill="none" xmlns="http://www.w3.org/2000/svg">
<path d="M37.5355 18.1616H36.2427V11.8587C36.2427 9.46367 34.2943 7.51516 31.8992 7.51516H28.1013V6.84859C28.1013 5.83484 27.2765 5.01016 26.2629 5.01016H23.7175V3.71727C23.7175 1.66758 22.0499 0 20.0002 0C17.9505 0 16.2829 1.66758 16.2829 3.71727V5.01008H13.7376C12.7238 5.01008 11.8991 5.83484 11.8991 6.84852V7.51508H8.10123C5.70623 7.51508 3.75771 9.46359 3.75771 11.8586V18.1615H2.4649C1.45115 18.1615 0.626465 18.9862 0.626465 19.9999V27.515C0.626465 28.5287 1.45123 29.3534 2.4649 29.3534H3.75771V35.6564C3.75771 38.0514 5.70615 39.9999 8.10123 39.9999H31.8991C34.2941 39.9999 36.2426 38.0515 36.2426 35.6564V29.3534H37.5354C38.5492 29.3534 39.3739 28.5287 39.3739 27.515V20C39.374 18.9862 38.5492 18.1616 37.5355 18.1616ZM17.4548 3.71727C17.4548 2.31375 18.5967 1.17188 20.0002 1.17188C21.4037 1.17188 22.5456 2.31375 22.5456 3.71727V5.01008H17.4549V3.71727H17.4548ZM13.0711 6.84852C13.0711 6.48094 13.3701 6.18195 13.7376 6.18195H26.2628C26.6304 6.18195 26.9294 6.48102 26.9294 6.84852V7.51508H13.0711V6.84852ZM38.2021 27.5151C38.2021 27.8827 37.903 28.1816 37.5355 28.1816H36.2427V22.5052C36.2427 22.1816 35.9804 21.9193 35.6568 21.9193C35.3332 21.9193 35.0708 22.1816 35.0708 22.5052V35.6564C35.0708 37.4052 33.6481 38.828 31.8992 38.828H8.10123C6.3524 38.828 4.92959 37.4053 4.92959 35.6564V22.5048C4.92959 22.1812 4.66725 21.9188 4.34365 21.9188C4.02006 21.9188 3.75771 22.1812 3.75771 22.5048V28.1817H2.4649C2.09732 28.1817 1.79834 27.8827 1.79834 27.5152V20C1.79834 19.6324 2.0974 19.3334 2.4649 19.3334H3.75771V20.0002C3.75771 20.3238 4.02006 20.5861 4.34365 20.5861C4.66725 20.5861 4.92959 20.3238 4.92959 20.0002V11.8587C4.92959 10.1098 6.35232 8.68703 8.10123 8.68703H31.8991C33.6479 8.68703 35.0708 10.1098 35.0708 11.8587V20C35.0708 20.3236 35.3331 20.5859 35.6567 20.5859C35.9803 20.5859 36.2426 20.3236 36.2426 20V19.3334H37.5354C37.903 19.3334 38.202 19.6325 38.202 20V27.5151H38.2021Z" fill="#CE2127"/>
<path d="M28.1416 29.4346H11.8589C10.8452 29.4346 10.0205 30.2593 10.0205 31.273V32.5255C10.0205 33.5393 10.8453 34.3639 11.8589 34.3639H28.1417C29.1554 34.3639 29.9801 33.5392 29.9801 32.5255V31.273C29.9801 30.2593 29.1554 29.4346 28.1416 29.4346ZM17.4549 30.6064H19.4143V33.1921H17.4549V30.6064ZM16.283 33.1921H14.3236V30.6064H16.283V33.1921ZM20.5862 30.6064H22.5457V33.1921H20.5862V30.6064ZM23.7175 30.6064H25.6769V33.1921H23.7175V30.6064ZM11.1923 32.5256V31.2731C11.1923 30.9055 11.4914 30.6065 11.8589 30.6065H13.1517V33.1922H11.8589C11.4914 33.1921 11.1923 32.8931 11.1923 32.5256ZM28.8082 32.5256C28.8082 32.8932 28.5092 33.1921 28.1417 33.1921H26.8489V30.6064H28.1417C28.5093 30.6064 28.8082 30.9055 28.8082 31.273V32.5256Z" fill="#CE2127"/>
<path d="M10.868 24.4335C10.5893 24.269 10.2301 24.3617 10.0656 24.6404C9.90116 24.9191 9.99382 25.2784 10.2725 25.4428C11.1578 25.9652 12.1397 26.2197 13.1148 26.2197C14.5605 26.2197 15.9912 25.6598 17.068 24.5829C18.8712 22.7799 19.2247 19.9854 17.928 17.7873C17.7636 17.5087 17.4044 17.4159 17.1255 17.5804C16.8469 17.7448 16.7542 18.1041 16.9187 18.3828C17.9438 20.1204 17.6644 22.3293 16.2394 23.7543C15.5335 24.4603 14.6351 24.8846 13.6971 25.0089V16.2446C14.2693 16.3216 14.833 16.5109 15.3543 16.8184C15.6329 16.9828 15.9923 16.8902 16.1567 16.6115C16.3212 16.3328 16.2285 15.9735 15.9498 15.8091C13.7518 14.5123 10.9573 14.8659 9.15429 16.6689C7.35124 18.472 6.99765 21.2665 8.29444 23.4646C8.40374 23.6498 8.59905 23.7528 8.7996 23.7528C8.90077 23.7528 9.00335 23.7267 9.09679 23.6714C9.37546 23.5071 9.46811 23.1478 9.30366 22.869C8.2785 21.1314 8.55788 18.9226 9.98288 17.4975C10.6888 16.7915 11.5872 16.3672 12.5253 16.2429V25.0073C11.953 24.9303 11.3894 24.741 10.868 24.4335Z" fill="#CE2127"/>
<path d="M30.9001 17.5804C30.6215 17.7448 30.5288 18.1041 30.6933 18.3828C31.7184 20.1204 31.439 22.3292 30.014 23.7543C29.3081 24.4603 28.4097 24.8846 27.4716 25.0089V16.2446C28.0438 16.3216 28.6075 16.5108 29.1288 16.8184C29.4075 16.9828 29.7668 16.8902 29.9312 16.6115C30.0957 16.3328 30.003 15.9735 29.7243 15.8091C27.5263 14.5123 24.7318 14.8659 22.9287 16.6689C21.1256 18.4721 20.7721 21.2665 22.0689 23.4646C22.1782 23.6498 22.3735 23.7528 22.5741 23.7528C22.6753 23.7528 22.7778 23.7267 22.8713 23.6714C23.15 23.5071 23.2426 23.1478 23.0782 22.869C22.053 21.1314 22.3324 18.9226 23.7574 17.4975C24.4633 16.7916 25.3617 16.3673 26.2998 16.243V25.0073C25.7276 24.9303 25.1639 24.741 24.6426 24.4335C24.364 24.269 24.0047 24.3616 23.8402 24.6403C23.6758 24.919 23.7684 25.2783 24.0471 25.4428C24.9324 25.9651 25.9143 26.2196 26.8893 26.2196C28.3351 26.2196 29.7658 25.6597 30.8427 24.5829C32.6458 22.7798 32.9993 19.9853 31.7025 17.7873C31.5382 17.5087 31.179 17.416 30.9001 17.5804Z" fill="#CE2127"/>
</svg>
