<svg width="61" height="60" viewBox="0 0 61 60" fill="none" xmlns="http://www.w3.org/2000/svg">
<g clip-path="url(#clip0_349_1681)">
<path d="M60.4824 0H0.517578C0.50787 0 0.5 0.00787 0.5 0.0175781V59.9824C0.5 59.9921 0.50787 60 0.517578 60H60.4824C60.4921 60 60.5 59.9921 60.5 59.9824V0.0175781C60.5 0.00787 60.4921 0 60.4824 0Z" fill="#ED1D24"/>
<path d="M50.539 19.8043C50.0703 18.0465 48.5468 16.6402 46.789 16.1715C42.8046 15.1168 18.7812 14.9996 14.2109 16.1715C12.4531 16.6402 10.9297 18.0465 10.4609 19.8043C9.40622 24.2574 9.28903 35.6246 10.4609 40.1949C10.9297 41.9527 12.4531 43.359 14.2109 43.8277C18.4297 44.9996 42.4531 44.9996 46.789 43.8277C48.5468 43.359 50.0703 41.9527 50.539 40.1949C51.5937 35.9762 51.5937 24.1402 50.539 19.8043Z" fill="white"/>
<path d="M26.2812 23.7891V36.2109L37.1797 30" fill="#ED1D24"/>
</g>
<defs>
<clipPath id="clip0_349_1681">
<rect x="0.5" width="60" height="60" rx="10" fill="white"/>
</clipPath>
</defs>
</svg>
