<?xml version="1.0" encoding="utf-8"?><svg viewBox="0 0 512 512" xmlns="http://www.w3.org/2000/svg" xmlns:xlink="http://www.w3.org/1999/xlink"><style>:root>svg{display:none}:root>svg:target{display:block}</style><svg fill="none" viewBox="0 0 65 64" id="action" xmlns="http://www.w3.org/2000/svg">
    <path d="m36.331 50.789-11.986 5.064a5.745 5.745 0 0 1-1.41-2.3c1.532-1.653 9.791-7.263 12.785-8.627a1 1 0 1 0-.829-1.821c-2.506 1.142-10.993 6.562-13.389 9.1-3.043-1.078-6.3-.605-9.468-.126a30.946 30.946 0 0 1-5.129.5h-.463a2.407 2.407 0 0 0-2.768-.328 1.819 1.819 0 0 0-.844 1.908c-.127 1.908-.307 6.118.464 7.333a1.042 1.042 0 0 0 .864.475h.023c.638-.016.88-.44 1.41-1.369 1.525-2.68 2.17-3.106 2.4-3.123.054.012.11.02.166.023 12.57.661 12.744.666 12.79.666a18.225 18.225 0 0 0 3.618-.248c.028-.007.048-.026.075-.035a.722.722 0 0 0 .08-.015l12.391-5.235a1 1 0 1 0-.778-1.842h-.002Zm-28 4.716c-1.452-.254-2.663 1.154-3.605 2.624a48.32 48.32 0 0 1 .1-3.973.942.942 0 0 0-.007-.2c.152.03.291.106.4.216a2.05 2.05 0 0 0 1.516.405h.124a32.435 32.435 0 0 0 5.467-.521c3.123-.474 6.078-.9 8.7.1.246.696.568 1.362.961 1.987-.358.01-.71.016-1.02.019-.255-.007-8.334-.431-12.635-.657Z" fill="#fff"/>
    <path d="M62.25 41.651c-.826-1.486-2.13-1.348-3.1-1.251l-5.622.579c-1.3.134-2.7.4-4.05.662-.716.138-1.44.272-2.153.391a10.638 10.638 0 0 0-.172-8.594c-1.259-2.553-3.217-4.184-5.36-4.522l-.014-.212a10.115 10.115 0 0 0 .818-6.883c0-.015.012-.029.016-.045a3 3 0 0 0-2.117-3.676 2.918 2.918 0 0 0-.5-.082 9.05 9.05 0 0 0-1.014-.395 48.966 48.966 0 0 1 10.3-5.223 1 1 0 0 0 .543-1.443L44.98 2.5a1 1 0 0 0-1.236-.433 82.5 82.5 0 0 0-11.708 6.3.999.999 0 0 0-.26 1.45l5.666 7.44a8.262 8.262 0 0 0-4.414.559 3 3 0 0 0-1.754.288c-2.333 1.167-3.964 4.524-3.757 7.384a3.742 3.742 0 0 0-2.446 2.532c-.5 1.9.427 3.69 1.326 5.419.8 1.534 1.55 2.982 1.335 4.412a1 1 0 0 0 1.102 1.142 4.672 4.672 0 0 0 3.918-2.893 7.014 7.014 0 0 0-.166-5.166c.896.447 1.852.76 2.84.931-.066.113-.139.217-.2.335a4.772 4.772 0 0 0-.3 3.431c.393 1.09.946 2.115 1.642 3.042.473.654.883 1.352 1.224 2.083l1.627 12.65.302 4.494a1 1 0 0 0 .59.848c3.817 1.7 5.542 2.171 6.407 2.171a1.084 1.084 0 0 0 .947-.4 1.192 1.192 0 0 0 .132-1.416 11.154 11.154 0 0 0-3.124-3.749 1.725 1.725 0 0 1-.748-1.443l-.02-1.893h.056c.164-.008.323-.016.465-.019a6.23 6.23 0 0 0 .986-.136c-.128.136-.245.264-.34.376l-.27.318a1 1 0 1 0 1.52 1.3l.274-.32a38.612 38.612 0 0 1 2.862-2.76c2.213-.68 4.777-1.565 7.028-2.445-.48.317-.964.626-1.445.921-2.419 1.486-4.81 3.1-7.125 4.665l-1.31.884a1 1 0 0 0 .56 1.829.988.988 0 0 0 .555-.174l1.312-.885c2.3-1.551 4.67-3.154 7.053-4.618a24.361 24.361 0 0 0 4.524-3.343 4.64 4.64 0 0 0 1.727-2.46 3.79 3.79 0 0 0-.087-3.5ZM43.68 4.261l3.817 6.659a52.202 52.202 0 0 0-8.884 4.58L34.03 9.479a82.967 82.967 0 0 1 9.651-5.218ZM38.793 25l2.051-1.184a6.878 6.878 0 0 1-.892 4.033 1 1 0 0 0-.186.649l.03.449c-.159.025-.31.061-.464.095.075-1.37-.108-2.74-.539-4.042Zm1.793-4.5a1 1 0 0 1-.366 1.365l-3.465 2a1 1 0 0 1-.999-1.731l3.464-2a.993.993 0 0 1 .76-.1 1 1 0 0 1 .606.466Zm-3.755-1.3-.815.471c-.15-.173-.3-.324-.456-.473.423-.04.848-.04 1.271.002Zm-4.664.692c.726-.362 1.525.222 2.118.845a3.01 3.01 0 0 0-1.007 2.593l-3.743 1.138c.185-1.857 1.26-3.887 2.632-4.568v-.008Zm-1.264 15.446a2.612 2.612 0 0 1-1.177 1.327 12.424 12.424 0 0 0-1.555-4.146c-.758-1.457-1.472-2.832-1.175-3.962a1.7 1.7 0 0 1 1.612-1.238h.032c.155-.001.309-.035.45-.1a1 1 0 0 0-.151 1.401c2.302 2.88 2.524 5.359 1.964 6.718Zm-.576-8.133a1 1 0 0 0-1.036-.108 1 1 0 0 0 .345-.566l4.545-1.381a2.92 2.92 0 0 0 2.8.756c.617 2.209.42 3.627.073 3.836-1.234.75-4.388-.749-6.727-2.537Zm6.531 7.895a2.779 2.779 0 0 1 .155-2 4.087 4.087 0 0 1 3.867-2.25c2.573-.086 4.074 2.643 4.483 3.472a8.732 8.732 0 0 1-.035 7.352 49.32 49.32 0 0 1-1.5 3.158l-.108-10.32a2.353 2.353 0 0 0-.749-1.747 3.6 3.6 0 0 0-2.637-.772c-2.055.139-3.32 1.193-3.3 2.751 0 .039.003.078.008.116l.123.957a4.098 4.098 0 0 1-.307-.717Zm8.168 23.384c-.967-.334-2.2-.823-3.35-1.32l-.262-3.947-2.382-18.537c.047-.569 1.2-.675 1.435-.691.398-.06.805.027 1.145.243a.364.364 0 0 1 .108.3l.2 19.4a3.722 3.722 0 0 0 1.65 3.092c.56.404 1.052.896 1.456 1.457v.003ZM44.386 50c-.155 0-.327.011-.5.021l-.014-1.374a30.17 30.17 0 0 0 2.514-4.459 57.158 57.158 0 0 0 3.477-.581c1.31-.251 2.661-.51 3.877-.635l5.634-.581c.947-.1.97-.055 1.13.233a1.835 1.835 0 0 1 .1 1.527.907.907 0 0 0-.1.14c-.99.85-7.335 3.256-11.85 4.659a.703.703 0 0 0-.078.024c-1.36.478-2.763.822-4.19 1.026Z" fill="#fff"/>
    <path d="M44.85 18.944a1 1 0 0 0-.219 1.316l5.832 9.211a1 1 0 0 0 1.47.245c8.435-6.752 12.417-13.437 10.124-17.059L56.32 4.251a3.428 3.428 0 0 0-.577-.671 14.007 14.007 0 0 0-4.123-1.55 2.007 2.007 0 0 0-2.037 3.037l2.3 3.485a1 1 0 0 0 1.668-1.1L51.273 4c1.08.247 2.132.606 3.138 1.07.074.065.14.138.2.216l.01.014.051.076c.152.238.223.519.2.8-.302 3.153-4.14 8.047-10.022 12.768Zm11.638-10.9 3.9 5.714c1.335 2.108-1.3 7.432-8.837 13.692l-4.754-7.509c5.097-4.218 8.57-8.501 9.691-11.899v.002ZM26.732 2h-.012a1 1 0 0 0-1 .988l-.012 1A.999.999 0 0 0 26.698 5h.01a1 1 0 0 0 1-.988l.012-1A1 1 0 0 0 26.732 2ZM25.72 6.023a1 1 0 0 0-.988-1.011l-1-.012h-.012a1 1 0 0 0-.012 2l1 .012h.012a1 1 0 0 0 1-.989ZM28.708 6.988l1 .012h.012a1 1 0 1 0 .012-2l-1-.012h-.012a1 1 0 0 0-.012 2ZM26.697 10h.011a1 1 0 0 0 1-.988l.012-1A1 1 0 0 0 26.732 7h-.012a1 1 0 0 0-1 .988l-.012 1a.999.999 0 0 0 .99 1.012ZM20.732 14.012h-.012a1 1 0 0 0-1 .988l-.012 1a1 1 0 0 0 .99 1.012h.01a1 1 0 0 0 1-.989l.012-1a1 1 0 0 0-.988-1.011ZM18.732 17.023l-1-.011A.984.984 0 0 0 16.72 18a1 1 0 0 0 .988 1.012l1 .011h.012a1 1 0 1 0 .012-2ZM22.708 19l1 .012h.012a.998.998 0 0 0 .932-1.377 1.001 1.001 0 0 0-.92-.623l-1-.012a.967.967 0 0 0-1.012.988A1 1 0 0 0 22.708 19ZM20.697 22.012h.011a1 1 0 0 0 1-.989l.012-1a1 1 0 0 0-.988-1.011.961.961 0 0 0-1.012.988l-.012 1a.999.999 0 0 0 .99 1.012Z" fill="#fff"/>
    <path d="M55.058 21.841a1 1 0 0 0 1.807-.198l1.775-5.327A1 1 0 0 0 57.692 15H52.72a1 1 0 0 0-.857 1.515l3.195 5.326ZM56.304 17l-.649 1.947L54.486 17h1.818Z" fill="#fff"/>
</svg><svg fill="none" viewBox="0 0 18 10" id="arrow-half" xmlns="http://www.w3.org/2000/svg">
    <path d="m.493.75 8.5 8.5 8.5-8.5" stroke="#000"/>
</svg><svg fill="none" viewBox="0 0 77 67" id="arrow-round" xmlns="http://www.w3.org/2000/svg">
    <path d="M60.118.764a2.5 2.5 0 1 0-2.236 4.472L60.118.764ZM1.232 46.232a2.5 2.5 0 0 0 0 3.536l15.91 15.91a2.5 2.5 0 0 0 3.536-3.536L6.536 48l14.142-14.142a2.5 2.5 0 0 0-3.536-3.536l-15.91 15.91Zm56.65-40.996c9.836 4.918 13.057 9.636 13.214 13.339.16 3.759-2.754 8.066-9.224 12.339C49.152 39.314 25.677 45.5 3 45.5v5c23.323 0 47.849-6.315 61.628-15.414 6.78-4.477 11.742-10.17 11.463-16.723-.28-6.61-5.808-12.517-15.973-17.6l-2.236 4.473Z" fill="#CE2127"/>
</svg><svg fill="none" viewBox="0 0 50 50" id="baloons" xmlns="http://www.w3.org/2000/svg">
    <path d="M12.461 31.97 24 48.317V49h2v-.683L37.539 31.97C43.905 31.662 49 25.971 49 19c0-7.168-5.383-13-12-13-.776 0-1.567.116-2.36.292C32.452 3.09 28.951 1 25 1c-3.951 0-7.453 2.089-9.64 5.292C14.568 6.117 13.777 6 13 6 6.383 6 1 11.832 1 19c0 6.971 5.095 12.662 11.461 12.97Zm2.352-.135c3.107-.513 5.896-2.329 7.794-5.096.455.1.921.163 1.392.206v17.904l-9.186-13.014ZM26 26.945a11.01 11.01 0 0 0 1.392-.206c1.898 2.766 4.687 4.583 7.794 5.096L26 44.849V26.945Zm9.691-18.844A8.713 8.713 0 0 1 37 8c5.514 0 10 4.935 10 11s-4.486 11-10 11c-2.964 0-5.741-1.438-7.633-3.902l.027-.013c.225-.096.444-.201.662-.312a12.304 12.304 0 0 0 .868-.481c.13-.08.255-.167.381-.251a12.182 12.182 0 0 0 1.222-.93c.116-.102.227-.21.34-.317a12.193 12.193 0 0 0 .766-.785c.144-.162.282-.328.417-.497.092-.114.185-.225.273-.343.202-.27.395-.548.577-.835.076-.12.144-.247.217-.37.112-.191.223-.383.326-.581a13.995 13.995 0 0 0 .478-1.024c.064-.152.128-.302.187-.457.106-.28.202-.566.289-.855.045-.148.085-.298.125-.448.072-.269.138-.54.194-.815.028-.14.052-.281.076-.423.045-.26.081-.523.111-.788.014-.128.03-.256.041-.385.034-.393.056-.788.056-1.188 0-.489-.03-.97-.079-1.445-.015-.142-.041-.28-.059-.421-.045-.336-.096-.67-.165-.997-.033-.16-.074-.317-.113-.476a13.568 13.568 0 0 0-.414-1.376 13.55 13.55 0 0 0-.363-.897c-.042-.095-.072-.194-.116-.287ZM25 3c3.438 0 6.476 1.919 8.276 4.834l.03.05c.019.032.035.066.054.098.232.39.435.795.619 1.209a11.611 11.611 0 0 1 .587 1.613c.011.039.018.081.028.12.112.419.195.847.26 1.279A12.11 12.11 0 0 1 34.999 14c0 .348-.019.692-.047 1.032-.01.121-.027.239-.041.359-.025.216-.053.431-.089.643a11.533 11.533 0 0 1-.211.974c-.037.144-.075.289-.118.431a11.36 11.36 0 0 1-.174.521c-.048.137-.094.276-.147.411a10.73 10.73 0 0 1-.272.619c-.084.181-.174.359-.267.535-.093.175-.186.351-.287.52-.076.127-.159.248-.24.371-.093.141-.186.282-.284.418a12.047 12.047 0 0 1-.896 1.082c-.101.107-.206.208-.31.31-.121.117-.24.236-.366.347-.079.07-.162.133-.242.2a9.807 9.807 0 0 1-1.885 1.237l-.006.003a9.865 9.865 0 0 1-.75.332l-.037.015c-.257.1-.52.189-.788.266A9.092 9.092 0 0 1 25 25c-.88 0-1.729-.138-2.542-.374a9.594 9.594 0 0 1-.788-.266l-.037-.015c-.255-.1-.506-.21-.75-.332l-.006-.003a9.807 9.807 0 0 1-1.885-1.237c-.081-.067-.164-.13-.242-.2-.126-.111-.245-.229-.366-.347-.105-.102-.209-.203-.31-.31a10.502 10.502 0 0 1-.618-.718c-.095-.12-.188-.24-.278-.364a10.953 10.953 0 0 1-.284-.418c-.081-.123-.164-.245-.24-.371-.102-.169-.194-.345-.287-.52a12.208 12.208 0 0 1-.539-1.154c-.053-.135-.099-.274-.147-.411a11.36 11.36 0 0 1-.174-.521c-.043-.142-.08-.286-.118-.431a12.405 12.405 0 0 1-.211-.974 11.297 11.297 0 0 1-.089-.643c-.014-.12-.031-.238-.041-.359-.029-.34-.047-.683-.047-1.032 0-.486.039-.966.096-1.442.014-.119.032-.236.049-.353.065-.432.149-.861.26-1.28.01-.039.017-.081.028-.12.128-.461.289-.911.472-1.352.036-.088.076-.174.115-.261.184-.414.387-.82.62-1.21.019-.032.035-.066.054-.098l.03-.05C18.524 4.919 21.562 3 25 3ZM13 8c.431 0 .868.034 1.309.101-.044.093-.074.192-.116.286a13.234 13.234 0 0 0-.777 2.273c-.039.158-.08.316-.113.476-.068.328-.12.661-.165.997-.019.141-.045.279-.059.421C13.03 13.03 13 13.511 13 14c0 .4.022.795.056 1.188.011.129.027.257.041.385.03.265.067.527.111.788.024.141.047.283.076.423.056.275.122.546.194.815.04.15.08.3.125.448.088.289.184.575.289.855.058.155.123.305.187.457a14.572 14.572 0 0 0 .478 1.024c.103.197.214.39.326.581.073.123.141.25.217.37.182.287.375.565.577.835.088.117.182.229.273.343a11.733 11.733 0 0 0 1.183 1.282c.113.107.223.215.34.317.195.171.398.332.603.489.201.155.409.3.619.441.127.085.252.171.381.251a10.918 10.918 0 0 0 .868.481c.218.11.437.216.662.312l.027.013C18.741 28.562 15.965 30 13 30 7.486 30 3 25.065 3 19S7.486 8 13 8Z" fill="#000"/>
</svg><svg fill="none" viewBox="0 0 50 32" id="bike" xmlns="http://www.w3.org/2000/svg">
    <path d="M50 22.5a8.334 8.334 0 0 0-10.797-7.96l-.862-2.04h2.492a.833.833 0 0 0 .59-.243 3.193 3.193 0 0 0 0-4.512.833.833 0 0 0-.59-.244h-4.166a.808.808 0 0 0-.394.112L33.268.51A.834.834 0 0 0 32.5.001h-5.833v1.667h5.28l1.277 3.016a5.047 5.047 0 0 0-2.473-.28c-1.985.3-3.94.774-5.842 1.417-.451.14-.927.286-1.426.437l-4.43 1.243H7.536c-.726 0-1.446.138-2.12.407l-.96.385a1.84 1.84 0 0 0 0 3.416l.96.384c.674.27 1.394.409 2.12.408h6.923l1.065 2.397-1.599 1.442A8.323 8.323 0 1 0 4.725 30H0v1.668h50V30h-4.725A8.333 8.333 0 0 0 50 22.5ZM37.5 9.169h2.943a1.53 1.53 0 0 1 0 1.666h-2.807l-.136-.32V9.167Zm-1.674 1.666h-.145l.093-.122.052.122Zm-11.88-2.973c.52-.157 1-.305 1.456-.447a32.299 32.299 0 0 1 5.583-1.359 3.416 3.416 0 0 1 2.372.538 3.221 3.221 0 0 1 1.261 1.652 1.736 1.736 0 0 1-.2 1.5 2.439 2.439 0 0 1-2.033 1.09H20V8.966l3.947-1.106Zm-17.91 2.684-.96-.384a.172.172 0 0 1 0-.32l.96-.384c.476-.192.985-.29 1.5-.29h10.798v1.667H7.536a4.007 4.007 0 0 1-1.5-.289Zm13.13 1.956h17.365l.062.144.29.69h-2.716a.832.832 0 0 0-.791.57l-3.977 11.93h-7.19L16.282 12.5h2.884Zm-6.926 8.598a4.104 4.104 0 0 0-.333-.7l1.89-1.703c.432.621.756 1.311.956 2.042l-2.513.361ZM7.58 22.854a.833.833 0 0 0 .873.472l2.333-.334a2.5 2.5 0 1 1-2.451-2.991c.414.003.82.11 1.183.312l-1.741 1.569a.833.833 0 0 0-.197.972Zm7.463-5.276 1.194-1.077 1.68 3.783-1.5.216a8.29 8.29 0 0 0-1.374-2.922ZM1.667 22.5a6.658 6.658 0 0 1 11.016-5.042l-1.886 1.7a4.125 4.125 0 0 0-2.463-.825 4.167 4.167 0 1 0 4.141 4.417l2.52-.361c0 .038.005.075.005.113a6.667 6.667 0 1 1-13.333-.002ZM11.942 30a8.334 8.334 0 0 0 4.725-7.5c0-.119-.013-.234-.018-.351l1.973-.283 2.283 5.139a.834.834 0 0 0 .762.495H30a.833.833 0 0 0 .79-.57L34.769 15h2.821l.084.19a8.321 8.321 0 0 0 .385 14.81H11.942Zm29.725-.834a6.661 6.661 0 0 1-3.342-12.426l.985 2.333a4.162 4.162 0 1 0 1.534-.652l-.985-2.328a6.666 6.666 0 1 1 1.808 13.073Zm-.768-6.341 1.535-.65-.916-2.16c.049 0 .096-.015.146-.015a2.522 2.522 0 1 1-1.681.667l.916 2.158Z" fill="#CE2127"/>
</svg><svg fill="none" viewBox="0 0 50 50" id="cart-present" xmlns="http://www.w3.org/2000/svg">
    <path d="m41.303 33.184 8.62-20.195a.865.865 0 0 0-.782-1.203.862.862 0 0 0-.804.522l-8.396 19.67H13.713L8.62 9.015a.862.862 0 0 0-.862-.672H.862a.862.862 0 0 0 0 1.723h6.206l6.62 29.737a.862.862 0 0 0 .861.672H40.51a.862.862 0 0 0 0-1.724H15.222l-1.13-5.05H40.51a.862.862 0 0 0 .793-.518ZM19.143 42.174a3.914 3.914 0 1 0 3.615 2.408 3.903 3.903 0 0 0-3.615-2.408Zm0 6.094a2.19 2.19 0 1 1 0-4.38 2.19 2.19 0 0 1 0 4.38ZM34.908 42.174a3.912 3.912 0 1 0 3.878 3.904 3.904 3.904 0 0 0-3.878-3.904Zm0 6.094a2.19 2.19 0 1 1-.069-4.38 2.19 2.19 0 0 1 .069 4.38Z" fill="#CE2127"/>
    <path d="M15.61 13.118v12.274a2.655 2.655 0 0 0 2.646 2.655h18.54a2.655 2.655 0 0 0 2.645-2.655V13.118a2.646 2.646 0 0 0 1.931-2.534v-1.18a2.655 2.655 0 0 0-2.646-2.655h-4.18a3.68 3.68 0 0 0 .595-2V3.724A3.732 3.732 0 0 0 31.417 0h-1.026a3.723 3.723 0 0 0-2.87 1.37A3.689 3.689 0 0 0 24.66 0h-1.026a3.732 3.732 0 0 0-3.724 3.723V4.75a3.68 3.68 0 0 0 .595 2h-4.18a2.655 2.655 0 0 0-2.646 2.655v1.18a2.646 2.646 0 0 0 1.93 2.534Zm1.723 12.274V13.23h6.232v13.093h-5.31a.92.92 0 0 1-.922-.93Zm7.956.931V13.23h4.473v13.093H25.29Zm0-17.85h4.473v3.034H25.29V8.473Zm12.429 16.92a.924.924 0 0 1-.923.93h-5.309V13.23h6.232v12.162Zm1.93-15.99v1.181a.922.922 0 0 1-.922.923h-7.24V8.473h7.24a.922.922 0 0 1 .922.93Zm-9.257-7.68h1.026a2 2 0 0 1 2 2V4.75a2 2 0 0 1-2 2h-3.025V3.724a2 2 0 0 1 2-2ZM21.634 4.75V3.724a2.001 2.001 0 0 1 2-2h1.026a2.008 2.008 0 0 1 2.008 2v3.025h-3.034a2 2 0 0 1-2-2Zm-6.231 4.655a.92.92 0 0 1 .922-.931h7.24v3.034h-7.24a.922.922 0 0 1-.922-.923v-1.18Z" fill="#CE2127"/>
</svg><svg fill="none" viewBox="0 0 50 50" id="cheers" xmlns="http://www.w3.org/2000/svg">
    <path fill-rule="evenodd" clip-rule="evenodd" d="m22.61 9.576-1.526.658a16.686 16.686 0 0 0-4.747-6.332 16.292 16.292 0 0 0-3.953-2.372L13.03 0c1.57.66 3.036 1.54 4.356 2.614a18.331 18.331 0 0 1 5.224 6.962Zm6.648.658a16.663 16.663 0 0 1 4.747-6.331 16.242 16.242 0 0 1 3.952-2.372l-.646-1.53a17.878 17.878 0 0 0-4.356 2.614 18.334 18.334 0 0 0-5.224 6.963l1.527.656Zm5.654-1.42a17.952 17.952 0 0 1 5.56-3.973 18.219 18.219 0 0 1 8.74-1.586l.108-1.662a19.905 19.905 0 0 0-9.54 1.736 19.633 19.633 0 0 0-6.071 4.338l1.203 1.146ZM23.177 13.16a.803.803 0 0 1-.092.355L6.866 45.214l-.623 2.318 3.215.864L9.026 50 1 47.848l.432-1.604 3.207.864.623-2.326L7.065 9.23a.862.862 0 0 1 .341-.632.83.83 0 0 1 .706-.133l14.45 3.872a.819.819 0 0 1 .54.465.802.802 0 0 1 .075.36Zm-2.036.513-12.464-3.34-.606 11.898a6.11 6.11 0 0 1 1.23-.008 3.342 3.342 0 0 0 1.944-.3 3.298 3.298 0 0 0 1.504-1.254 4.99 4.99 0 0 1 2.16-1.77 4.91 4.91 0 0 1 2.75-.44c.342.043.689.04 1.03-.009l2.452-4.777ZM9.168 23.877a4.055 4.055 0 0 0-1.18.042l-.873 17.166 10.719-20.947-.023-.002c-.1-.007-.192-.014-.285-.014-.66-.102-1.335 0-1.936.29-.62.26-1.146.7-1.512 1.263a4.951 4.951 0 0 1-2.152 1.762 4.853 4.853 0 0 1-2.758.44ZM45.7 47.11l3.208-.865.432 1.604L41.314 50l-.432-1.604 3.216-.864-.623-2.318-16.22-31.698a.832.832 0 0 1-.016-.715.817.817 0 0 1 .54-.465l14.45-3.872a.832.832 0 0 1 .706.133.862.862 0 0 1 .34.632l1.803 35.553.623 2.327ZM29.208 13.673l2.443 4.777c.342.049.688.052 1.03.009a4.91 4.91 0 0 1 2.75.44 4.99 4.99 0 0 1 2.161 1.77c.363.56.887.998 1.504 1.254.603.293 1.28.397 1.944.3a6.11 6.11 0 0 1 1.23.008l-.607-11.898-12.455 3.34Zm3.322 6.462-.023.002 10.718 20.947-.872-17.166a4.105 4.105 0 0 0-1.188-.042 4.835 4.835 0 0 1-2.75-.44 4.95 4.95 0 0 1-2.152-1.762 3.34 3.34 0 0 0-1.513-1.263 3.294 3.294 0 0 0-1.936-.29c-.092 0-.185.007-.284.014ZM15.43 8.813a17.952 17.952 0 0 0-5.56-3.971 18.24 18.24 0 0 0-8.74-1.587L1.02 1.593c3.275-.217 6.552.38 9.54 1.736a19.623 19.623 0 0 1 6.072 4.338L15.43 8.813Z" fill="#CE2127"/>
</svg><svg fill="none" viewBox="0 0 36 36" id="clock" xmlns="http://www.w3.org/2000/svg">
    <path d="M30.285 30.244a17.373 17.373 0 0 0 0-24.488v-.042h-.041a17.373 17.373 0 0 0-24.488 0h-.042v.042a17.373 17.373 0 0 0 0 24.488v.041h.042a17.373 17.373 0 0 0 24.488 0h.041v-.041Zm-2.953-4.054a.828.828 0 0 0-1.167 1.166l2.309 2.309a15.652 15.652 0 0 1-9.672 4.053V30.41a.827.827 0 0 0-1.654 0v3.31a15.652 15.652 0 0 1-9.671-4.054l2.308-2.308a.827.827 0 0 0-1.167-1.167L6.31 28.498a15.653 15.653 0 0 1-4.012-9.67h3.268a.827.827 0 0 0 0-1.655H2.298A15.653 15.653 0 0 1 6.31 7.5L8.618 9.81a.827.827 0 0 0 1.167 0 .827.827 0 0 0 0-1.166L7.477 6.335a15.653 15.653 0 0 1 9.67-4.013V5.59a.827.827 0 0 0 1.655 0V2.322a15.653 15.653 0 0 1 9.672 4.013l-2.309 2.308a.827.827 0 0 0 0 1.166.827.827 0 0 0 1.167 0l2.308-2.308a15.652 15.652 0 0 1 4.054 9.671h-3.31a.828.828 0 0 0 0 1.655h3.31a15.652 15.652 0 0 1-4.054 9.671l-2.308-2.308Z" fill="#CE2127"/>
    <path d="M18.803 17.661v-5.452a.827.827 0 0 0-1.655 0V18a.829.829 0 0 0 .24.588l5.791 5.79a.828.828 0 0 0 1.356-.268.826.826 0 0 0-.181-.906l-5.551-5.543Z" fill="#CE2127"/>
</svg><svg fill="none" viewBox="0 0 210 196" id="crowd" xmlns="http://www.w3.org/2000/svg">
    <path d="M95.82 43.555c12.008 0 21.778-9.77 21.778-21.778S107.828 0 95.82 0 74.043 9.77 74.043 21.777c0 12.008 9.77 21.778 21.777 21.778Zm0-34.844c7.205 0 13.067 5.861 13.067 13.066 0 7.205-5.862 13.067-13.067 13.067-7.204 0-13.066-5.862-13.066-13.067S88.615 8.711 95.82 8.711ZM56.621 56.621c9.607 0 17.422-7.815 17.422-17.422 0-9.606-7.816-17.422-17.422-17.422-9.606 0-17.422 7.816-17.422 17.422 0 9.607 7.816 17.422 17.422 17.422Zm0-26.133c4.803 0 8.711 3.908 8.711 8.711 0 4.803-3.908 8.711-8.71 8.711-4.804 0-8.712-3.908-8.712-8.71 0-4.804 3.908-8.712 8.711-8.712ZM21.342 74.043c9.366 0 16.986-7.62 16.986-16.986 0-9.367-7.62-16.987-16.986-16.987-9.367 0-16.987 7.62-16.987 16.987 0 9.366 7.62 16.986 16.987 16.986Zm0-25.262c4.563 0 8.275 3.712 8.275 8.276 0 4.563-3.712 8.275-8.275 8.275-4.563 0-8.276-3.712-8.276-8.275 0-4.564 3.713-8.276 8.276-8.276Z" fill="#CE2127"/>
    <path d="M204.707 56.621h-8.711V43.555a4.355 4.355 0 0 0-4.355-4.356h-30.489v-8.71a4.355 4.355 0 1 0-8.711 0v21.777H74.043c-8.103 0-14.931 5.56-16.87 13.066H47.91c-9.606 0-17.422 7.816-17.422 17.422h-8.71c-9.607 0-17.423 7.815-17.423 17.422v52.265c0 8.103 5.561 14.932 13.067 16.871v17.973H4.355a4.356 4.356 0 0 0 0 8.711h200.352a4.355 4.355 0 0 0 0-8.711h-43.555V74.043h8.711v13.066a4.356 4.356 0 0 0 4.356 4.356h30.488a4.355 4.355 0 0 0 4.355-4.356V60.977a4.355 4.355 0 0 0-4.355-4.356ZM26.133 113.242a4.355 4.355 0 0 0-8.711 0v46.732c-2.6-1.509-4.356-4.317-4.356-7.533v-52.265c0-4.803 3.908-8.711 8.711-8.711h8.711v43.555c0 8.102 5.56 14.931 13.067 16.87v35.395H26.133v-74.043Zm26.133-8.711a4.355 4.355 0 0 0-8.711 0v38.021c-2.6-1.509-4.356-4.316-4.356-7.532V82.754c0-4.803 3.908-8.711 8.711-8.711h8.711v47.91c0 8.103 5.56 14.932 13.066 16.871v48.461H52.267v-82.754Zm47.91 82.754V135.02a4.356 4.356 0 1 0-8.711 0v52.265H78.398V78.398a4.355 4.355 0 1 0-8.71 0v51.087c-2.6-1.509-4.356-4.316-4.356-7.532V69.687c0-4.803 3.908-8.71 8.711-8.71h77.229a8.715 8.715 0 0 1-7.542 4.355h-26.132a4.356 4.356 0 0 0-4.356 4.356v117.597h-13.066Zm21.777 0V74.043h21.777c3.173 0 6.146-.856 8.711-2.344v115.586h-30.488ZM161.152 47.91h26.133v17.422h-26.133V47.91Zm39.2 34.844h-21.778v-8.711h13.067a4.355 4.355 0 0 0 4.355-4.356v-4.355h4.356v17.422Z" fill="#CE2127"/>
</svg><svg fill="none" viewBox="0 0 50 50" id="dancing" xmlns="http://www.w3.org/2000/svg">
    <g clip-path="url(#aja)">
        <path fill-rule="evenodd" clip-rule="evenodd" d="M21.616 44.458a.834.834 0 0 1-.41.459l-3.336 1.656a.832.832 0 0 1-.37.094h-.833a2.504 2.504 0 0 0-2.358 1.666h7.358v-1.666a.834.834 0 0 1 1.666 0v2.5A.833.833 0 0 1 22.5 50h-9.167a.833.833 0 0 1-.833-.833 4.173 4.173 0 0 1 3.437-4.103l-3.059-4.37a4.977 4.977 0 0 1 .38-6.212l5.034-5.593-.75-6.77-3.045-2.284-.021-.016-5.219-3.261a7.537 7.537 0 0 1-2.455-2.5L3.667 8.832A2.71 2.71 0 1 1 8.286 6l3.122 4.997 1.246.5a.833.833 0 1 1-.62 1.546l-1.5-.599a.824.824 0 0 1-.397-.333L6.873 6.889A1.04 1.04 0 0 0 5.1 7.972l3.135 5.229a5.844 5.844 0 0 0 1.91 1.946l4.033 2.52v-4.201a.833.833 0 0 1 1.24-.856L20.2 15h1.083A4.974 4.974 0 0 1 20 11.667V9.344a5.608 5.608 0 0 1-1.675-7.024l.93-1.86a.832.832 0 0 1 1.132-.364 13.777 13.777 0 0 0 6.375 1.57h1.155A4.568 4.568 0 0 1 30 10.309v1.359a4.985 4.985 0 0 1-1.667 3.716v1.284a3.333 3.333 0 1 1-6.666 0H20a.83.83 0 0 1-.374-.088l-3.784-1.892v4.071L18.832 21a.835.835 0 0 1 .328.575l.833 7.5a.834.834 0 0 1-.209.65l-5.284 5.87a3.316 3.316 0 0 0-.25 4.14l3.52 5.032 1.985-.995-2.19-5.11a.835.835 0 0 1 .282-1.007l5.833-4.167a.832.832 0 0 1 1.258.369l2.286 5.714a3.314 3.314 0 0 0 3.094 2.096h7.5l-.868-1.737-5.402-.772a.833.833 0 0 1 .237-1.65l5.518.789 2.234-1.49a.837.837 0 0 1 .463-.14h2.5a.834.834 0 0 1 .833.833v9.167a.833.833 0 0 1-.833.833 4.172 4.172 0 0 1-4.167-4.167h-8.012a4.975 4.975 0 0 1-4.643-3.139l-1.89-4.728-4.425 3.16 2.236 5.217c.084.195.09.415.017.615Zm4.562-26.613c.313-.312.489-.736.489-1.178v-.292a4.908 4.908 0 0 1-3.334 0v.292a1.666 1.666 0 0 0 2.845 1.178Zm1.179-3.821a3.333 3.333 0 0 0 .976-2.357V8.322a10.701 10.701 0 0 1-4.986-1.496l-1.68 1.12v3.72a3.333 3.333 0 0 0 5.69 2.358ZM19.816 3.066a3.993 3.993 0 0 0-.343 2.553c.106.53.32 1.033.63 1.476a.824.824 0 0 1 .264-.288l2.5-1.667a.833.833 0 0 1 .925 0 9.056 9.056 0 0 0 5.041 1.527h.334A.833.833 0 0 1 30 7.5v.773a2.89 2.89 0 0 0 .833-2.023 2.917 2.917 0 0 0-2.916-2.917h-1.155a15.466 15.466 0 0 1-6.386-1.388l-.56 1.12ZM40.25 38.333l-1.676 1.12 1.33 2.678c.06.114.094.24.096.369v.833a2.506 2.506 0 0 0 1.667 2.358v-7.358H40.25Zm-9.726-23.27L38.182 12l-1.074-4.298a2.552 2.552 0 0 1 4.95-1.238l1.601 6.388a3.312 3.312 0 0 1-1.742 3.79L32.45 21.37l-.78 7.797.578 6.364a.833.833 0 0 1-.754.906h-.076a.833.833 0 0 1-.83-.759L30.073 30H22.5a.833.833 0 1 1 0-1.667h7.583l.755-7.583a.834.834 0 0 1 .456-.663l4.314-2.156-1.072-2.681-3.394 1.36a.833.833 0 1 1-.618-1.547Zm9.515-8.738a.885.885 0 0 0-1.313.972l1.25 5a.834.834 0 0 1-.5.977l-3.393 1.357 1.021 2.552 4.063-2.031a1.656 1.656 0 0 0 .871-1.894l-1.596-6.389a.885.885 0 0 0-.403-.544ZM10.833 21.667H4.167a.833.833 0 0 0-.834.833v4.32a2.473 2.473 0 0 0-.833-.153 2.5 2.5 0 1 0 2.5 2.5v-2.5h5v2.653a2.473 2.473 0 0 0-.833-.153 2.5 2.5 0 1 0 2.5 2.5V22.5a.833.833 0 0 0-.834-.833ZM2.5 30a.833.833 0 1 1 0-1.666.833.833 0 0 1 0 1.666ZM5 23.333h5V25H5v-1.667ZM9.167 32.5a.833.833 0 1 1 0-1.666.833.833 0 0 1 0 1.666Zm34.803-9.605 4.334-2.5a.834.834 0 0 1 1.139.305 4.172 4.172 0 0 1-1.526 5.692l-2.167 1.25 2.084 3.608a2.492 2.492 0 1 1-2.617-1.2l-1.33-2.295-.834-1.443a2.499 2.499 0 0 1 .917-3.417Zm2.185 10.282a.833.833 0 1 0-.969-1.355.833.833 0 0 0 .97 1.355Zm-1.239-6.979 2.167-1.25a2.5 2.5 0 0 0 1.206-2.621l-3.484 2.011a.832.832 0 0 0-.306 1.139l.417.721Zm-32.853-20.4h.833v.833a.834.834 0 0 0 1.666 0v-.833h.834a.834.834 0 0 0 0-1.667h-.834v-.833a.833.833 0 1 0-1.666 0v.833h-.834a.833.833 0 1 0 0 1.667ZM4.167 39.167H5a.833.833 0 1 1 0 1.666h-.833v.834a.834.834 0 0 1-1.667 0v-.834h-.833a.834.834 0 0 1 0-1.666H2.5v-.834a.833.833 0 0 1 1.667 0v.834Zm32.5-5.834a.834.834 0 0 0 .833-.833v-.833h.833a.833.833 0 1 0 0-1.667H37.5v-.833a.834.834 0 0 0-1.667 0V30H35a.833.833 0 0 0 0 1.667h.833v.833a.834.834 0 0 0 .834.833Zm12.222-22.921a2.5 2.5 0 1 1-2.777-4.156 2.5 2.5 0 0 1 2.777 4.156Zm-.926-2.772a.834.834 0 1 0-.926 1.387.834.834 0 0 0 .926-1.387ZM1.667 1.667a.833.833 0 1 0 0-1.667.833.833 0 0 0 0 1.667ZM3.728 14.13a.833.833 0 1 1-1.667 0 .833.833 0 0 1 1.667 0Zm35.439 10.32a.833.833 0 1 0 0-1.667.833.833 0 0 0 0 1.667ZM40 1.667a.833.833 0 1 1-1.667 0 .833.833 0 0 1 1.667 0Z" fill="#CE2127"/>
    </g>
    <defs>
        <clipPath id="aja">
            <path fill="#fff" d="M0 0h50v50H0z"/>
        </clipPath>
    </defs>
</svg><svg fill="none" viewBox="0 0 80 80" id="gamepad" xmlns="http://www.w3.org/2000/svg">
    <path d="M23.333 30.833a1.667 1.667 0 0 0 0-3.333h-2.5V25a1.667 1.667 0 0 0-3.333 0v2.5H15a1.667 1.667 0 0 0 0 3.333h2.5v2.5a1.667 1.667 0 0 0 3.333 0v-2.5h2.5ZM60.833 26.667a1.667 1.667 0 1 0 0-3.334 1.667 1.667 0 0 0 0 3.334ZM60.833 35a1.667 1.667 0 1 0 0-3.333 1.667 1.667 0 0 0 0 3.333ZM65 30.833a1.667 1.667 0 1 0 0-3.333 1.667 1.667 0 0 0 0 3.333ZM56.667 30.833a1.667 1.667 0 1 0 0-3.333 1.667 1.667 0 0 0 0 3.333ZM27.5 36.667a5.833 5.833 0 1 0 0 11.666 5.833 5.833 0 0 0 0-11.666Zm0 8.333a2.5 2.5 0 1 1 0-5 2.5 2.5 0 0 1 0 5ZM52.5 36.667a5.833 5.833 0 1 0 0 11.666 5.833 5.833 0 0 0 0-11.666Zm0 8.333a2.5 2.5 0 1 1 0-5 2.5 2.5 0 0 1 0 5ZM36.667 31.667H35A1.667 1.667 0 0 0 35 35h1.667a1.667 1.667 0 0 0 0-3.333ZM45 31.667h-1.667a1.667 1.667 0 0 0 0 3.333H45a1.667 1.667 0 0 0 0-3.333Z" fill="#CE2127"/>
    <path d="M74.137 24.572a15.156 15.156 0 0 0-18.565-10.719 17.191 17.191 0 0 0-8.072 5.525 1.699 1.699 0 0 1-1.355.622H33.862a1.703 1.703 0 0 1-1.355-.622 17.192 17.192 0 0 0-8.075-5.525A15.154 15.154 0 0 0 5.863 24.572C-.953 50.015.522 63.667 10.373 66.305c6.112 1.64 11.667-2.167 16.552-11.322a12.372 12.372 0 0 0 9.062-3.317h8.026A12.372 12.372 0 0 0 52.5 55c.188 0 .378 0 .575-.017 4.145 7.774 8.783 11.692 13.833 11.692a10.463 10.463 0 0 0 2.72-.37c9.85-2.638 11.325-16.29 4.509-41.733Zm-5.374 38.515c-4.601 1.231-9.051-2.345-13.243-10.627a1.667 1.667 0 0 0-1.72-.897c-.43.065-.865.1-1.3.104a9.079 9.079 0 0 1-6.603-2.822 1.669 1.669 0 0 0-1.204-.512h-9.386a1.67 1.67 0 0 0-1.204.512 9.082 9.082 0 0 1-6.603 2.822 9.336 9.336 0 0 1-1.3-.104 1.666 1.666 0 0 0-1.72.897c-4.192 8.282-8.648 11.86-13.243 10.627-7.472-2-8.217-15.024-2.155-37.652a11.843 11.843 0 0 1 11.403-8.768c1.04 0 2.076.138 3.08.408a13.861 13.861 0 0 1 6.293 4.333 5.049 5.049 0 0 0 4 1.925h12.284a5.048 5.048 0 0 0 4-1.928 13.869 13.869 0 0 1 6.293-4.333 11.834 11.834 0 0 1 14.483 8.361c6.062 22.63 5.317 35.65-2.155 37.654Z" fill="#CE2127"/>
</svg><svg fill="none" viewBox="0 0 24 25" id="heart" xmlns="http://www.w3.org/2000/svg">
    <path fill-rule="evenodd" clip-rule="evenodd" d="M12.692 7.584a1 1 0 0 1-1.384 0l-.693-.665A4.5 4.5 0 0 0 3 10.166c0 2.383 1.29 4.35 3.152 5.967 1.863 1.618 4.091 2.691 5.423 3.239.278.114.572.114.85 0 1.332-.548 3.56-1.62 5.423-3.239C19.71 14.517 21 12.55 21 10.167a4.5 4.5 0 0 0-7.615-3.248l-.693.665ZM12 5.476a6.5 6.5 0 0 0-11 4.69c0 6.369 6.97 9.886 9.814 11.055a3.096 3.096 0 0 0 2.372 0C16.03 20.051 23 16.535 23 10.167a6.5 6.5 0 0 0-11-4.69Z" fill="#141718"/>
</svg><svg fill="none" viewBox="0 0 24 24" id="heart-line" xmlns="http://www.w3.org/2000/svg">
    <path d="M12.001 4.529a5.998 5.998 0 0 1 8.242.228 6 6 0 0 1 .236 8.236l-8.48 8.492-8.478-8.492a6 6 0 0 1 8.48-8.464Zm6.826 1.641a3.998 3.998 0 0 0-5.49-.153l-1.335 1.198-1.336-1.197a4 4 0 0 0-5.686 5.605L12 18.654l7.02-7.03a4 4 0 0 0-.193-5.454Z" fill="#000"/>
</svg><svg fill="none" viewBox="0 0 24 24" id="id-card-line" xmlns="http://www.w3.org/2000/svg">
    <path d="M3 6h18v12H3V6ZM2 4a1 1 0 0 0-1 1v14a1 1 0 0 0 1 1h20a1 1 0 0 0 1-1V5a1 1 0 0 0-1-1H2Zm11 4h6v2h-6V8Zm5 4h-5v2h5v-2Zm-7.5-2a2.5 2.5 0 1 1-5 0 2.5 2.5 0 0 1 5 0ZM8 13.5A3.5 3.5 0 0 0 4.5 17h7A3.5 3.5 0 0 0 8 13.5Z" fill="#000"/>
</svg><svg fill="none" viewBox="0 0 30 20" id="metro" xmlns="http://www.w3.org/2000/svg">
    <path d="M27.55 17.206 20.75 0 15 10.058 9.272 0 2.451 17.206H.448v2.608H10.74v-2.608H9.203l1.49-4.284L15 20l4.307-7.078 1.49 4.284h-1.536v2.608h10.29v-2.608H27.55Z" fill="#D92B2C"/>
</svg><svg fill="none" viewBox="0 0 60 60" id="pay" xmlns="http://www.w3.org/2000/svg">
    <g clip-path="url(#apa)" fill="#CE2127">
        <path d="M57.5 22.5h-4.56l-2.127-3.703a6.22 6.22 0 0 0-2.745-2.536l-8.732-4.137a9.04 9.04 0 0 0-5.492-.733l-22.732 4.066A3.754 3.754 0 0 0 7.5 12.7H3.75A3.754 3.754 0 0 0 0 16.449v16.294a3.754 3.754 0 0 0 3.75 3.75H7.5a3.753 3.753 0 0 0 3.714-3.257l5.727 2.644c.184.084.373.148.56.223V46.25a2.502 2.502 0 0 0 2.5 2.5h37.5a2.502 2.502 0 0 0 2.5-2.5V25a2.503 2.503 0 0 0-2.5-2.5ZM8.75 32.743a1.252 1.252 0 0 1-1.25 1.25H3.75a1.252 1.252 0 0 1-1.25-1.25V16.449a1.251 1.251 0 0 1 1.25-1.25H7.5a1.251 1.251 0 0 1 1.25 1.25v16.294Zm2.5-2.243V17.974l23.035-4.122a6.559 6.559 0 0 1 3.98.532L47 18.521a3.732 3.732 0 0 1 1.646 1.521l1.412 2.458H24.774a1.25 1.25 0 0 0-1.055 1.92l1.44 2.267a6.27 6.27 0 0 0 4.156 2.797l9.884 1.797a1.6 1.6 0 0 1-.286 3.173H21.837a9.141 9.141 0 0 1-3.85-.844L11.25 30.5Zm30.939-.089a6.248 6.248 0 1 1-9.545 6.543h6.268a4.083 4.083 0 0 0 3.276-6.543ZM57.5 46.25H20v-9.457c.607.102 1.222.155 1.837.16h.663v2.82a1.25 1.25 0 0 0 1.25 1.25 1.478 1.478 0 0 1 1.477 1.477 1.25 1.25 0 0 0 1.25 1.25h2.273a1.25 1.25 0 1 0 0-2.5h-1.224A3.995 3.995 0 0 0 25 38.724v-1.77h5.112c.647 4.188 4.286 7.421 8.638 7.421a8.75 8.75 0 1 0-3.715-16.674 1.234 1.234 0 0 0-.32.224l-4.953-.9a3.758 3.758 0 0 1-2.494-1.679l-.22-.346H57.5v21.25Z"/>
        <path d="M51.024 27.5H48.75a1.25 1.25 0 1 0 0 2.5h1.224a3.993 3.993 0 0 0 2.526 2.526v6.199a3.995 3.995 0 0 0-2.526 2.525H48.75a1.25 1.25 0 1 0 0 2.5h2.274a1.25 1.25 0 0 0 1.25-1.25 1.478 1.478 0 0 1 1.476-1.477 1.25 1.25 0 0 0 1.25-1.25v-8.296a1.25 1.25 0 0 0-1.25-1.25 1.478 1.478 0 0 1-1.477-1.477 1.25 1.25 0 0 0-1.25-1.25Z"/>
    </g>
    <defs>
        <clipPath id="apa">
            <path fill="#fff" d="M0 0h60v60H0z"/>
        </clipPath>
    </defs>
</svg><svg fill="none" viewBox="0 0 32 40" id="people" xmlns="http://www.w3.org/2000/svg">
    <path d="M24.668 16.463A7.195 7.195 0 0 0 28 10.4c0-3.97-3.23-7.2-7.2-7.2-.686 0-1.364.102-2.025.298A7.978 7.978 0 0 0 12.8.8c-4.411 0-8 3.589-8 8a7.997 7.997 0 0 0 3.504 6.612C3.57 16.385 0 20.583 0 25.6v13.6h25.6V36H32v-9.6c0-4.667-3.09-8.625-7.332-9.937Zm-4.89-11.567c.337-.064.679-.096 1.022-.096 3.088 0 5.6 2.513 5.6 5.6 0 3.087-2.512 5.6-5.6 5.6a5.554 5.554 0 0 1-3.06-.915c.011-.01.02-.02.033-.03a8.075 8.075 0 0 0 1.756-1.945l.053-.088a7.83 7.83 0 0 0 .717-1.462 7.906 7.906 0 0 0 .256-.83c.015-.059.032-.118.046-.177.05-.226.09-.456.12-.688.009-.063.021-.124.028-.186a7.96 7.96 0 0 0 .051-.88c0-.316-.023-.627-.06-.934-.01-.097-.029-.192-.043-.29a7.963 7.963 0 0 0-.202-.938 7.964 7.964 0 0 0-.227-.684c-.023-.06-.042-.121-.066-.181a7.911 7.911 0 0 0-.416-.862l-.008-.014ZM6.4 8.8c0-3.529 2.871-6.4 6.4-6.4 1.982 0 3.754.905 4.93 2.323l.05.066c.04.048.074.1.112.15.406.534.718 1.118.937 1.733.015.042.032.083.045.125.096.286.167.58.22.877.012.063.02.127.03.191.045.308.076.619.076.935 0 .262-.02.521-.052.778-.007.061-.018.12-.027.18-.033.211-.074.42-.127.626l-.034.132a6.427 6.427 0 0 1-1.058 2.133l-.044.058a6.41 6.41 0 0 1-1.133 1.138l-.068.05a6.417 6.417 0 0 1-.638.428l-.076.046-.124.072c-.9.483-1.928.759-3.019.759a6.407 6.407 0 0 1-6.4-6.4ZM24 37.6H1.6v-12c0-4.852 3.948-8.8 8.8-8.8h4.8a8.75 8.75 0 0 1 3.378.676l.153.069c.089.039.175.084.262.126.237.114.467.238.691.37.102.061.205.12.304.185a8.922 8.922 0 0 1 .626.45c.092.073.184.144.272.219a8.778 8.778 0 0 1 .69.656c.107.114.214.23.317.349a8.89 8.89 0 0 1 .458.59c.07.098.141.195.207.296a8.835 8.835 0 0 1 .505.883 7.904 7.904 0 0 1 .454 1.076c.037.108.077.214.11.323.067.223.125.45.175.679.019.088.032.178.05.267.032.178.06.357.082.538A9.617 9.617 0 0 1 24 25.6v12Zm6.4-3.2h-4.8v-8.8c0-.38-.023-.755-.063-1.124-.01-.089-.028-.175-.04-.263a10.375 10.375 0 0 0-.143-.842c-.021-.093-.048-.183-.072-.275a10.54 10.54 0 0 0-.228-.795c-.03-.09-.065-.18-.098-.27a10.325 10.325 0 0 0-.308-.753 11.633 11.633 0 0 0-.667-1.229c-.143-.224-.294-.44-.452-.653-.06-.08-.118-.162-.18-.24-.174-.22-.359-.43-.549-.635-.056-.06-.107-.122-.165-.181a10.494 10.494 0 0 0-.794-.738c4.74.128 8.559 4.026 8.559 8.798v8Z" fill="#CE2127"/>
</svg><svg fill="none" viewBox="0 0 30 24" id="percent" xmlns="http://www.w3.org/2000/svg">
    <path d="M10.072 23.36 24.472.64h-4.544l-14.4 22.72h4.544Zm13.408.256c3.456 0 6.304-2.848 6.304-6.304 0-3.488-2.848-6.304-6.304-6.304a6.296 6.296 0 0 0-6.304 6.304c0 3.456 2.816 6.304 6.304 6.304Zm0-3.712c-1.44 0-2.56-1.184-2.56-2.592 0-1.408 1.12-2.592 2.56-2.592s2.528 1.184 2.528 2.592c0 1.408-1.088 2.592-2.528 2.592ZM6.52 12.992c3.456 0 6.304-2.848 6.304-6.304C12.824 3.2 9.976.384 6.52.384A6.296 6.296 0 0 0 .216 6.688c0 3.456 2.816 6.304 6.304 6.304Zm0-3.712c-1.44 0-2.56-1.184-2.56-2.592 0-1.408 1.12-2.592 2.56-2.592S9.08 5.28 9.08 6.688c0 1.408-1.12 2.592-2.56 2.592Z" fill="#CE2127"/>
</svg><svg fill="none" viewBox="0 0 332 335" id="percent-surround" xmlns="http://www.w3.org/2000/svg">
    <path d="m217.308 122.668-109.928 87.36c-2.184 1.82-2.912 5.46-.728 7.644 1.092 1.456 2.548 2.184 4.368 2.184 1.092 0 2.548-.364 3.276-1.092l109.928-87.36c2.184-1.82 2.912-5.46.728-7.644-1.82-2.548-5.096-2.912-7.644-1.092ZM136.864 161.616c1.456 0 2.912 0 4.368-.364 14.924-2.184 25.48-16.38 22.932-31.668-1.092-7.28-5.096-13.832-10.92-18.2-5.824-4.368-13.104-6.188-20.384-5.096-7.28 1.092-13.832 5.096-18.2 10.92-4.368 5.824-6.188 13.104-5.096 20.384 2.184 14.196 14.196 24.024 27.3 24.024Zm-2.548-44.044c.728 0 1.82-.364 2.548-.364 8.008 0 15.288 5.824 16.38 14.196 1.456 9.1-4.732 17.472-13.832 18.928-9.1 1.456-17.472-4.732-18.928-13.832-1.456-9.1 5.096-17.472 13.832-18.928ZM195.104 179.816c-15.288 0-27.664 12.376-27.664 27.664 0 15.288 12.376 27.664 27.664 27.664 15.288 0 27.664-12.376 27.664-27.664-.364-15.288-12.74-27.664-27.664-27.664Zm0 44.044c-9.1 0-16.744-7.644-16.744-16.744s7.644-16.744 16.744-16.744 16.744 7.644 16.744 16.744c-.364 9.464-7.644 16.744-16.744 16.744Z" fill="#CE2127"/>
    <path d="M331.24 167.076c0-.364.364-1.092.364-1.456 0-15.652-16.38-23.66-30.576-30.576-10.192-5.096-21.112-10.556-24.024-17.108-2.912-6.916 1.092-18.2 5.096-28.756 5.46-14.924 10.92-30.212.728-40.404-10.192-10.192-24.752-6.552-39.312-3.276-10.192 2.184-20.748 4.732-27.664 1.82s-12.74-12.012-18.2-20.748C189.644 14.196 180.908 0 165.62 0c-15.288 0-24.024 14.196-31.668 26.936-5.46 9.1-10.92 18.2-17.836 21.112-6.916 2.912-17.836.364-28.028-2.184-14.56-3.64-29.484-7.28-39.312 2.548-10.192 10.192-5.096 25.48-.364 40.404 3.64 10.92 6.916 21.84 4.004 29.12-2.912 6.916-13.104 12.012-22.932 17.108C15.652 142.324 0 150.332 0 165.62c0 .364 0 1.092.364 1.456 0 .364-.364 1.092-.364 1.456 0 15.288 15.652 23.66 29.484 30.576 9.828 5.096 20.02 10.192 22.932 17.108 2.912 6.916-.728 18.2-4.004 29.12-4.732 14.924-9.828 30.212.364 40.404 10.192 10.192 25.116 6.188 39.312 2.548 10.192-2.548 21.112-5.096 28.028-2.184s12.376 12.012 17.836 21.112c7.644 12.74 16.38 26.936 31.668 26.936s24.388-14.196 32.032-26.572c5.46-8.736 11.284-17.836 18.2-20.748 7.28-2.912 17.472-.728 27.664 1.82 14.196 3.276 29.12 6.916 39.312-3.276 10.192-10.192 4.732-25.48-.728-40.404-4.004-10.92-8.008-21.84-5.096-28.756 2.912-6.916 13.468-12.012 24.024-17.108 14.196-7.28 30.576-15.288 30.576-30.576 0-.728-.364-1.092-.364-1.456Zm-35.308 22.204c-12.012 6.188-24.752 12.376-29.12 22.932-4.732 10.92.364 24.024 4.732 36.764 4.368 12.012 8.736 23.66 3.276 28.756-5.824 5.824-17.108 3.276-29.12.364s-24.024-5.46-34.58-1.092c-10.192 4.368-16.744 14.56-22.932 24.752-6.916 10.92-13.468 21.476-22.932 21.476-9.1 0-15.652-10.556-22.568-21.84-6.188-10.556-12.74-21.112-22.932-25.48-10.556-4.368-22.932-1.456-34.944 1.82-12.012 2.912-23.296 5.824-29.12.364-5.46-5.46-1.82-17.108 2.184-29.12 4.004-12.74 8.372-25.844 3.64-36.4-4.368-10.556-16.38-16.744-28.028-22.568-12.012-6.188-23.296-12.012-23.296-21.112 0-.364 0-1.092-.364-1.456 0-.364.364-1.092.364-1.456 0-8.736 11.284-14.56 23.296-21.112 11.648-5.824 23.66-12.012 28.028-22.568 4.368-10.92.364-24.024-3.64-36.4-4.004-12.376-7.644-24.024-2.184-29.12 5.824-5.824 17.108-2.912 29.12.364 12.012 2.912 24.388 6.188 34.944 1.82 10.192-4.368 16.744-14.924 22.932-25.48 6.916-11.284 13.104-21.84 22.568-21.84 9.464 0 16.016 10.556 22.932 21.476 6.552 10.192 13.104 20.384 22.932 24.752 10.556 4.368 22.568 1.456 34.58-1.092 12.012-2.912 23.296-5.46 29.12.364 5.46 5.096 1.092 16.744-3.276 28.756-4.732 12.74-9.464 25.844-4.732 36.764 4.368 10.556 17.108 16.744 29.12 22.932 12.74 6.188 24.388 12.376 24.388 21.112 0 .364 0 1.092.364 1.456 0 .364-.364 1.092-.364 1.456.364 7.28-11.648 13.468-24.388 19.656Z" fill="#CE2127"/>
</svg><svg fill="none" viewBox="0 0 22 22" id="phone" xmlns="http://www.w3.org/2000/svg">
    <path d="M20.888 15.956v3a2 2 0 0 1-2.18 2 19.789 19.789 0 0 1-8.63-3.07 19.5 19.5 0 0 1-6-6 19.79 19.79 0 0 1-3.07-8.67 2 2 0 0 1 1.99-2.18h3a2 2 0 0 1 2 1.72c.127.96.362 1.903.7 2.81a2 2 0 0 1-.45 2.11l-1.27 1.27a16 16 0 0 0 6 6l1.27-1.27a2.001 2.001 0 0 1 2.11-.45c.907.339 1.85.574 2.81.7a2 2 0 0 1 1.72 2.03Z" stroke="#fff" stroke-linecap="round" stroke-linejoin="round"/>
</svg><svg fill="none" viewBox="0 0 47 54" id="play" xmlns="http://www.w3.org/2000/svg">
    <path d="M46.435 27 .783 53.357V.643L46.435 27Z" fill="#000"/>
</svg><svg fill="none" viewBox="0 0 54 66" id="point" xmlns="http://www.w3.org/2000/svg">
    <path fill-rule="evenodd" clip-rule="evenodd" d="M8.535 46.29c-10.38-10.38-10.38-27.209 0-37.589 10.38-10.38 27.208-10.38 37.588 0 10.38 10.38 10.38 27.209 0 37.588L27.329 65.083 8.535 46.29ZM19.81 19.977c-4.152 4.152-4.152 10.883 0 15.035 4.152 4.152 10.884 4.152 15.035 0 4.152-4.152 4.152-10.883 0-15.035-4.151-4.152-10.883-4.152-15.035 0Z" fill="#CE2127"/>
</svg><svg fill="none" viewBox="0 0 24 24" id="profile" xmlns="http://www.w3.org/2000/svg">
    <path d="M18.559 19.549a7.003 7.003 0 0 0-13.118 0m13.118 0A9.976 9.976 0 0 0 22 12c0-5.523-4.477-10-10-10S2 6.477 2 12a9.977 9.977 0 0 0 3.441 7.549m13.118 0A9.961 9.961 0 0 1 12 22a9.961 9.961 0 0 1-6.559-2.451M15 9a3 3 0 1 1-6 0 3 3 0 0 1 6 0Z" stroke="#141718" stroke-width="1.5" stroke-linejoin="round"/>
</svg><svg fill="none" viewBox="0 0 40 40" id="robot-face" xmlns="http://www.w3.org/2000/svg">
    <path d="M37.535 18.162h-1.292v-6.303a4.348 4.348 0 0 0-4.344-4.344h-3.798V6.85a1.84 1.84 0 0 0-1.838-1.839h-2.546V3.717A3.722 3.722 0 0 0 20 0a3.722 3.722 0 0 0-3.717 3.717V5.01h-2.545a1.84 1.84 0 0 0-1.839 1.839v.666H8.101a4.348 4.348 0 0 0-4.343 4.344v6.303H2.465A1.84 1.84 0 0 0 .626 20v7.515a1.84 1.84 0 0 0 1.839 1.838h1.293v6.303A4.348 4.348 0 0 0 8.1 40H31.9a4.348 4.348 0 0 0 4.344-4.344v-6.303h1.292a1.84 1.84 0 0 0 1.839-1.838V20a1.84 1.84 0 0 0-1.839-1.838ZM17.456 3.717A2.548 2.548 0 0 1 20 1.172a2.548 2.548 0 0 1 2.546 2.545V5.01h-5.091V3.717ZM13.07 6.85c0-.368.3-.667.667-.667h12.525c.367 0 .666.299.666.667v.666H13.071V6.85Zm25.131 20.666c0 .368-.299.667-.666.667h-1.293v-5.677a.586.586 0 1 0-1.172 0v13.151a3.175 3.175 0 0 1-3.172 3.172H8.101a3.175 3.175 0 0 1-3.171-3.172V22.505a.586.586 0 1 0-1.172 0v5.677H2.465a.667.667 0 0 1-.667-.667V20c0-.368.3-.667.667-.667h1.293V20a.586.586 0 0 0 1.172 0V11.86A3.175 3.175 0 0 1 8.1 8.687H31.9a3.175 3.175 0 0 1 3.172 3.172V20a.586.586 0 1 0 1.172 0v-.667h1.292c.368 0 .667.3.667.667v7.515Z" fill="#CE2127"/>
    <path d="M28.142 29.435H11.859a1.84 1.84 0 0 0-1.838 1.838v1.253a1.84 1.84 0 0 0 1.838 1.838h16.283a1.84 1.84 0 0 0 1.838-1.838v-1.253a1.84 1.84 0 0 0-1.838-1.838Zm-10.687 1.171h1.96v2.586h-1.96v-2.586Zm-1.172 2.586h-1.96v-2.586h1.96v2.586Zm4.303-2.586h1.96v2.586h-1.96v-2.586Zm3.132 0h1.959v2.586h-1.96v-2.586Zm-12.526 1.92v-1.253c0-.367.3-.666.667-.666h1.293v2.585h-1.293a.668.668 0 0 1-.667-.666Zm17.616 0a.667.667 0 0 1-.666.666h-1.293v-2.586h1.293c.367 0 .666.3.666.667v1.253ZM10.868 24.433a.586.586 0 1 0-.595 1.01 5.583 5.583 0 0 0 6.796-.86 5.59 5.59 0 0 0 .859-6.796.586.586 0 0 0-1.01.596 4.42 4.42 0 0 1-3.22 6.626v-8.764a4.416 4.416 0 0 1 1.656.573.586.586 0 0 0 .596-1.009 5.59 5.59 0 0 0-7.656 7.656.586.586 0 1 0 1.01-.596 4.42 4.42 0 0 1 3.221-6.626v8.764a4.416 4.416 0 0 1-1.657-.574ZM30.9 17.58a.586.586 0 0 0-.207.803 4.42 4.42 0 0 1-3.221 6.626v-8.764a4.414 4.414 0 0 1 1.657.573.586.586 0 0 0 .595-1.009 5.59 5.59 0 0 0-7.655 7.656.586.586 0 1 0 1.01-.596 4.42 4.42 0 0 1 3.22-6.626v8.764a4.416 4.416 0 0 1-1.656-.574.586.586 0 1 0-.596 1.01 5.584 5.584 0 0 0 6.796-.86 5.59 5.59 0 0 0 .86-6.796.586.586 0 0 0-.803-.207Z" fill="#CE2127"/>
</svg><svg fill="none" viewBox="0 0 30 24" id="sale" xmlns="http://www.w3.org/2000/svg">
    <path d="M10.072 23.36 24.472.64h-4.544l-14.4 22.72h4.544Zm13.408.256c3.456 0 6.304-2.848 6.304-6.304 0-3.488-2.848-6.304-6.304-6.304a6.296 6.296 0 0 0-6.304 6.304c0 3.456 2.816 6.304 6.304 6.304Zm0-3.712c-1.44 0-2.56-1.184-2.56-2.592 0-1.408 1.12-2.592 2.56-2.592s2.528 1.184 2.528 2.592c0 1.408-1.088 2.592-2.528 2.592ZM6.52 12.992c3.456 0 6.304-2.848 6.304-6.304C12.824 3.2 9.976.384 6.52.384A6.296 6.296 0 0 0 .216 6.688c0 3.456 2.816 6.304 6.304 6.304Zm0-3.712c-1.44 0-2.56-1.184-2.56-2.592 0-1.408 1.12-2.592 2.56-2.592S9.08 5.28 9.08 6.688c0 1.408-1.12 2.592-2.56 2.592Z" fill="#CE2127"/>
</svg><svg fill="none" viewBox="0 0 24 24" id="search" xmlns="http://www.w3.org/2000/svg">
    <path d="M18.5 18.5 22 22m-1-10.5a9.5 9.5 0 1 0-19 0 9.5 9.5 0 0 0 19 0Z" stroke="#141718" stroke-width="1.5" stroke-linecap="round" stroke-linejoin="round"/>
</svg><svg fill="none" viewBox="0 0 24 24" id="search-line" xmlns="http://www.w3.org/2000/svg">
    <path d="m18.031 16.617 4.283 4.282-1.415 1.415-4.282-4.283A8.96 8.96 0 0 1 11 20c-4.968 0-9-4.032-9-9s4.032-9 9-9 9 4.032 9 9a8.96 8.96 0 0 1-1.969 5.617Zm-2.006-.742A6.977 6.977 0 0 0 18 11c0-3.867-3.133-7-7-7s-7 3.133-7 7 3.133 7 7 7a6.977 6.977 0 0 0 4.875-1.975l.15-.15Z" fill="#000"/>
</svg><svg fill="none" viewBox="0 0 60 60" id="square" xmlns="http://www.w3.org/2000/svg">
    <path d="M1.283 38.453H37.11a1.283 1.283 0 0 0 1.283-1.252V1.345A1.283 1.283 0 0 0 37.109.062H1.283A1.283 1.283 0 0 0 0 1.345V37.2a1.283 1.283 0 0 0 1.283 1.252ZM2.566 2.628h33.26v33.26H2.566V2.627ZM37.263 42.128a1.283 1.283 0 0 0-1.283 1.283v6.878l-7.186-4.753a1.294 1.294 0 0 0-1.817 1.725l2.453 4.106H9.208l2.443-3.9A1.294 1.294 0 0 0 9.875 45.7l-7.309 4.64v-6.93a1.283 1.283 0 1 0-2.566 0v9.24a1.355 1.355 0 0 0 .575 1.026l9.136 6.107a1.274 1.274 0 0 0 1.813-.419 1.293 1.293 0 0 0 .024-1.274l-2.453-4.106h20.253l-2.402 3.88a1.284 1.284 0 0 0 1.766 1.765l9.238-5.861c.232-.144.408-.36.503-.616.065-.153.1-.317.103-.482v-9.239a1.285 1.285 0 0 0-1.293-1.304ZM59.702 27.244a1.314 1.314 0 0 0-1.59-.226l-4.107 2.464V9.269l3.901 2.444a1.284 1.284 0 0 0 1.766-1.766L53.912.811A1.294 1.294 0 0 0 52.723 0h-9.239a1.283 1.283 0 1 0 0 2.566h6.868l-4.794 7.186a1.282 1.282 0 0 0 1.725 1.786l4.106-2.453v20.222l-3.911-2.371A1.294 1.294 0 0 0 45.7 28.7l4.62 7.32h-6.889a1.283 1.283 0 1 0 0 2.566h9.239c.154-.005.307-.036.452-.093.259-.086.483-.255.636-.482l6.036-9.177a1.284 1.284 0 0 0-.093-1.591Z" fill="#fff"/>
</svg><svg fill="none" viewBox="0 0 50 50" id="star" xmlns="http://www.w3.org/2000/svg">
    <path fill-rule="evenodd" clip-rule="evenodd" d="M15.012 0a5.79 5.79 0 0 1 5.827 5.826h-1.665a4.121 4.121 0 0 0-4.162-4.161V0ZM.363 18.977c-.333-.166-.416-.582-.333-.915.166-.333.5-.583.832-.583h17.812l5.577-14.483c.083-.25.416-.499.749-.499s.666.25.75.5l5.576 14.565h17.812c.416 0 .749.25.832.583.083.333 0 .749-.333.915l-13.983 9.655 6.742 17.646c.166.333 0 .666-.25.916-.166.083-.333.166-.5.166-.166 0-.332-.083-.499-.166L25 36.04 8.853 47.193c-.333.25-.75.25-.999 0-.25-.166-.416-.582-.25-.915l6.742-17.646L.363 18.977Zm5.41 1.748 10.071 6.992c.333.166.417.582.25.915l-5.077 13.234 12.568-15.648-17.812-5.493Zm18.728 13.65c.166-.083.332-.166.499-.166.166 0 .333.083.416.166L37.402 42.7 25 27.134 12.515 42.699l11.986-8.324ZM38.9 41.95l-5.077-13.235c-.084-.416 0-.832.333-.998l10.07-6.992-17.811 5.493L38.9 41.95Zm4.744-22.806h-12.9c-.334 0-.667-.25-.75-.5l-4.162-10.82v16.813l17.812-5.493Zm-23.638-.5c-.083.25-.416.5-.75.5h-12.9l17.812 5.576V7.824l-4.162 10.82Zm26.635-6.991a4.121 4.121 0 0 0-4.162 4.161h-1.664a5.79 5.79 0 0 1 5.826-5.826v1.665Zm3.33-1.665h-1.665v1.665h1.664V9.988ZM13.346 0h-1.664v1.665h1.664V0Zm24.97 3.33c0 1.414 1.083 2.496 2.498 2.496.5 0 .832.333.832.833 0 .5-.333.832-.832.832-1.415 0-2.497 1.082-2.497 2.497 0 .5-.333.832-.833.832-.499 0-.832-.333-.832-.832 0-1.415-1.082-2.497-2.497-2.497-.5 0-.832-.333-.832-.832 0-.5.333-.833.832-.833 1.415 0 2.497-1.082 2.497-2.497 0-.5.333-.832.832-.832.5 0 .833.333.833.832Zm-1.664 3.329c.333.25.583.5.832.832.25-.333.5-.583.833-.832-.333-.25-.583-.5-.833-.833-.25.333-.499.583-.832.833ZM7.521 3.329c-1.415 0-2.497-1.082-2.497-2.497 0-.5-.333-.832-.832-.832-.5 0-.832.333-.832.832C3.36 2.247 2.278 3.33.863 3.33c-.5 0-.833.333-.833.833 0 .5.333.832.833.832 1.415 0 2.497 1.082 2.497 2.497 0 .5.332.832.832.832.5 0 .832-.333.832-.832 0-1.415 1.082-2.497 2.497-2.497.5 0 .833-.333.833-.832 0-.5-.333-.833-.833-.833Zm-3.33 1.665c-.249-.333-.499-.583-.831-.832.332-.25.582-.5.832-.833.25.333.5.583.832.833-.333.25-.582.5-.832.832ZM48.307 0h1.664v1.665h-1.664V0ZM10.85 6.659H9.186v1.664h1.664V6.66ZM.03 12.485h1.665v1.665H.03v-1.665Zm8.323 1.665H6.69v1.664h1.664V14.15ZM44.976 0h1.665v1.665h-1.665V0Zm1.665 31.629a5.79 5.79 0 0 0-5.826 5.826h1.664a4.121 4.121 0 0 1 4.162-4.162V31.63Zm1.665 0h1.664v1.664h-1.664V31.63Zm-39.12-3.33H7.521a4.121 4.121 0 0 1-4.161 4.162v1.665a5.79 5.79 0 0 0 5.826-5.827ZM.03 32.461h1.665v1.665H.03V32.46Zm1.665 15.814H.03v1.665h1.665v-1.665Zm19.144-5.826h1.664v1.665H20.84v-1.665Zm10.82 5.826h-1.665v1.665h1.665v-1.665Zm16.647 0h1.664v1.665h-1.664v-1.665Z" fill="#CE2127"/>
</svg><svg fill="none" viewBox="0 0 17 16" id="star-rate" xmlns="http://www.w3.org/2000/svg">
    <path d="M7.242 1.375c.3-.922 1.603-.922 1.902 0l1.182 3.637a1 1 0 0 0 .95.69h3.825c.97 0 1.372 1.24.588 1.81L12.595 9.76a1 1 0 0 0-.363 1.118l1.182 3.637c.299.921-.755 1.688-1.54 1.118l-3.093-2.248a1 1 0 0 0-1.176 0l-3.094 2.248c-.784.57-1.838-.196-1.539-1.118l1.182-3.637a1 1 0 0 0-.363-1.118L.697 7.512c-.784-.57-.381-1.81.588-1.81h3.824a1 1 0 0 0 .951-.69l1.182-3.637Z" fill="#C4C4C4"/>
</svg><svg fill="none" viewBox="0 0 61 60" id="target" xmlns="http://www.w3.org/2000/svg">
    <path d="M30.72 11.894a3.288 3.288 0 0 1-3.284-3.285V3.284a3.284 3.284 0 0 1 6.568 0v5.325a3.289 3.289 0 0 1-3.284 3.285Zm0-9.586a.976.976 0 0 0-.976.976v5.325a.977.977 0 0 0 1.952 0V3.284a.976.976 0 0 0-.976-.976ZM9.33 33.284H4.004a3.284 3.284 0 0 1 0-6.568H9.33a3.284 3.284 0 0 1 0 6.568Zm-5.326-4.26a.977.977 0 0 0 0 1.952H9.33a.976.976 0 1 0 0-1.952H4.004ZM30.72 60a3.288 3.288 0 0 1-3.284-3.284v-5.325a3.284 3.284 0 0 1 6.568 0v5.325A3.288 3.288 0 0 1 30.72 60Zm0-9.586a.977.977 0 0 0-.976.977v5.325a.977.977 0 0 0 1.952 0v-5.325a.977.977 0 0 0-.976-.977ZM57.436 33.284H52.11a3.284 3.284 0 0 1 0-6.568h5.326a3.284 3.284 0 0 1 0 6.568Zm-5.326-4.26a.976.976 0 0 0 0 1.952h5.326a.976.976 0 1 0 0-1.952H52.11Z" fill="#fff"/>
    <path d="M32.636 52.154a1.155 1.155 0 0 1-.103-2.308 19.892 19.892 0 0 0 18.04-18.032 1.167 1.167 0 0 1 1.253-1.046 1.154 1.154 0 0 1 1.046 1.252A22.201 22.201 0 0 1 32.74 52.154h-.105Z" fill="#fff"/>
    <path d="M33.012 56.775a1.155 1.155 0 0 1-.103-2.308A24.577 24.577 0 0 0 55.19 32.192a1.166 1.166 0 0 1 1.253-1.045 1.152 1.152 0 0 1 1.045 1.253 26.884 26.884 0 0 1-24.372 24.37c-.035 0-.07.005-.105.005ZM51.72 29.236a1.153 1.153 0 0 1-1.148-1.05 19.895 19.895 0 0 0-18.04-18.04 1.152 1.152 0 0 1-.635-2.036 1.154 1.154 0 0 1 .843-.263A22.203 22.203 0 0 1 52.874 27.98a1.154 1.154 0 0 1-1.154 1.256Z" fill="#fff"/>
    <path d="M56.336 28.86a1.154 1.154 0 0 1-1.154-1.05 24.57 24.57 0 0 0-22.27-22.28 1.154 1.154 0 1 1 .208-2.3 26.885 26.885 0 0 1 24.37 24.372 1.152 1.152 0 0 1-1.154 1.258ZM9.72 29.236h-.105a1.154 1.154 0 0 1-1.045-1.252A22.203 22.203 0 0 1 28.698 7.846a1.154 1.154 0 0 1 .208 2.299 19.895 19.895 0 0 0-18.04 18.041 1.153 1.153 0 0 1-1.146 1.05Z" fill="#fff"/>
    <path d="M5.105 28.86H5a1.155 1.155 0 0 1-1.05-1.258A26.884 26.884 0 0 1 28.323 3.231a1.168 1.168 0 0 1 1.254 1.046A1.156 1.156 0 0 1 28.53 5.53 24.57 24.57 0 0 0 6.25 27.808a1.154 1.154 0 0 1-1.145 1.052ZM28.803 52.154h-.105A22.203 22.203 0 0 1 8.566 32.02a1.154 1.154 0 0 1 1.046-1.252 1.167 1.167 0 0 1 1.253 1.046 19.895 19.895 0 0 0 18.041 18.04 1.155 1.155 0 1 1-.102 2.308v-.008Z" fill="#fff"/>
    <path d="M28.426 56.77h-.105a26.884 26.884 0 0 1-24.37-24.372 1.154 1.154 0 0 1 1.045-1.253A1.166 1.166 0 0 1 6.25 32.19a24.577 24.577 0 0 0 22.279 22.28 1.155 1.155 0 0 1-.103 2.309l.001-.01ZM30.72 31.681a5.373 5.373 0 1 1 0-10.747 5.373 5.373 0 0 1 0 10.747Zm0-8.439a3.066 3.066 0 1 0 0 6.132 3.066 3.066 0 0 0 0-6.132Z" fill="#fff"/>
    <path d="M30.72 44.341a17.853 17.853 0 0 1-8.729-2.258 1.154 1.154 0 0 1-.547-.692 8.811 8.811 0 0 1-.317-2.423 9.593 9.593 0 0 1 19.186 0c.008.818-.1 1.634-.317 2.423-.084.294-.28.543-.547.692a17.853 17.853 0 0 1-8.729 2.258Zm-7.163-4.038a15.974 15.974 0 0 0 14.326 0c.084-.442.125-.891.122-1.341a7.285 7.285 0 0 0-14.57 0c-.003.451.038.902.122 1.345v-.004ZM24.127 29.043a5.373 5.373 0 1 1 5.273-6.378 1.155 1.155 0 0 1-1.371 1.382 1.154 1.154 0 0 1-.895-.954 3.07 3.07 0 1 0-1.228 3.068 1.155 1.155 0 0 1 1.346 1.877 5.327 5.327 0 0 1-3.125 1.005Z" fill="#fff"/>
    <path d="M30.271 31.708a1.183 1.183 0 1 1 .45-2.26 1.304 1.304 0 0 1 .708 1.106 1.154 1.154 0 0 1-1.158 1.154ZM22.412 41.597h-.105a17.185 17.185 0 0 1-6.909-2.146 1.153 1.153 0 0 1-.54-.68 8.477 8.477 0 0 1-.325-2.436 9.604 9.604 0 0 1 9.593-9.595 9.204 9.204 0 0 1 3.374.621 1.155 1.155 0 1 1-.841 2.149 6.924 6.924 0 0 0-2.539-.462 7.294 7.294 0 0 0-7.285 7.287c-.006.448.033.896.115 1.337a14.833 14.833 0 0 0 5.555 1.627 1.155 1.155 0 0 1-.103 2.307l.01-.009ZM37.313 29.044a5.328 5.328 0 0 1-3.125-1.008 1.155 1.155 0 0 1 1.346-1.875c.517.375 1.14.577 1.78.577a3.066 3.066 0 1 0-3.008-3.643 1.155 1.155 0 0 1-2.105.46 1.153 1.153 0 0 1-.16-.888 5.37 5.37 0 1 1 5.272 6.379v-.002Z" fill="#fff"/>
    <path d="M39.028 41.597a1.153 1.153 0 0 1-.904-1.933c.207-.226.495-.36.801-.374a14.833 14.833 0 0 0 5.555-1.627c.082-.441.12-.89.115-1.338a7.295 7.295 0 0 0-7.285-7.286 6.922 6.922 0 0 0-2.539.461 1.154 1.154 0 1 1-.84-2.148 9.203 9.203 0 0 1 3.373-.62 9.603 9.603 0 0 1 9.593 9.593 8.477 8.477 0 0 1-.324 2.436 1.154 1.154 0 0 1-.541.68 17.185 17.185 0 0 1-6.91 2.147.341.341 0 0 1-.094.01ZM31.169 31.708a1.154 1.154 0 0 1-1.154-1.154 1.303 1.303 0 0 1 .705-1.107 1.172 1.172 0 1 1 .446 2.26h.003Z" fill="#fff"/>
</svg><svg fill="none" viewBox="0 0 61 60" id="telegram" xmlns="http://www.w3.org/2000/svg">
    <path d="M60.482 0H.518A.018.018 0 0 0 .5.018v59.964c0 .01.008.018.018.018h59.964c.01 0 .018-.008.018-.018V.018A.018.018 0 0 0 60.482 0Z" fill="#37AEE2"/>
    <path d="M23.82 47.344c-1.289 0-1.172-.469-1.523-1.64l-3.75-12.306 28.71-16.875" fill="#C8DAEA"/>
    <path d="M23.82 47.344c.82 0 1.29-.469 1.875-.938l5.274-5.039-6.563-3.984" fill="#A9C9DD"/>
    <path d="m24.406 37.383 15.82 11.601c1.641 1.055 3.047.469 3.516-1.64l6.446-30.235c.585-2.578-1.055-3.75-2.813-2.93L9.758 28.712c-2.461.937-2.461 2.46-.469 3.047l9.727 3.047 22.265-14.18c1.055-.586 1.992-.352 1.29.469" fill="#F6FBFE"/>
</svg><svg fill="none" viewBox="0 0 80 80" id="three-men" xmlns="http://www.w3.org/2000/svg">
    <path d="M21.25 40a1.25 1.25 0 0 1-.884-2.134l8.75-8.75a1.25 1.25 0 0 1 1.768 1.768l-8.75 8.75a1.25 1.25 0 0 1-.884.366ZM58.75 40a1.25 1.25 0 0 1-.884-.366l-8.75-8.75a1.25 1.25 0 0 1 1.768-1.768l8.75 8.75A1.25 1.25 0 0 1 58.75 40ZM52.5 65h-25a1.25 1.25 0 0 1 0-2.5h25a1.25 1.25 0 0 1 0 2.5ZM40 48.75c-3.145.08-6.277-.43-9.235-1.5-2.696-1.097-3.265-2.51-3.265-3.5 0-.99.569-2.403 3.279-3.508a1.25 1.25 0 1 1 .942 2.316C30.3 43.137 30 43.67 30 43.75c0 .08.299.612 1.721 1.193A22.772 22.772 0 0 0 40 46.25c2.812.08 5.614-.361 8.265-1.303C49.701 44.362 50 43.83 50 43.75c0-.08-.299-.612-1.721-1.193a1.251 1.251 0 1 1 .942-2.315c2.71 1.105 3.279 2.518 3.279 3.508 0 .99-.569 2.403-3.279 3.508A25.25 25.25 0 0 1 40 48.75ZM46.25 27.5H45a1.25 1.25 0 0 1 0-2.5h1.25a1.25 1.25 0 0 0 1.25-1.25v-7.5A1.25 1.25 0 0 0 46.25 15h-12.5a1.25 1.25 0 0 0-1.25 1.25v7.5A1.25 1.25 0 0 0 33.75 25H35a1.25 1.25 0 0 1 0 2.5h-1.25A3.75 3.75 0 0 1 30 23.75v-7.5a3.75 3.75 0 0 1 3.75-3.75h12.5A3.75 3.75 0 0 1 50 16.25v7.5a3.75 3.75 0 0 1-3.75 3.75ZM40 11.25a5 5 0 1 1 0-10 5 5 0 0 1 0 10Zm0-7.5a2.5 2.5 0 1 0 0 5 2.5 2.5 0 0 0 0-5Z" fill="#CE2127"/>
    <path d="M45 45H35a1.25 1.25 0 0 1-1.25-1.25V17.5a1.25 1.25 0 0 1 2.5 0v25h7.5v-25a1.25 1.25 0 0 1 2.5 0v26.25A1.25 1.25 0 0 1 45 45Z" fill="#CE2127"/>
    <path d="M40 45a1.25 1.25 0 0 1-1.25-1.25V27.5a1.25 1.25 0 0 1 2.5 0v16.25A1.25 1.25 0 0 1 40 45ZM66.25 78.75c-3.145.08-6.277-.43-9.235-1.5-2.696-1.097-3.265-2.51-3.265-3.5 0-.99.569-2.403 3.279-3.507a1.249 1.249 0 0 1 1.36 2.05c-.12.115-.263.205-.418.264-1.422.58-1.721 1.113-1.721 1.193 0 .08.299.612 1.721 1.192a22.773 22.773 0 0 0 8.279 1.308c2.812.08 5.614-.361 8.265-1.302 1.436-.585 1.735-1.118 1.735-1.198 0-.08-.299-.612-1.721-1.192a1.251 1.251 0 1 1 .942-2.316c2.71 1.105 3.279 2.518 3.279 3.508 0 .99-.569 2.403-3.279 3.507a25.25 25.25 0 0 1-9.221 1.493ZM72.5 57.5h-1.25a1.25 1.25 0 0 1 0-2.5h1.25a1.25 1.25 0 0 0 1.25-1.25v-7.5A1.25 1.25 0 0 0 72.5 45H60a1.25 1.25 0 0 0-1.25 1.25v7.5A1.25 1.25 0 0 0 60 55h1.25a1.25 1.25 0 0 1 0 2.5H60a3.75 3.75 0 0 1-3.75-3.75v-7.5A3.75 3.75 0 0 1 60 42.5h12.5a3.75 3.75 0 0 1 3.75 3.75v7.5a3.75 3.75 0 0 1-3.75 3.75ZM66.25 41.25a5 5 0 1 1 0-10 5 5 0 0 1 0 10Zm0-7.5a2.5 2.5 0 1 0 0 5 2.5 2.5 0 0 0 0-5Z" fill="#CE2127"/>
    <path d="M71.25 75h-10A1.25 1.25 0 0 1 60 73.75V47.5a1.25 1.25 0 0 1 2.5 0v25H70v-25a1.25 1.25 0 0 1 2.5 0v26.25A1.25 1.25 0 0 1 71.25 75Z" fill="#CE2127"/>
    <path d="M66.25 75A1.25 1.25 0 0 1 65 73.75V57.5a1.25 1.25 0 0 1 2.5 0v16.25A1.25 1.25 0 0 1 66.25 75ZM13.75 78.75a25.27 25.27 0 0 1-9.235-1.5c-2.696-1.097-3.265-2.51-3.265-3.5 0-.99.569-2.403 3.279-3.507a1.25 1.25 0 1 1 .942 2.315c-1.422.58-1.721 1.112-1.721 1.192 0 .08.299.612 1.721 1.192a22.773 22.773 0 0 0 8.279 1.308c2.812.08 5.614-.361 8.265-1.302 1.436-.585 1.735-1.118 1.735-1.198 0-.08-.299-.612-1.721-1.192a1.252 1.252 0 0 1-.026-2.324 1.25 1.25 0 0 1 .968.009c2.71 1.105 3.279 2.517 3.279 3.507 0 .99-.569 2.403-3.279 3.507a25.251 25.251 0 0 1-9.221 1.493ZM20 57.5h-1.25a1.25 1.25 0 0 1 0-2.5H20a1.25 1.25 0 0 0 1.25-1.25v-7.5A1.25 1.25 0 0 0 20 45H7.5a1.25 1.25 0 0 0-1.25 1.25v7.5A1.25 1.25 0 0 0 7.5 55h1.25a1.25 1.25 0 0 1 0 2.5H7.5a3.75 3.75 0 0 1-3.75-3.75v-7.5A3.75 3.75 0 0 1 7.5 42.5H20a3.75 3.75 0 0 1 3.75 3.75v7.5A3.75 3.75 0 0 1 20 57.5ZM13.75 41.25a5 5 0 1 1 0-10 5 5 0 0 1 0 10Zm0-7.5a2.5 2.5 0 1 0 0 5 2.5 2.5 0 0 0 0-5Z" fill="#CE2127"/>
    <path d="M18.75 75h-10a1.25 1.25 0 0 1-1.25-1.25V47.5a1.25 1.25 0 0 1 2.5 0v25h7.5v-25a1.25 1.25 0 0 1 2.5 0v26.25A1.25 1.25 0 0 1 18.75 75Z" fill="#CE2127"/>
    <path d="M13.75 75a1.25 1.25 0 0 1-1.25-1.25V57.5a1.25 1.25 0 0 1 2.5 0v16.25A1.25 1.25 0 0 1 13.75 75Z" fill="#CE2127"/>
</svg><svg fill="none" viewBox="0 0 61 60" id="tiktok" xmlns="http://www.w3.org/2000/svg">
    <g clip-path="url(#bha)">
        <path d="M60.482 0H.518A.018.018 0 0 0 .5.018v59.964c0 .01.008.018.018.018h59.964c.01 0 .018-.008.018-.018V.018A.018.018 0 0 0 60.482 0Z" fill="#010101"/>
        <path fill-rule="evenodd" clip-rule="evenodd" d="M38.175 55.2c1.826 0 3.306-1.469 3.306-3.28 0-1.81-1.48-3.278-3.306-3.278h-.498c1.826 0 3.306 1.468 3.306 3.279 0 1.81-1.48 3.279-3.306 3.279h.498Z" fill="#EE1D51"/>
        <path fill-rule="evenodd" clip-rule="evenodd" d="M37.632 48.642h-.498c-1.826 0-3.306 1.468-3.306 3.279 0 1.81 1.48 3.279 3.306 3.279h.498c-1.826 0-3.306-1.469-3.306-3.28 0-1.81 1.48-3.278 3.306-3.278Z" fill="#66C8CF"/>
        <path d="M37.655 53.515c.888 0 1.607-.714 1.607-1.595 0-.88-.72-1.594-1.607-1.594-.888 0-1.608.714-1.608 1.594 0 .881.72 1.595 1.608 1.595Z" fill="#010101"/>
        <path fill-rule="evenodd" clip-rule="evenodd" d="M12.5 47.16v1.662h1.947v6.333h1.948v-6.288h1.584l.544-1.707H12.5Zm15.94 0v1.662h1.947v6.333h1.947v-6.288h1.585l.543-1.707H28.44Zm-9.555.943c0-.52.425-.943.95-.943.526 0 .951.423.951.943 0 .521-.425.944-.95.944a.947.947 0 0 1-.95-.944Zm0 1.617h1.901v5.435h-1.9v-5.434Zm2.717-2.56v7.995h1.902V53.09l.588-.54L25.95 55.2h2.037l-2.671-3.863 2.4-2.336h-2.31l-1.901 1.887V47.16h-1.902Zm20.513 0v7.995h1.902V53.09l.588-.54 1.857 2.651H48.5l-2.672-3.863 2.4-2.336h-2.31l-1.901 1.887V47.16h-1.902Z" fill="#fff"/>
        <path fill-rule="evenodd" clip-rule="evenodd" d="M39.18 19.484a15.977 15.977 0 0 0 9.32 2.981v-6.684a9.424 9.424 0 0 1-1.957-.205v5.262a15.98 15.98 0 0 1-9.32-2.981v13.64c0 6.824-5.534 12.355-12.361 12.355-2.547 0-4.915-.77-6.882-2.09a12.327 12.327 0 0 0 8.838 3.718c6.828 0 12.362-5.532 12.362-12.356v-13.64Zm2.414-6.743a9.315 9.315 0 0 1-2.414-5.455v-.86h-1.855a9.358 9.358 0 0 0 4.27 6.315ZM22.298 36.526a5.653 5.653 0 0 1 6.217-8.808v-6.833a12.476 12.476 0 0 0-1.957-.113v5.32a5.653 5.653 0 0 0-4.26 10.435Z" fill="#EE1D52"/>
        <path fill-rule="evenodd" clip-rule="evenodd" d="M37.223 17.857a15.98 15.98 0 0 0 9.32 2.98v-5.261a9.355 9.355 0 0 1-4.949-2.835 9.358 9.358 0 0 1-4.269-6.314h-4.871v26.697a5.654 5.654 0 0 1-10.156 3.402 5.65 5.65 0 0 1 2.544-10.7c.598 0 1.175.094 1.716.265v-5.319c-6.707.139-12.101 5.616-12.101 12.352a12.31 12.31 0 0 0 3.523 8.639 12.307 12.307 0 0 0 6.882 2.09c6.827 0 12.36-5.532 12.36-12.356v-13.64Z" fill="#fff"/>
        <path fill-rule="evenodd" clip-rule="evenodd" d="M46.543 15.576v-1.422a9.322 9.322 0 0 1-4.949-1.413 9.348 9.348 0 0 0 4.949 2.835Zm-9.218-9.149a9.482 9.482 0 0 1-.102-.768V4.8h-6.727v26.698a5.653 5.653 0 0 1-8.198 5.03 5.654 5.654 0 0 0 10.156-3.402V6.426h4.871ZM26.558 20.773v-1.515a12.465 12.465 0 0 0-1.696-.115c-6.828 0-12.362 5.531-12.362 12.354a12.34 12.34 0 0 0 5.48 10.266 12.31 12.31 0 0 1-3.523-8.639c0-6.736 5.394-12.213 12.101-12.352Z" fill="#69C9D0"/>
        <path fill-rule="evenodd" clip-rule="evenodd" d="M37.677 55.2c1.826 0 3.306-1.469 3.306-3.28 0-1.81-1.48-3.278-3.306-3.278h-.045c-1.826 0-3.306 1.468-3.306 3.279 0 1.81 1.48 3.279 3.306 3.279h.045Zm-1.63-3.28c0-.88.72-1.594 1.608-1.594a1.6 1.6 0 0 1 1.607 1.595c0 .88-.72 1.595-1.607 1.595a1.602 1.602 0 0 1-1.608-1.595Z" fill="#fff"/>
    </g>
    <defs>
        <clipPath id="bha">
            <rect x=".5" width="60" height="60" rx="10" fill="#fff"/>
        </clipPath>
    </defs>
</svg><svg fill="none" viewBox="0 0 41 26" id="vk" xmlns="http://www.w3.org/2000/svg">
    <path d="M22.425 25.226C8.75 25.226.95 15.851.625.251h6.85c.225 11.45 5.275 16.3 9.275 17.3V.251h6.45v9.875c3.95-.425 8.1-4.925 9.5-9.875h6.45c-1.075 6.1-5.575 10.6-8.775 12.45 3.2 1.5 8.325 5.425 10.275 12.525h-7.1c-1.525-4.75-5.325-8.425-10.35-8.925v8.925h-.775Z" fill="#fff"/>
</svg><svg viewBox="0 0 497 497" id="website" xmlns="http://www.w3.org/2000/svg">
    <path d="M497 128.5v312c0 11.046-8.954 20-20 20H20c-11.046 0-20-8.954-20-20v-312z" fill="#faf8f8"/>
    <path d="M290.498 294.5c0-23.196-18.804-42-42-42a41.823 41.823 0 0 0-19.482 4.782c-13.386 7.021-19.327 21.053-19.327 37.218 0 23.196 15.613 36.457 38.809 36.457 16.214 0 30.282-3.645 37.282-17.099a41.814 41.814 0 0 0 4.718-19.358z" fill="#dc4955"/>
    <path d="M286.468 312.47c-6.73 14.21-21.2 24.03-37.97 24.03-23.2 0-42-18.8-42-42 0-16.77 9.82-31.24 24.03-37.97-2.59 5.45-4.03 11.54-4.03 17.97 0 23.2 18.8 42 42 42 6.43 0 12.52-1.44 17.97-4.03z" fill="#d82f3c"/>
    <path d="M429.496 294.5c0-23.196-18.804-42-42-42a41.823 41.823 0 0 0-19.482 4.782c-13.386 7.021-19.327 21.053-19.327 37.218 0 23.196 15.613 36.457 38.809 36.457 16.214 0 30.282-3.645 37.282-17.099a41.814 41.814 0 0 0 4.718-19.358z" fill="#b7e546"/>
    <path d="M425.466 312.47c-6.73 14.21-21.2 24.03-37.97 24.03-23.2 0-42-18.8-42-42 0-16.77 9.82-31.24 24.03-37.97-2.59 5.45-4.03 11.54-4.03 17.97 0 23.2 18.8 42 42 42 6.43 0 12.52-1.44 17.97-4.03z" fill="#abd641"/>
    <path d="M497 148.5v-20l-276.011-12.798L0 128.5v312c0 11.046 8.954 20 20 20h15c-8.28 0-15-6.72-15-15v-291a6 6 0 0 1 6-6z" fill="#f0e9e6"/>
    <path d="M497 56.5V129H0V56.5c0-11.046 8.954-20 20-20h457c11.046 0 20 8.954 20 20z" fill="#5d748a"/>
    <g fill="#3f597d">
        <path d="M227.758 108.5c-8.255 0-14.947-6.716-14.947-15s6.692-15 14.947-15h208.315c8.255 0 14.947 6.716 14.947 15s-6.692 15-14.947 15z"/>
        <ellipse cx="160.869" cy="93.5" rx="14.947" ry="15"/>
        <path d="m171.361 104.184 12.874-12.869-13.139 1.179zM150.592 82.608l12.562-12.516-2.693 10.408z"/>
        <ellipse cx="98.034" cy="93.5" rx="14.947" ry="15"/>
        <path d="m108.553 104.157 12.382-12.499-12.674.836zM87.757 82.608l12.371-12.459L97.626 80.5z"/>
        <ellipse cx="32.947" cy="93.5" rx="14.947" ry="15"/>
        <path d="M43.769 103.846 56.49 90.66l-13.139 1.381zM22.67 82.608 34.292 70.57l-1.753 9.93z"/>
    </g>
    <ellipse cx="173.849" cy="80.5" fill="#b7e546" rx="14.947" ry="15"/>
    <path d="m217.514 82.577 12.971-12.991-3.025 14.276zM446.83 103.915l13.149-13.179-10.185 3.381z" fill="#3f597d"/>
    <ellipse cx="110.946" cy="80.5" fill="#ffbf54" rx="14.947" ry="15"/>
    <ellipse cx="45.495" cy="80.5" fill="#dc4955" rx="14.947" ry="15"/>
    <path d="M240.737 95.5c-8.255 0-14.947-6.716-14.947-15s6.692-15 14.947-15h208.315c8.255 0 14.947 6.716 14.947 15s-6.692 15-14.947 15z" fill="#faf8f8"/>
    <path d="m135.893 215 226.628 2c5.523 0 10-4.477 10-10l3.479-7v-30c0-5.523-4.477-10-10-10H142l-6.107 5c-5.523 0-10 4.477-10 10v30c0 5.523 4.477 10 10 10z" fill="#aad8de"/>
    <path d="M376 200v10c0 5.523-4.477 10-10 10H132c-5.523 0-10-4.477-10-10v-40c0-5.523 4.477-10 10-10h10v33a7 7 0 0 0 7 7z" fill="#94ccd4"/>
    <path d="M151.5 294.5c0-23.196-18.804-42-42-42a41.823 41.823 0 0 0-19.482 4.782c-13.386 7.021-19.327 21.053-19.327 37.218 0 23.196 15.613 36.457 38.809 36.457 16.214 0 30.282-3.645 37.282-17.099A41.814 41.814 0 0 0 151.5 294.5z" fill="#ffbf54"/>
    <path d="M147.47 312.47c-6.73 14.21-21.2 24.03-37.97 24.03-23.2 0-42-18.8-42-42 0-16.77 9.82-31.24 24.03-37.97-2.59 5.45-4.03 11.54-4.03 17.97 0 23.2 18.8 42 42 42 6.43 0 12.52-1.44 17.97-4.03z" fill="#ffa442"/>
    <path d="M149.5 374h-70a7.5 7.5 0 0 1 0-15h70a7.5 7.5 0 0 1 0 15zM149.5 404h-80a7.5 7.5 0 0 1 0-15h80a7.5 7.5 0 0 1 0 15zM149.5 434h-80a7.5 7.5 0 0 1 0-15h80a7.5 7.5 0 0 1 0 15zM288.5 374h-70a7.5 7.5 0 0 1 0-15h70c4.143 0 7.5 3.358 7.5 7.5s-3.357 7.5-7.5 7.5zM288.5 404h-80a7.5 7.5 0 0 1 0-15h80c4.143 0 7.5 3.358 7.5 7.5s-3.357 7.5-7.5 7.5zM288.5 434h-80a7.5 7.5 0 0 1 0-15h80c4.143 0 7.5 3.358 7.5 7.5s-3.357 7.5-7.5 7.5zM427.5 374h-70c-4.143 0-7.5-3.358-7.5-7.5s3.357-7.5 7.5-7.5h70c4.143 0 7.5 3.358 7.5 7.5s-3.357 7.5-7.5 7.5zM427.5 404h-80c-4.143 0-7.5-3.358-7.5-7.5s3.357-7.5 7.5-7.5h80c4.143 0 7.5 3.358 7.5 7.5s-3.357 7.5-7.5 7.5zM427.5 434h-80c-4.143 0-7.5-3.358-7.5-7.5s3.357-7.5 7.5-7.5h80c4.143 0 7.5 3.358 7.5 7.5s-3.357 7.5-7.5 7.5z" fill="#f0e9e6"/>
</svg><svg fill="none" viewBox="0 0 61 60" id="whatsapp" xmlns="http://www.w3.org/2000/svg">
    <g clip-path="url(#bka)">
        <path d="M60.482 0H.518A.018.018 0 0 0 .5.018v59.964c0 .01.008.018.018.018h59.964c.01 0 .018-.008.018-.018V.018A.018.018 0 0 0 60.482 0Z" fill="#25D366"/>
        <path fill-rule="evenodd" clip-rule="evenodd" d="M30.679 15.173a14.612 14.612 0 0 0-12.807 22.429l.342.54-1.23 5.71 5.623-1.582.56.308a14.612 14.612 0 1 0 7.512-27.405Zm-11.762.937a17.732 17.732 0 1 1 3.32 29.505l-9.393 2.642 2.055-9.54a17.733 17.733 0 0 1 4.018-22.607Z" fill="#fff"/>
        <path d="M36.594 31.992c-.352-.234-.703-.352-1.055.117l-1.406 1.875c-.352.235-.586.352-1.055.117-1.758-.937-4.219-1.992-6.328-5.507-.117-.47.117-.704.352-.938l1.054-1.64c.235-.235.117-.47 0-.704l-1.406-3.398c-.352-.938-.703-.82-1.055-.82h-.937c-.235 0-.703.117-1.172.585-2.578 2.579-1.523 6.211.352 8.555.351.469 2.695 4.688 7.734 6.914 3.75 1.64 4.57 1.406 5.625 1.172 1.289-.117 2.578-1.172 3.164-2.226.117-.352.703-1.875.234-2.11" fill="#fff"/>
    </g>
    <defs>
        <clipPath id="bka">
            <rect x=".5" width="60" height="60" rx="10" fill="#fff"/>
        </clipPath>
    </defs>
</svg><svg fill="none" viewBox="0 0 61 60" id="ydzen" xmlns="http://www.w3.org/2000/svg">
    <g clip-path="url(#bla)">
        <path d="M60.482 0H.518A.018.018 0 0 0 .5.018v59.964c0 .01.008.018.018.018h59.964c.01 0 .018-.008.018-.018V.018A.018.018 0 0 0 60.482 0Z" fill="#2C3036"/>
        <path d="M60.5 30.321v-.642c-13.286-.429-19.35-.75-24.214-5.465C31.57 19.35 31.229 13.286 30.82 0h-.642c-.429 13.286-.75 19.35-5.465 24.214C19.85 28.93 13.786 29.271.5 29.68v.642c13.286.429 19.35.75 24.214 5.465C29.43 40.65 29.771 46.714 30.18 60h.642c.429-13.286.75-19.35 5.465-24.214C41.15 31.07 47.214 30.729 60.5 30.32Z" fill="#fff"/>
    </g>
    <defs>
        <clipPath id="bla">
            <rect x=".5" width="60" height="60" rx="10" fill="#fff"/>
        </clipPath>
    </defs>
</svg><svg fill="none" viewBox="0 0 61 60" id="youtube" xmlns="http://www.w3.org/2000/svg">
    <g clip-path="url(#bma)">
        <path d="M60.482 0H.518A.018.018 0 0 0 .5.018v59.964c0 .01.008.018.018.018h59.964c.01 0 .018-.008.018-.018V.018A.018.018 0 0 0 60.482 0Z" fill="#ED1D24"/>
        <path d="M50.539 19.804c-.469-1.757-1.992-3.164-3.75-3.632-3.984-1.055-28.008-1.172-32.578 0-1.758.468-3.281 1.875-3.75 3.632-1.055 4.453-1.172 15.82 0 20.39.469 1.759 1.992 3.165 3.75 3.634C18.43 45 42.453 45 46.789 43.828c1.758-.469 3.281-1.875 3.75-3.633 1.055-4.219 1.055-16.055 0-20.39Z" fill="#fff"/>
        <path d="M26.281 23.79v12.42L37.18 30" fill="#ED1D24"/>
    </g>
    <defs>
        <clipPath id="bma">
            <rect x=".5" width="60" height="60" rx="10" fill="#fff"/>
        </clipPath>
    </defs>
</svg></svg>