<svg width="50" height="50" viewBox="0 0 50 50" fill="none" xmlns="http://www.w3.org/2000/svg">
<path d="M12.461 31.97L24 48.317V49H26V48.317L37.539 31.97C43.905 31.662 49 25.971 49 19C49 11.832 43.617 6 37 6C36.224 6 35.433 6.116 34.64 6.292C32.452 3.09 28.951 1 25 1C21.049 1 17.547 3.089 15.36 6.292C14.568 6.117 13.777 6 13 6C6.383 6 1 11.832 1 19C1 25.971 6.095 31.662 12.461 31.97ZM14.813 31.835C17.92 31.322 20.709 29.506 22.607 26.739C23.062 26.839 23.528 26.902 23.999 26.945V44.849L14.813 31.835ZM26 26.945C26.472 26.903 26.938 26.839 27.392 26.739C29.29 29.505 32.079 31.322 35.186 31.835L26 44.849V26.945ZM35.691 8.101C36.132 8.034 36.569 8 37 8C42.514 8 47 12.935 47 19C47 25.065 42.514 30 37 30C34.036 30 31.259 28.562 29.367 26.098C29.376 26.094 29.385 26.089 29.394 26.085C29.619 25.989 29.838 25.884 30.056 25.773C30.157 25.722 30.257 25.67 30.357 25.616C30.548 25.512 30.738 25.406 30.924 25.292C31.054 25.212 31.179 25.125 31.305 25.041C31.515 24.899 31.723 24.755 31.924 24.6C32.129 24.443 32.332 24.281 32.527 24.111C32.643 24.009 32.754 23.901 32.867 23.794C33.018 23.652 33.167 23.507 33.311 23.357C33.42 23.243 33.527 23.127 33.633 23.009C33.777 22.847 33.915 22.681 34.05 22.512C34.142 22.398 34.235 22.287 34.323 22.169C34.525 21.899 34.718 21.621 34.9 21.334C34.976 21.214 35.044 21.087 35.117 20.964C35.229 20.773 35.34 20.581 35.443 20.383C35.521 20.234 35.594 20.083 35.666 19.931C35.755 19.743 35.84 19.552 35.921 19.359C35.985 19.207 36.049 19.057 36.108 18.902C36.214 18.622 36.31 18.336 36.397 18.047C36.442 17.899 36.482 17.749 36.522 17.599C36.594 17.33 36.66 17.059 36.716 16.784C36.744 16.644 36.768 16.503 36.792 16.361C36.837 16.101 36.873 15.838 36.903 15.573C36.917 15.445 36.933 15.317 36.944 15.188C36.978 14.795 37 14.4 37 14C37 13.511 36.97 13.03 36.921 12.555C36.906 12.413 36.88 12.275 36.862 12.134C36.817 11.798 36.766 11.464 36.697 11.137C36.664 10.977 36.623 10.82 36.584 10.661C36.508 10.353 36.424 10.049 36.328 9.751C36.278 9.594 36.226 9.439 36.17 9.285C36.06 8.979 35.937 8.682 35.807 8.388C35.765 8.293 35.735 8.194 35.691 8.101ZM25 3C28.438 3 31.476 4.919 33.276 7.834L33.306 7.884C33.325 7.916 33.341 7.95 33.36 7.982C33.592 8.372 33.795 8.777 33.979 9.191C34.018 9.278 34.057 9.365 34.094 9.453C34.277 9.893 34.438 10.343 34.566 10.804C34.577 10.843 34.584 10.885 34.594 10.924C34.706 11.343 34.789 11.771 34.854 12.203C34.872 12.321 34.889 12.439 34.903 12.558C34.96 13.034 34.999 13.514 34.999 14C34.999 14.348 34.98 14.692 34.952 15.032C34.942 15.153 34.925 15.271 34.911 15.391C34.886 15.607 34.858 15.822 34.822 16.034C34.798 16.175 34.77 16.315 34.741 16.454C34.702 16.641 34.659 16.825 34.611 17.008C34.574 17.152 34.536 17.297 34.493 17.439C34.44 17.615 34.38 17.788 34.319 17.96C34.271 18.097 34.225 18.236 34.172 18.371C34.089 18.582 33.995 18.787 33.9 18.99C33.816 19.171 33.726 19.349 33.633 19.525C33.54 19.7 33.447 19.876 33.346 20.045C33.27 20.172 33.187 20.293 33.106 20.416C33.013 20.557 32.92 20.698 32.822 20.834C32.732 20.958 32.639 21.079 32.544 21.198C32.445 21.323 32.344 21.445 32.241 21.565C32.138 21.684 32.034 21.802 31.926 21.916C31.825 22.023 31.72 22.124 31.616 22.226C31.495 22.343 31.376 22.462 31.25 22.573C31.171 22.643 31.088 22.706 31.008 22.773C30.427 23.254 29.799 23.674 29.123 24.01C29.121 24.011 29.119 24.012 29.117 24.013C28.873 24.134 28.622 24.244 28.367 24.345C28.355 24.35 28.342 24.355 28.33 24.36C28.073 24.46 27.81 24.549 27.542 24.626C26.729 24.862 25.88 25 25 25C24.12 25 23.271 24.862 22.458 24.626C22.19 24.549 21.928 24.459 21.67 24.36C21.658 24.355 21.645 24.35 21.633 24.345C21.378 24.245 21.127 24.135 20.883 24.013C20.881 24.012 20.879 24.011 20.877 24.01C20.201 23.674 19.573 23.254 18.992 22.773C18.911 22.706 18.828 22.643 18.75 22.573C18.624 22.462 18.505 22.344 18.384 22.226C18.279 22.124 18.175 22.023 18.074 21.916C17.966 21.802 17.862 21.684 17.759 21.565C17.655 21.445 17.554 21.323 17.456 21.198C17.361 21.078 17.268 20.958 17.178 20.834C17.08 20.698 16.986 20.557 16.894 20.416C16.813 20.293 16.73 20.171 16.654 20.045C16.552 19.876 16.46 19.7 16.367 19.525C16.274 19.349 16.184 19.172 16.1 18.99C16.005 18.786 15.912 18.581 15.828 18.371C15.775 18.236 15.729 18.097 15.681 17.96C15.62 17.788 15.56 17.615 15.507 17.439C15.464 17.297 15.427 17.153 15.389 17.008C15.342 16.825 15.298 16.641 15.259 16.454C15.23 16.315 15.202 16.175 15.178 16.034C15.142 15.822 15.113 15.607 15.089 15.391C15.075 15.271 15.058 15.153 15.048 15.032C15.019 14.692 15.001 14.349 15.001 14C15.001 13.514 15.04 13.034 15.097 12.558C15.111 12.439 15.129 12.322 15.146 12.205C15.211 11.773 15.295 11.344 15.406 10.925C15.416 10.886 15.423 10.844 15.434 10.805C15.562 10.344 15.723 9.894 15.906 9.453C15.942 9.365 15.982 9.279 16.021 9.192C16.205 8.778 16.408 8.372 16.641 7.982C16.66 7.95 16.676 7.916 16.695 7.884L16.725 7.834C18.524 4.919 21.562 3 25 3ZM13 8C13.431 8 13.868 8.034 14.309 8.101C14.265 8.194 14.235 8.293 14.193 8.387C14.062 8.681 13.94 8.979 13.83 9.284C13.774 9.439 13.722 9.594 13.672 9.75C13.576 10.049 13.492 10.352 13.416 10.66C13.377 10.818 13.336 10.976 13.303 11.136C13.235 11.464 13.183 11.797 13.138 12.133C13.119 12.274 13.093 12.412 13.079 12.554C13.03 13.03 13 13.511 13 14C13 14.4 13.022 14.795 13.056 15.188C13.067 15.317 13.083 15.445 13.097 15.573C13.127 15.838 13.164 16.1 13.208 16.361C13.232 16.502 13.255 16.644 13.284 16.784C13.34 17.059 13.406 17.33 13.478 17.599C13.518 17.749 13.558 17.899 13.603 18.047C13.691 18.336 13.787 18.622 13.892 18.902C13.95 19.057 14.015 19.207 14.079 19.359C14.16 19.552 14.244 19.743 14.334 19.931C14.406 20.083 14.48 20.234 14.557 20.383C14.66 20.58 14.771 20.773 14.883 20.964C14.956 21.087 15.024 21.214 15.1 21.334C15.282 21.621 15.475 21.899 15.677 22.169C15.765 22.286 15.859 22.398 15.95 22.512C16.086 22.681 16.224 22.848 16.367 23.009C16.472 23.127 16.579 23.243 16.689 23.357C16.833 23.507 16.982 23.652 17.133 23.794C17.246 23.901 17.356 24.009 17.473 24.111C17.668 24.282 17.871 24.443 18.076 24.6C18.277 24.755 18.485 24.9 18.695 25.041C18.822 25.126 18.947 25.212 19.076 25.292C19.261 25.407 19.451 25.512 19.643 25.616C19.743 25.67 19.843 25.722 19.944 25.773C20.162 25.883 20.381 25.989 20.606 26.085C20.615 26.089 20.624 26.094 20.633 26.098C18.741 28.562 15.965 30 13 30C7.486 30 3 25.065 3 19C3 12.935 7.486 8 13 8Z" fill="black"/>
</svg>
