<svg width="50" height="32" viewBox="0 0 50 32" fill="none" xmlns="http://www.w3.org/2000/svg">
<path d="M50 22.5009C50 21.1957 49.6934 19.9088 49.105 18.7438C48.5165 17.5788 47.6627 16.5684 46.6122 15.7938C45.5617 15.0192 44.344 14.5023 43.0571 14.2845C41.7702 14.0667 40.4502 14.1543 39.2034 14.5401L38.3409 12.5009H40.8334C41.0544 12.5009 41.2663 12.413 41.4225 12.2568C42.0201 11.6581 42.3556 10.8468 42.3556 10.0009C42.3556 9.15509 42.0201 8.34379 41.4225 7.74511C41.2663 7.58882 41.0544 7.50099 40.8334 7.50094H36.6667C36.5279 7.50395 36.3921 7.5427 36.2726 7.61344L33.2676 0.509307C33.2037 0.358554 33.0969 0.229948 32.9604 0.139545C32.8239 0.0491415 32.6638 0.000946267 32.5001 0.000976577H26.6668V1.66764H31.9476L33.2242 4.68429C32.4361 4.38592 31.5858 4.28965 30.7509 4.40429C28.7658 4.70384 26.8111 5.1779 24.9093 5.82095C24.4576 5.96095 23.9821 6.10678 23.4826 6.25845L19.0526 7.50094H7.53602C6.80984 7.50041 6.09026 7.63873 5.41602 7.90844L4.45519 8.29261C4.1138 8.4292 3.82116 8.66496 3.61502 8.96945C3.40889 9.27395 3.29872 9.63323 3.29872 10.0009C3.29872 10.3686 3.40889 10.7279 3.61502 11.0324C3.82116 11.3369 4.1138 11.5727 4.45519 11.7093L5.41519 12.0934C6.08968 12.3632 6.80956 12.5016 7.53602 12.5009H14.4585L15.5243 14.8984L13.9252 16.3401C13.0413 15.5354 11.9945 14.9305 10.856 14.5666C9.71748 14.2027 8.51393 14.0883 7.32722 14.2311C6.14052 14.3739 4.9985 14.7707 3.97884 15.3944C2.95919 16.018 2.08582 16.854 1.41815 17.8454C0.750476 18.8368 0.304166 19.9604 0.109576 21.1397C-0.0850141 22.319 -0.0233191 23.5264 0.290464 24.6798C0.604248 25.8331 1.16276 26.9054 1.928 27.8236C2.69325 28.7418 3.64728 29.4844 4.72519 30.0008H0.000213655V31.6675H50V30.0008H45.275C46.6884 29.3219 47.8816 28.2579 48.7174 26.9312C49.5533 25.6045 49.9978 24.0689 50 22.5009ZM37.5001 9.1676H40.4425C40.6037 9.41568 40.6894 9.70514 40.6894 10.0009C40.6894 10.2967 40.6037 10.5862 40.4425 10.8343H37.6359L37.5001 10.5134V9.1676ZM35.8259 10.8343H35.6809C35.7117 10.7926 35.7451 10.7509 35.7742 10.7118L35.8259 10.8343ZM23.9468 7.86094C24.4668 7.70428 24.9468 7.55594 25.4018 7.41428C27.2188 6.79625 29.0873 6.34139 30.9851 6.05512C31.8148 5.93736 32.6589 6.12865 33.3567 6.59262C33.9484 6.98888 34.392 7.56998 34.6184 8.24511C34.7004 8.49406 34.7249 8.75836 34.6902 9.01816C34.6554 9.27795 34.5622 9.52649 34.4176 9.7451C34.1949 10.0802 33.8928 10.355 33.5382 10.545C33.1835 10.7351 32.7874 10.8344 32.3851 10.8343H20.0001V8.96677L23.9468 7.86094ZM6.03519 10.5451L5.07519 10.1609C5.04295 10.1484 5.01525 10.1264 4.99571 10.0979C4.97618 10.0693 4.96573 10.0355 4.96573 10.0009C4.96573 9.96634 4.97618 9.93256 4.99571 9.90401C5.01525 9.87545 5.04295 9.85347 5.07519 9.84094L6.03519 9.45677C6.51202 9.26509 7.02127 9.16692 7.53518 9.1676H18.3335V10.8343H7.53602C7.02182 10.8351 6.51228 10.7369 6.03519 10.5451ZM19.1668 12.5009H36.5309L36.5926 12.6451L36.8834 13.3343H34.1667C33.9918 13.3342 33.8212 13.3892 33.6793 13.4916C33.5373 13.5939 33.4312 13.7382 33.3759 13.9043L29.3993 25.8342H22.2085L16.2826 12.5009H19.1668ZM12.2402 21.0992C12.1514 20.8559 12.0398 20.6215 11.9068 20.3992L13.7968 18.6959C14.2295 19.317 14.5528 20.0075 14.7527 20.7376L12.2402 21.0992ZM7.57851 22.8542C7.6457 22.9977 7.75241 23.1191 7.88614 23.2041C8.01986 23.2891 8.17505 23.3343 8.33351 23.3342C8.37311 23.3343 8.41265 23.3315 8.45184 23.3259L10.7852 22.9925C10.6921 23.4567 10.4691 23.8848 10.1422 24.2272C9.81534 24.5696 9.39797 24.8122 8.93864 24.9266C8.47932 25.0411 7.99694 25.0229 7.54759 24.874C7.09825 24.7251 6.70041 24.4516 6.40037 24.0855C6.10032 23.7194 5.91039 23.2756 5.85267 22.8057C5.79495 22.3359 5.87181 21.8593 6.07431 21.4314C6.27681 21.0035 6.59664 20.642 6.99658 20.3887C7.39652 20.1355 7.86014 20.001 8.33351 20.0009C8.74787 20.0038 9.15482 20.111 9.51684 20.3126L7.77601 21.8817C7.64319 22.0012 7.55229 22.1603 7.51673 22.3354C7.48117 22.5105 7.50283 22.6924 7.57851 22.8542ZM15.0418 17.5776L16.236 16.5009L17.9168 20.2842L16.4168 20.5001C16.1545 19.4452 15.6873 18.4522 15.0418 17.5776ZM1.66687 22.5009C1.66514 21.224 2.03064 19.9736 2.7198 18.8986C3.40896 17.8237 4.39271 16.9696 5.55377 16.4382C6.71482 15.9069 8.0042 15.7206 9.26818 15.9016C10.5322 16.0826 11.7174 16.6233 12.6827 17.4592L10.7968 19.1584C10.0859 18.6256 9.22195 18.3365 8.33351 18.3342C7.51934 18.3308 6.72201 18.566 6.04003 19.0107C5.35805 19.4555 4.82131 20.0903 4.49613 20.8367C4.17095 21.5831 4.07158 22.4085 4.21029 23.2107C4.349 24.013 4.71973 24.7571 5.27665 25.351C5.83358 25.9449 6.5523 26.3626 7.34402 26.5525C8.13573 26.7425 8.96574 26.6963 9.7315 26.4197C10.4973 26.1431 11.1652 25.6482 11.6528 24.9962C12.1404 24.3442 12.4263 23.5636 12.4752 22.7509L14.9943 22.39C14.9943 22.4284 15.0001 22.465 15.0001 22.5034C14.9998 24.2715 14.2971 25.967 13.0467 27.217C11.7962 28.467 10.1004 29.1691 8.33226 29.1688C6.56416 29.1684 4.86861 28.4657 3.6186 27.2153C2.3686 25.9648 1.66654 24.269 1.66687 22.5009ZM11.9418 30.0008C13.3552 29.3219 14.5484 28.2579 15.3843 26.9312C16.2201 25.6045 16.6646 24.0689 16.6668 22.5009C16.6668 22.3825 16.6543 22.2675 16.6493 22.15L18.6218 21.8667L20.9051 27.0059C20.9706 27.1532 21.0774 27.2784 21.2126 27.3663C21.3478 27.4541 21.5056 27.5009 21.6668 27.5009H30.0001C30.1751 27.5009 30.3456 27.4459 30.4875 27.3436C30.6295 27.2413 30.7356 27.0969 30.7909 26.9309L34.7676 15.0009H37.5892L37.6726 15.1917C36.3274 15.925 35.2109 17.0154 34.4459 18.3427C33.6809 19.67 33.2972 21.1828 33.3371 22.7143C33.377 24.2458 33.839 25.7365 34.672 27.0222C35.5051 28.3079 36.6769 29.3386 38.0584 30.0008H11.9418ZM41.6667 29.1675C40.2003 29.169 38.7744 28.6865 37.6102 27.795C36.4459 26.9034 35.6085 25.6525 35.2277 24.2364C34.8469 22.8203 34.944 21.3182 35.5041 19.9629C36.0641 18.6077 37.0557 17.4751 38.3251 16.7409L39.31 19.0742C38.4612 19.6597 37.8599 20.5395 37.6228 21.5431C37.3857 22.5467 37.5296 23.6026 38.0267 24.5061C38.5237 25.4096 39.3386 26.0963 40.3132 26.4333C41.2878 26.7702 42.3528 26.7333 43.3017 26.3297C44.2507 25.9261 45.016 25.1846 45.4493 24.2488C45.8826 23.3131 45.9531 22.2498 45.6471 21.265C45.3411 20.2802 44.6803 19.4442 43.7929 18.9189C42.9056 18.3935 41.8548 18.2164 40.8442 18.4217L39.8592 16.0942C40.7776 15.83 41.742 15.7663 42.6872 15.9075C43.6323 16.0486 44.5361 16.3913 45.3372 16.9123C46.1383 17.4333 46.818 18.1205 47.3303 18.9272C47.8426 19.7339 48.1755 20.6413 48.3063 21.5879C48.4372 22.5346 48.3631 23.4983 48.0889 24.4137C47.8147 25.3292 47.3469 26.175 46.7172 26.8938C46.0875 27.6126 45.3107 28.1877 44.4393 28.58C43.5679 28.9723 42.6223 29.1727 41.6667 29.1675ZM40.8992 22.8259L42.4342 22.1759L41.5175 20.0159C41.5667 20.0159 41.6142 20.0009 41.6642 20.0009C42.2534 19.9946 42.8262 20.1947 43.2832 20.5666C43.7402 20.9385 44.0527 21.4586 44.1663 22.0368C44.2799 22.6149 44.1876 23.2146 43.9053 23.7318C43.623 24.249 43.1685 24.651 42.6208 24.8682C42.073 25.0853 41.4666 25.1039 40.9066 24.9206C40.3466 24.7373 39.8684 24.3638 39.555 23.8648C39.2417 23.3659 39.1128 22.773 39.1909 22.1889C39.269 21.6049 39.5491 21.0667 39.9825 20.6676L40.8992 22.8259Z" fill="#CE2127"/>
</svg>
