<svg width="50" height="50" viewBox="0 0 50 50" fill="none" xmlns="http://www.w3.org/2000/svg">
<path fill-rule="evenodd" clip-rule="evenodd" d="M22.6098 9.5759L21.0843 10.234C20.0327 7.77314 18.4046 5.60136 16.3375 3.90182C15.1387 2.92798 13.8077 2.12954 12.3841 1.53048L13.0305 0C14.5992 0.659919 16.0658 1.54009 17.386 2.61395C19.661 4.48159 21.4527 6.86955 22.6098 9.5759ZM29.2577 10.2339C30.3086 7.77295 31.9368 5.60128 34.0045 3.9026C35.2025 2.92831 36.5334 2.12983 37.957 1.53126L37.3106 0.000778952C35.7417 0.660374 34.2751 1.54058 32.9551 2.61473C30.6798 4.4826 28.8878 6.87086 27.7305 9.57754L29.2577 10.2339ZM34.9118 8.81314C36.4938 7.14547 38.3815 5.7972 40.4721 4.8415C43.2098 3.5995 46.2125 3.0543 49.2121 3.25452L49.3201 1.59276C46.0458 1.37646 42.7688 1.97301 39.7808 3.3293C37.498 4.37381 35.4368 5.84641 33.7087 7.66735L34.9118 8.81314ZM23.1773 13.1606C23.1744 13.2847 23.1427 13.4063 23.0849 13.516L6.86602 45.2141L6.24286 47.5323L9.45841 48.3964L9.02635 50L1 47.848L1.43206 46.2444L4.63926 47.1085L5.26242 44.7821L7.06547 9.22864C7.07361 9.10508 7.10826 8.98477 7.16709 8.87584C7.22583 8.76692 7.30734 8.67186 7.40613 8.59717C7.50633 8.52355 7.62183 8.47336 7.74413 8.45035C7.86636 8.42742 7.99215 8.43207 8.11238 8.46423L22.5614 12.3361C22.6807 12.3679 22.7912 12.4262 22.8848 12.5068C22.9783 12.5874 23.0524 12.6881 23.1015 12.8014C23.1542 12.9137 23.1802 13.0367 23.1773 13.1606ZM21.1406 13.6739L8.67738 10.3337L8.07084 22.2319C8.47938 22.1878 8.89133 22.185 9.30054 22.2236C9.96392 22.3212 10.6413 22.217 11.2448 21.9245C11.8616 21.6683 12.386 21.2307 12.7487 20.6699C13.2856 19.8864 14.0351 19.2724 14.909 18.9001C15.764 18.4909 16.7191 18.3379 17.6592 18.4597C18.0014 18.5027 18.3479 18.4999 18.6895 18.4514L21.1406 13.6739ZM9.1676 23.8771C8.77434 23.8333 8.37685 23.8473 7.98775 23.9186L7.11532 41.0846L17.8337 20.1381L17.8105 20.1363H17.8105H17.8104H17.8104C17.7113 20.1287 17.6188 20.1215 17.5263 20.1215C16.8664 20.02 16.1912 20.1214 15.5903 20.4123C14.9707 20.6716 14.4437 21.1118 14.0781 21.6752C13.5438 22.4559 12.797 23.0672 11.9261 23.4367C11.0696 23.8507 10.1103 24.0038 9.1676 23.8771ZM45.7014 47.1085L48.9086 46.2444L49.3407 47.848L41.3143 50L40.8823 48.3964L44.0978 47.5323L43.4746 45.2141L27.2558 13.516C27.2001 13.4056 27.1697 13.2842 27.1668 13.1606C27.1639 13.037 27.1886 12.9143 27.2392 12.8014C27.2882 12.6881 27.3623 12.5874 27.4559 12.5068C27.5494 12.4262 27.66 12.3679 27.7793 12.3361L42.2283 8.46423C42.3485 8.43207 42.4743 8.42742 42.5966 8.45035C42.7188 8.47336 42.8343 8.52355 42.9346 8.59717C43.0334 8.67186 43.1149 8.76692 43.1736 8.87584C43.2324 8.98477 43.2671 9.10508 43.2752 9.22864L45.0782 44.7821L45.7014 47.1085ZM29.2084 13.6739L31.6512 18.4514C31.9928 18.4999 32.3392 18.5027 32.6815 18.4597C33.6215 18.3379 34.5767 18.4909 35.4317 18.9001C36.3055 19.2724 37.055 19.8864 37.592 20.6699C37.9547 21.2307 38.4791 21.6683 39.0959 21.9245C39.6993 22.217 40.3768 22.3212 41.0402 22.2236C41.4493 22.185 41.8613 22.1878 42.2699 22.2319L41.6633 10.3337L29.2084 13.6739ZM32.5302 20.1363L32.507 20.1381L43.2254 41.0846L42.3529 23.9186C41.961 23.8472 41.5608 23.8332 41.1648 23.8771C40.2247 24.0032 39.2683 23.8501 38.4146 23.4367C37.5436 23.0672 36.7968 22.4559 36.2626 21.6752C35.897 21.1118 35.37 20.6716 34.7504 20.4123C34.1495 20.1214 33.4743 20.02 32.8144 20.1215C32.7219 20.1215 32.6294 20.1287 32.5303 20.1363H32.5302H32.5302H32.5302ZM15.4296 8.81313C13.8476 7.14555 11.96 5.79725 9.86931 4.84155C7.1313 3.60037 4.12891 3.05522 1.12931 3.25457L1.02129 1.59281C4.2956 1.37637 7.57267 1.97293 10.5606 3.32935C12.8435 4.37364 14.9048 5.84627 16.6327 7.66735L15.4296 8.81313Z" fill="#CE2127"/>
</svg>
