<svg width="210" height="196" viewBox="0 0 210 196" fill="none" xmlns="http://www.w3.org/2000/svg">
<path d="M95.8203 43.5547C107.828 43.5547 117.598 33.7854 117.598 21.7773C117.598 9.76932 107.828 0 95.8203 0C83.8123 0 74.043 9.76932 74.043 21.7773C74.043 33.7854 83.8123 43.5547 95.8203 43.5547ZM95.8203 8.71094C103.025 8.71094 108.887 14.5725 108.887 21.7773C108.887 28.9822 103.025 34.8438 95.8203 34.8438C88.6155 34.8438 82.7539 28.9822 82.7539 21.7773C82.7539 14.5725 88.6155 8.71094 95.8203 8.71094Z" fill="#CE2127"/>
<path d="M56.6211 56.6211C66.2275 56.6211 74.043 48.8056 74.043 39.1992C74.043 29.5928 66.2275 21.7773 56.6211 21.7773C47.0147 21.7773 39.1992 29.5928 39.1992 39.1992C39.1992 48.8056 47.0147 56.6211 56.6211 56.6211ZM56.6211 30.4883C61.4243 30.4883 65.332 34.396 65.332 39.1992C65.332 44.0024 61.4243 47.9102 56.6211 47.9102C51.8179 47.9102 47.9102 44.0024 47.9102 39.1992C47.9102 34.396 51.8179 30.4883 56.6211 30.4883Z" fill="#CE2127"/>
<path d="M21.3418 74.043C30.7082 74.043 38.3281 66.4231 38.3281 57.0566C38.3281 47.6902 30.7082 40.0703 21.3418 40.0703C11.9754 40.0703 4.35547 47.6902 4.35547 57.0566C4.35547 66.4231 11.9754 74.043 21.3418 74.043ZM21.3418 48.7812C25.905 48.7812 29.6172 52.4934 29.6172 57.0566C29.6172 61.6199 25.905 65.332 21.3418 65.332C16.7786 65.332 13.0664 61.6199 13.0664 57.0566C13.0664 52.4934 16.7786 48.7812 21.3418 48.7812Z" fill="#CE2127"/>
<path d="M204.707 56.6211H195.996V43.5547C195.996 41.1492 194.046 39.1992 191.641 39.1992H161.152V30.4883C161.152 28.0828 159.202 26.1328 156.797 26.1328C154.392 26.1328 152.441 28.0828 152.441 30.4883C152.441 40.6317 152.441 42.8578 152.441 52.2656H74.043C65.9401 52.2656 59.1116 57.8263 57.1725 65.332H47.9102C38.3037 65.332 30.4883 73.1475 30.4883 82.7539H21.7773C12.1709 82.7539 4.35547 90.5694 4.35547 100.176V152.441C4.35547 160.544 9.9161 167.373 17.4219 169.312C17.4219 173.508 17.4219 182.498 17.4219 187.285H4.35547C1.94994 187.285 0 189.236 0 191.641C0 194.046 1.94994 195.996 4.35547 195.996C16.3522 195.996 198.243 195.996 204.707 195.996C207.112 195.996 209.062 194.046 209.062 191.641C209.062 189.236 207.112 187.285 204.707 187.285H161.152V74.043H169.863V87.1094C169.863 89.5149 171.814 91.4648 174.219 91.4648H204.707C207.112 91.4648 209.062 89.5149 209.062 87.1094V60.9766C209.062 58.571 207.112 56.6211 204.707 56.6211ZM26.1328 113.242C26.1328 110.837 24.1829 108.887 21.7773 108.887C19.3718 108.887 17.4219 110.837 17.4219 113.242V159.974C14.8225 158.465 13.0664 155.657 13.0664 152.441V100.176C13.0664 95.3726 16.9741 91.4648 21.7773 91.4648H30.4883V135.02C30.4883 143.122 36.0489 149.951 43.5547 151.89V187.285H26.1328C26.1328 142.345 26.1328 155.517 26.1328 113.242ZM52.2656 104.531C52.2656 102.126 50.3157 100.176 47.9102 100.176C45.5046 100.176 43.5547 102.126 43.5547 104.531V142.552C40.9553 141.043 39.1992 138.236 39.1992 135.02V82.7539C39.1992 77.9507 43.1069 74.043 47.9102 74.043H56.6211V121.953C56.6211 130.056 62.1817 136.885 69.6875 138.824V187.285H52.2656C52.2656 185.691 52.2656 106.809 52.2656 104.531ZM100.176 187.285V135.02C100.176 132.614 98.2258 130.664 95.8203 130.664C93.4148 130.664 91.4648 132.614 91.4648 135.02V187.285H78.3984C78.3984 184.494 78.3984 81.3902 78.3984 78.3984C78.3984 75.9929 76.4485 74.043 74.043 74.043C71.6374 74.043 69.6875 75.9929 69.6875 78.3984V129.485C67.0882 127.976 65.332 125.169 65.332 121.953V69.6875C65.332 64.8843 69.2398 60.9766 74.043 60.9766H151.272C149.764 63.5785 146.948 65.332 143.73 65.332H117.598C115.193 65.332 113.242 67.282 113.242 69.6875V187.285H100.176ZM121.953 187.285V74.043H143.73C146.903 74.043 149.876 73.1867 152.441 71.6993V187.285H121.953ZM161.152 47.9102H187.285C187.285 53.2029 187.285 60.1503 187.285 65.332C184.124 65.332 164.335 65.332 161.152 65.332V47.9102ZM200.352 82.7539H178.574V74.043H191.641C194.046 74.043 195.996 72.093 195.996 69.6875V65.332H200.352V82.7539Z" fill="#CE2127"/>
</svg>
