<svg width="50" height="50" viewBox="0 0 50 50" fill="none" xmlns="http://www.w3.org/2000/svg">
<g clip-path="url(#clip0_423_4169)">
<path fill-rule="evenodd" clip-rule="evenodd" d="M21.6158 44.4577C21.5426 44.6574 21.396 44.8216 21.2057 44.9167L17.8699 46.5733C17.7555 46.6327 17.6288 46.6646 17.4999 46.6667H16.6666C16.1496 46.6673 15.6456 46.8278 15.2236 47.1262C14.8015 47.4246 14.4821 47.8462 14.3091 48.3333H21.6666V46.6667C21.6666 46.4457 21.7544 46.2337 21.9106 46.0774C22.0669 45.9212 22.2789 45.8333 22.4999 45.8333C22.7209 45.8333 22.9329 45.9212 23.0891 46.0774C23.2454 46.2337 23.3332 46.4457 23.3332 46.6667V49.1667C23.3332 49.3877 23.2454 49.5997 23.0891 49.7559C22.9329 49.9122 22.7209 50 22.4999 50H13.3332C13.1122 50 12.9002 49.9122 12.744 49.7559C12.5877 49.5997 12.4999 49.3877 12.4999 49.1667C12.5011 48.1884 12.8461 47.2417 13.4744 46.4918C14.1026 45.7419 14.9745 45.2367 15.9374 45.0642L12.8782 40.6933C12.2261 39.769 11.9082 38.6501 11.9771 37.5209C12.0461 36.3917 12.4976 35.3198 13.2574 34.4817L18.2916 28.8891L17.5416 22.1191L14.4966 19.835L14.4757 19.8191L9.25738 16.5575C8.25372 15.9287 7.4123 15.0722 6.80155 14.0575L3.66655 8.83329C3.29082 8.22079 3.17382 7.48404 3.34127 6.78521C3.50873 6.08643 3.94692 5.48277 4.55946 5.10704C5.17201 4.73132 5.90871 4.61432 6.60752 4.78177C6.95355 4.86468 7.2798 5.01494 7.5678 5.22396C7.85572 5.43297 8.09972 5.69666 8.28572 5.99996L11.4082 10.9966L12.6541 11.4966C12.7586 11.5351 12.8545 11.5941 12.9358 11.6703C13.0171 11.7464 13.0824 11.838 13.1277 11.9399C13.1731 12.0416 13.1975 12.1515 13.1996 12.2629C13.2017 12.3743 13.1815 12.485 13.1401 12.5885C13.0986 12.6919 13.0369 12.786 12.9585 12.8651C12.8801 12.9443 12.7866 13.007 12.6836 13.0494C12.5806 13.0918 12.4701 13.113 12.3586 13.112C12.2472 13.111 12.1371 13.0876 12.0349 13.0433L10.5349 12.4441C10.37 12.3787 10.2306 12.2618 10.1374 12.1108L6.87322 6.88913C6.72488 6.66398 6.49487 6.50524 6.23174 6.4464C5.96861 6.38756 5.69291 6.43321 5.46279 6.57373C5.23267 6.71421 5.06611 6.93863 4.99826 7.19963C4.9304 7.46054 4.96653 7.73763 5.09905 7.97246L8.23405 13.2008C8.70863 13.991 9.36338 14.6578 10.1449 15.1466L14.1774 17.6666V13.4658C14.152 13.3101 14.1713 13.1505 14.2331 13.0053C14.2948 12.8602 14.3965 12.7355 14.5263 12.646C14.6561 12.5563 14.8086 12.5054 14.9662 12.499C15.1238 12.4926 15.28 12.5311 15.4166 12.61L20.1999 15H21.2832C20.4575 14.086 20.0002 12.8983 19.9999 11.6666V9.34413C18.938 8.55821 18.1877 7.42263 17.8812 6.13754C17.5748 4.85249 17.732 3.5005 18.3249 2.31995L19.2541 0.460786C19.3036 0.361594 19.3725 0.273294 19.4566 0.201061C19.5408 0.128827 19.6385 0.0741105 19.7441 0.0401188C19.8496 0.0061271 19.9608 -0.00645625 20.0713 0.00310209C20.1818 0.0126604 20.2892 0.0441689 20.3874 0.0957856C22.3547 1.12551 24.5419 1.66443 26.7624 1.66662H27.9166C28.9446 1.66321 29.9437 2.00662 30.7523 2.64132C31.5609 3.27602 32.1319 4.16491 32.3728 5.16427C32.6137 6.16363 32.5106 7.21504 32.08 8.14846C31.6493 9.08196 30.9165 9.84288 29.9999 10.3083V11.6666C29.9994 12.3685 29.8507 13.0625 29.5634 13.703C29.2762 14.3434 28.857 14.916 28.3332 15.3833V16.6666C28.3332 17.5507 27.9821 18.3986 27.3569 19.0236C26.7318 19.6488 25.884 20 24.9999 20C24.1158 20 23.268 19.6488 22.6429 19.0236C22.0177 18.3986 21.6666 17.5507 21.6666 16.6666H19.9999C19.8701 16.6671 19.7419 16.6371 19.6257 16.5791L15.8424 14.6875V18.7583L18.8316 21C18.9226 21.0683 18.9988 21.1546 19.0553 21.2535C19.1117 21.3524 19.1474 21.4618 19.1599 21.575L19.9932 29.075C20.0061 29.1918 19.9941 29.3101 19.9581 29.422C19.9221 29.5338 19.8627 29.6368 19.7841 29.7241L14.4999 35.595C13.9936 36.154 13.6931 36.8687 13.6476 37.6215C13.6021 38.3742 13.8146 39.12 14.2499 39.7358L17.7699 44.7667L19.7549 43.7725L17.5649 38.6617C17.49 38.4869 17.4771 38.2917 17.5282 38.1087C17.5795 37.9256 17.6918 37.7655 17.8466 37.655L23.6799 33.4883C23.7826 33.4149 23.9007 33.3657 24.0252 33.3447C24.1497 33.3235 24.2774 33.331 24.3986 33.3665C24.5198 33.4019 24.6314 33.4645 24.7249 33.5494C24.8184 33.6343 24.8913 33.7394 24.9382 33.8567L27.2241 39.5708C27.4692 40.1908 27.8957 40.7224 28.4477 41.0963C28.9997 41.4702 29.6516 41.669 30.3182 41.6667H37.8182L36.9499 39.93L31.5482 39.1583C31.3294 39.1269 31.1321 39.0099 30.9996 38.833C30.867 38.6561 30.8102 38.4338 30.8416 38.215C30.873 37.9962 30.99 37.7988 31.1669 37.6663C31.3438 37.5337 31.5661 37.4769 31.7849 37.5083L37.3032 38.2967L39.5374 36.8067C39.6745 36.7156 39.8353 36.6669 39.9999 36.6667H42.4999C42.7209 36.6667 42.9329 36.7545 43.0892 36.9107C43.2454 37.067 43.3332 37.279 43.3332 37.5V46.6667C43.3332 46.8877 43.2454 47.0997 43.0892 47.2559C42.9329 47.4122 42.7209 47.5 42.4999 47.5C41.3952 47.4987 40.3362 47.0592 39.5551 46.2782C38.774 45.497 38.3346 44.438 38.3332 43.3333H30.3207C29.3211 43.3371 28.3435 43.0396 27.5154 42.4797C26.6873 41.9197 26.0471 41.1232 25.6782 40.1942L23.7874 35.4658L19.3632 38.6258L21.5991 43.8425C21.683 44.0379 21.689 44.258 21.6158 44.4577ZM26.1784 17.8451C26.491 17.5326 26.6666 17.1086 26.6666 16.6666V16.375C25.5895 16.7639 24.4103 16.7639 23.3332 16.375V16.6666C23.3332 17.1086 23.5088 17.5326 23.8214 17.8451C24.134 18.1577 24.5579 18.3333 24.9999 18.3333C25.4419 18.3333 25.8658 18.1577 26.1784 17.8451ZM27.3569 14.0236C27.9821 13.3985 28.3332 12.5507 28.3332 11.6666V8.32163C26.5732 8.24113 24.8603 7.72729 23.3466 6.82579L21.6666 7.94579V11.6666C21.6666 12.5507 22.0177 13.3985 22.6429 14.0236C23.268 14.6488 24.1158 15 24.9999 15C25.884 15 26.7318 14.6488 27.3569 14.0236ZM19.8157 3.06579C19.4226 3.85567 19.3021 4.75355 19.4732 5.61912C19.5792 6.14911 19.7934 6.65153 20.1024 7.09496C20.1661 6.97904 20.2566 6.88021 20.3666 6.80663L22.8666 5.13996C23.0035 5.04859 23.1645 4.99983 23.3291 4.99983C23.4937 4.99983 23.6546 5.04859 23.7916 5.13996C25.2837 6.13719 27.0386 6.66854 28.8332 6.66663H29.1666C29.3876 6.66663 29.5996 6.75446 29.7558 6.91071C29.9121 7.06696 29.9999 7.27896 29.9999 7.49996V8.27329C30.5321 7.73413 30.8313 7.00754 30.8332 6.24996C30.8332 5.47641 30.5259 4.73455 29.979 4.18756C29.432 3.64058 28.6902 3.33329 27.9166 3.33329H26.7624C24.5589 3.33076 22.3814 2.85742 20.3757 1.94495L19.8157 3.06579ZM40.2499 38.3333L38.5741 39.4525L39.9041 42.1308C39.9647 42.2446 39.9976 42.3711 39.9999 42.5V43.3333C40.0006 43.8502 40.1611 44.3542 40.4594 44.7763C40.7578 45.1984 41.1795 45.5178 41.6666 45.6908V38.3333H40.2499ZM30.5242 15.0625L38.1817 12L37.1084 7.70248C36.9575 7.05073 37.0685 6.36581 37.4176 5.79516C37.7668 5.2245 38.326 4.81378 38.975 4.65143C39.624 4.48907 40.3108 4.58808 40.8875 4.92712C41.4641 5.26616 41.8846 5.81812 42.0584 6.46415L43.6592 12.8525C43.8472 13.5882 43.7767 14.3662 43.4595 15.0562C43.1422 15.7462 42.5975 16.3062 41.9167 16.6425L32.45 21.37L31.6709 29.1667L32.2484 35.5308C32.2584 35.6398 32.2468 35.7498 32.2143 35.8543C32.1817 35.9588 32.1289 36.0558 32.0589 36.14C31.9889 36.2241 31.9029 36.2936 31.8061 36.3445C31.7092 36.3954 31.6032 36.4268 31.4942 36.4367H31.4175C31.2096 36.4365 31.0094 36.3586 30.8559 36.2183C30.7025 36.078 30.6071 35.8854 30.5884 35.6783L30.0725 30H22.5C22.279 30 22.067 29.9122 21.9108 29.7559C21.7545 29.5997 21.6667 29.3877 21.6667 29.1667C21.6667 28.9457 21.7545 28.7337 21.9108 28.5774C22.067 28.4212 22.279 28.3333 22.5 28.3333H30.0834L30.8375 20.75C30.8515 20.61 30.9008 20.4758 30.9806 20.36C31.0604 20.2442 31.1684 20.1504 31.2942 20.0875L35.6075 17.9308L34.5359 15.25L31.1425 16.6108C31.0409 16.6514 30.9322 16.6716 30.8227 16.6702C30.7133 16.6688 30.6052 16.6459 30.5045 16.6027C30.4039 16.5595 30.3129 16.4969 30.2364 16.4186C30.16 16.3402 30.0998 16.2475 30.0592 16.1458C30.0186 16.0442 29.9984 15.9355 29.9998 15.826C30.0012 15.7166 30.0241 15.6085 30.0674 15.5078C30.1105 15.4072 30.1731 15.3162 30.2514 15.2397C30.3299 15.1633 30.4225 15.1031 30.5242 15.0625ZM40.0388 6.32506C39.8377 6.20428 39.5969 6.16828 39.3692 6.22498C39.1419 6.28225 38.9465 6.42728 38.826 6.6283C38.7054 6.82931 38.6694 7.06998 38.7259 7.29748L39.9759 12.2975C40.0249 12.4932 40.0012 12.7001 39.9093 12.8797C39.8174 13.0593 39.6634 13.1995 39.4759 13.2742L36.0834 14.6308L37.1042 17.1825L41.1667 15.1517C41.5071 14.9837 41.7795 14.7038 41.9381 14.359C42.0968 14.0142 42.1322 13.6253 42.0384 13.2575L40.4417 6.86915C40.3848 6.64155 40.2399 6.44586 40.0388 6.32506ZM10.8333 21.6667H4.16667C3.94565 21.6667 3.73369 21.7545 3.57741 21.9108C3.42114 22.067 3.33334 22.279 3.33334 22.5V26.82C3.06645 26.7214 2.78453 26.6694 2.5 26.6667C2.00555 26.6667 1.5222 26.8133 1.11107 27.088C0.69995 27.3627 0.379524 27.7532 0.190299 28.21C0.00108212 28.6668 -0.0484261 29.1694 0.0480406 29.6544C0.144499 30.1394 0.382599 30.5849 0.732233 30.9344C1.08187 31.2841 1.52733 31.5222 2.01228 31.6187C2.49723 31.7151 2.99989 31.6656 3.45671 31.4764C3.91353 31.2872 4.30398 30.9668 4.57868 30.5556C4.85338 30.1445 5 29.6611 5 29.1667V26.6667H10V29.32C9.73309 29.2214 9.45117 29.1694 9.16667 29.1667C8.67226 29.1667 8.18884 29.3133 7.77776 29.588C7.36659 29.8627 7.04617 30.2532 6.85701 30.71C6.66776 31.1668 6.61825 31.6694 6.71467 32.1544C6.81117 32.6394 7.04926 33.0849 7.39892 33.4344C7.74851 33.7841 8.19401 34.0222 8.67892 34.1187C9.16392 34.2151 9.66659 34.1656 10.1234 33.9764C10.5802 33.7872 10.9707 33.4668 11.2453 33.0556C11.5201 32.6445 11.6667 32.1611 11.6667 31.6667V22.5C11.6667 22.279 11.5788 22.067 11.4226 21.9108C11.2663 21.7545 11.0543 21.6667 10.8333 21.6667ZM2.5 30C2.33518 30 2.17407 29.9512 2.03703 29.8596C1.89998 29.768 1.79318 29.6379 1.7301 29.4856C1.66703 29.3334 1.65053 29.1658 1.68268 29.0041C1.71483 28.8424 1.7942 28.6939 1.91074 28.5774C2.02729 28.4609 2.17578 28.3815 2.33743 28.3494C2.49908 28.3172 2.66663 28.3337 2.8189 28.3968C2.97118 28.4599 3.10133 28.5667 3.19289 28.7037C3.28446 28.8408 3.33334 29.0019 3.33334 29.1667C3.33334 29.3877 3.24554 29.5997 3.08926 29.7559C2.93298 29.9122 2.72102 30 2.5 30ZM5 23.3334H10V25H5V23.3334ZM9.16667 32.5C9.00184 32.5 8.84076 32.4512 8.70367 32.3596C8.56667 32.268 8.45984 32.1379 8.39676 31.9856C8.33367 31.8334 8.31717 31.6658 8.34934 31.5041C8.38151 31.3424 8.46084 31.1939 8.57742 31.0774C8.69392 30.9609 8.84242 30.8815 9.00409 30.8494C9.16576 30.8172 9.33334 30.8337 9.48559 30.8968C9.63784 30.9599 9.76801 31.0667 9.85959 31.2037C9.95118 31.3408 10 31.5019 10 31.6667C10 31.8877 9.91218 32.0997 9.75593 32.2559C9.59968 32.4122 9.38768 32.5 9.16667 32.5ZM43.9702 22.895L48.3035 20.395C48.3984 20.3401 48.503 20.3045 48.6116 20.2901C48.7202 20.2758 48.8305 20.283 48.9364 20.3113C49.0421 20.3396 49.1413 20.3886 49.2282 20.4552C49.3151 20.522 49.3879 20.6051 49.4427 20.7C49.9938 21.6574 50.1426 22.7943 49.8566 23.8613C49.5705 24.9283 48.8729 25.8383 47.9169 26.3916L45.7502 27.6416L47.8335 31.25C48.0985 31.7077 48.2111 32.2377 48.1549 32.7636C48.0987 33.2894 47.8766 33.7837 47.5209 34.175C47.1651 34.5662 46.694 34.8342 46.1759 34.94C45.6578 35.0458 45.1193 34.9841 44.6387 34.7636C44.158 34.5432 43.7599 34.1755 43.502 33.7137C43.2441 33.2521 43.1398 32.7203 43.2042 32.1954C43.2686 31.6705 43.4983 31.1797 43.8602 30.794C44.2219 30.4083 44.6971 30.1477 45.2168 30.05L43.8868 27.755L43.0535 26.3116C42.8892 26.0271 42.7825 25.7131 42.7397 25.3873C42.6968 25.0616 42.7185 24.7306 42.8037 24.4133C42.8888 24.096 43.0357 23.7986 43.2358 23.5381C43.4359 23.2776 43.6855 23.059 43.9702 22.895ZM46.1554 33.1772C46.3122 33.065 46.4252 32.902 46.4752 32.7158C46.5036 32.61 46.5109 32.4996 46.4966 32.3908C46.4823 32.2822 46.4467 32.1774 46.3918 32.0825C46.2953 31.9157 46.144 31.7873 45.9636 31.7195C45.7832 31.6517 45.5849 31.6485 45.4023 31.7105C45.2198 31.7725 45.0644 31.8959 44.9627 32.0596C44.8609 32.2232 44.819 32.4172 44.8442 32.6083C44.8693 32.7994 44.9599 32.9758 45.1006 33.1077C45.2413 33.2395 45.4233 33.3184 45.6156 33.3311C45.8079 33.3437 45.9987 33.2894 46.1554 33.1772ZM44.916 26.1983L47.0827 24.9483H47.0835C47.5308 24.6896 47.8869 24.2985 48.1029 23.8291C48.3189 23.3596 48.3839 22.8346 48.2893 22.3266L44.8052 24.3383C44.7103 24.393 44.6272 24.4657 44.5605 24.5526C44.4938 24.6393 44.4448 24.7384 44.4164 24.8441C44.388 24.9498 44.3808 25.0601 44.395 25.1686C44.4092 25.2771 44.4447 25.3818 44.4993 25.4766L44.916 26.1983ZM12.0625 5.79753H12.8958V6.63087C12.8958 6.85187 12.9837 7.06387 13.1399 7.22012C13.2962 7.37637 13.5082 7.4642 13.7292 7.4642C13.9502 7.4642 14.1622 7.37637 14.3184 7.22012C14.4747 7.06387 14.5625 6.85187 14.5625 6.63087V5.79753H15.3958C15.6168 5.79753 15.8288 5.70973 15.9851 5.55346C16.1413 5.39717 16.2292 5.18521 16.2292 4.9642C16.2292 4.74318 16.1413 4.53122 15.9851 4.37494C15.8288 4.21866 15.6168 4.13086 15.3958 4.13086H14.5625V3.29753C14.5625 3.07651 14.4747 2.86455 14.3184 2.70827C14.1622 2.552 13.9502 2.4642 13.7292 2.4642C13.5082 2.4642 13.2962 2.552 13.1399 2.70827C12.9837 2.86455 12.8958 3.07651 12.8958 3.29753V4.13086H12.0625C11.8415 4.13086 11.6295 4.21866 11.4733 4.37494C11.317 4.53122 11.2292 4.74318 11.2292 4.9642C11.2292 5.18521 11.317 5.39717 11.4733 5.55346C11.6295 5.70973 11.8415 5.79753 12.0625 5.79753ZM4.16667 39.1667H5C5.22102 39.1667 5.43298 39.2545 5.58926 39.4108C5.74554 39.567 5.83334 39.779 5.83334 40C5.83334 40.221 5.74554 40.433 5.58926 40.5893C5.43298 40.7455 5.22102 40.8334 5 40.8334H4.16667V41.6667C4.16667 41.8877 4.07887 42.0997 3.9226 42.256C3.76631 42.4122 3.55435 42.5 3.33334 42.5C3.11232 42.5 2.90036 42.4122 2.74408 42.256C2.5878 42.0997 2.5 41.8877 2.5 41.6667V40.8334H1.66667C1.44565 40.8334 1.23369 40.7455 1.07741 40.5893C0.921134 40.433 0.833334 40.221 0.833334 40C0.833334 39.779 0.921134 39.567 1.07741 39.4108C1.23369 39.2545 1.44565 39.1667 1.66667 39.1667H2.5V38.3334C2.5 38.1124 2.5878 37.9004 2.74408 37.7441C2.90036 37.5879 3.11232 37.5 3.33334 37.5C3.55435 37.5 3.76631 37.5879 3.9226 37.7441C4.07887 37.9004 4.16667 38.1124 4.16667 38.3334V39.1667ZM36.6667 33.3334C36.8877 33.3334 37.0997 33.2455 37.256 33.0893C37.4122 32.933 37.5 32.721 37.5 32.5V31.6667H38.3334C38.5544 31.6667 38.7664 31.5789 38.9226 31.4226C39.0789 31.2664 39.1667 31.0544 39.1667 30.8334C39.1667 30.6124 39.0789 30.4004 38.9226 30.2441C38.7664 30.0879 38.5544 30 38.3334 30H37.5V29.1667C37.5 28.9457 37.4122 28.7337 37.256 28.5774C37.0997 28.4212 36.8877 28.3334 36.6667 28.3334C36.4457 28.3334 36.2337 28.4212 36.0774 28.5774C35.9212 28.7337 35.8334 28.9457 35.8334 29.1667V30H35C34.779 30 34.567 30.0879 34.4108 30.2441C34.2545 30.4004 34.1667 30.6124 34.1667 30.8334C34.1667 31.0544 34.2545 31.2664 34.4108 31.4226C34.567 31.5789 34.779 31.6667 35 31.6667H35.8334V32.5C35.8334 32.721 35.9212 32.933 36.0774 33.0893C36.2337 33.2455 36.4457 33.3334 36.6667 33.3334ZM48.889 10.412C48.4779 10.6868 47.9945 10.8333 47.5 10.8333C46.837 10.8333 46.2011 10.5699 45.7323 10.1011C45.2635 9.63226 45 8.99642 45 8.33334C45 7.83892 45.1466 7.35551 45.4214 6.94442C45.696 6.53329 46.0865 6.21286 46.5434 6.02364C47.0001 5.83442 47.5028 5.78491 47.9878 5.88138C48.4727 5.97784 48.9182 6.21594 49.2678 6.56557C49.6175 6.91517 49.8556 7.36067 49.9521 7.84559C50.0485 8.33059 49.999 8.83326 49.8097 9.29009C49.6205 9.74684 49.3001 10.1373 48.889 10.412ZM47.963 7.64042C47.826 7.54892 47.6649 7.50001 47.5 7.50001C47.279 7.50001 47.067 7.58784 46.9108 7.74409C46.7545 7.90034 46.6667 8.11234 46.6667 8.33334C46.6667 8.49817 46.7155 8.65926 46.8071 8.79634C46.8987 8.93334 47.0289 9.04017 47.1811 9.10326C47.3334 9.16634 47.501 9.18284 47.6626 9.15067C47.8243 9.11851 47.9728 9.03917 48.0893 8.92259C48.2059 8.80609 48.2852 8.65759 48.3174 8.49592C48.3495 8.33426 48.333 8.16667 48.27 8.01442C48.2069 7.86217 48.1 7.73201 47.963 7.64042ZM1.66667 1.66667C2.1269 1.66667 2.5 1.29357 2.5 0.833334C2.5 0.3731 2.1269 1.88813e-10 1.66667 1.88813e-10C1.20643 1.88813e-10 0.833334 0.3731 0.833334 0.833334C0.833334 1.29357 1.20643 1.66667 1.66667 1.66667ZM3.72813 14.13C3.72813 14.5902 3.35504 14.9633 2.89479 14.9633C2.43456 14.9633 2.06146 14.5902 2.06146 14.13C2.06146 13.6697 2.43456 13.2966 2.89479 13.2966C3.35504 13.2966 3.72813 13.6697 3.72813 14.13ZM39.1667 24.45C39.627 24.45 40 24.0769 40 23.6167C40 23.1564 39.627 22.7834 39.1667 22.7834C38.7065 22.7834 38.3334 23.1564 38.3334 23.6167C38.3334 24.0769 38.7065 24.45 39.1667 24.45ZM40 1.66667C40 2.1269 39.627 2.5 39.1667 2.5C38.7065 2.5 38.3334 2.1269 38.3334 1.66667C38.3334 1.20643 38.7065 0.833334 39.1667 0.833334C39.627 0.833334 40 1.20643 40 1.66667Z" fill="#CE2127"/>
</g>
<defs>
<clipPath id="clip0_423_4169">
<rect width="50" height="50" fill="white"/>
</clipPath>
</defs>
</svg>
