<svg width="30" height="24" viewBox="0 0 30 24" fill="none" xmlns="http://www.w3.org/2000/svg">
<path d="M10.072 23.3598L24.472 0.63979H19.928L5.528 23.3598H10.072ZM23.48 23.6158C26.936 23.6158 29.784 20.7678 29.784 17.3118C29.784 13.8238 26.936 11.0078 23.48 11.0078C19.992 11.0078 17.176 13.8238 17.176 17.3118C17.176 20.7678 19.992 23.6158 23.48 23.6158ZM23.48 19.9038C22.04 19.9038 20.92 18.7198 20.92 17.3118C20.92 15.9038 22.04 14.7198 23.48 14.7198C24.92 14.7198 26.008 15.9038 26.008 17.3118C26.008 18.7198 24.92 19.9038 23.48 19.9038ZM6.52 12.9918C9.976 12.9918 12.824 10.1438 12.824 6.68779C12.824 3.19979 9.976 0.383789 6.52 0.383789C3.032 0.383789 0.216003 3.19979 0.216003 6.68779C0.216003 10.1438 3.032 12.9918 6.52 12.9918ZM6.52 9.27979C5.08 9.27979 3.96 8.09579 3.96 6.68779C3.96 5.27979 5.08 4.09579 6.52 4.09579C7.96 4.09579 9.08 5.27979 9.08 6.68779C9.08 8.09579 7.96 9.27979 6.52 9.27979Z" fill="#CE2127"/>
</svg>
