<svg width="17" height="16" viewBox="0 0 17 16" fill="none" xmlns="http://www.w3.org/2000/svg">
<path d="M7.24186 1.37458C7.54121 0.453267 8.84462 0.453265 9.14398 1.37458L10.3258 5.01186C10.4597 5.42389 10.8436 5.70285 11.2769 5.70285H15.1013C16.0701 5.70285 16.4728 6.94246 15.6891 7.51186L12.5951 9.75983C12.2446 10.0145 12.0979 10.4658 12.2318 10.8779L13.4136 14.5152C13.713 15.4365 12.6585 16.2026 11.8748 15.6332L8.7807 13.3852C8.43022 13.1306 7.95562 13.1306 7.60513 13.3852L4.51107 15.6332C3.72736 16.2026 2.67288 15.4365 2.97223 14.5152L4.15406 10.8779C4.28793 10.4658 4.14127 10.0145 3.79079 9.75983L0.696725 7.51186C-0.0869891 6.94246 0.315786 5.70285 1.28451 5.70285H5.10898C5.5422 5.70285 5.92616 5.42389 6.06004 5.01186L7.24186 1.37458Z" fill="#C4C4C4"/>
</svg>
