<svg width="50" height="50" viewBox="0 0 50 50" fill="none" xmlns="http://www.w3.org/2000/svg">
<path fill-rule="evenodd" clip-rule="evenodd" d="M15.0122 0C18.2583 0 20.8386 2.58023 20.8386 5.82633H19.1739C19.1739 3.4958 17.3428 1.66467 15.0122 1.66467V0ZM0.362954 18.9772C0.0300206 18.8107 -0.0532127 18.3946 0.0300205 18.0616C0.196487 17.7287 0.52942 17.479 0.862353 17.479H18.6743L24.2509 2.9964C24.3341 2.7467 24.6671 2.497 25 2.497C25.3329 2.497 25.6659 2.7467 25.7491 2.9964L31.3257 17.5622H49.1376C49.5538 17.5622 49.8867 17.8119 49.97 18.1448C50.0532 18.4778 49.97 18.8939 49.637 19.0604L35.6539 28.7155L42.3958 46.3609C42.5622 46.6939 42.3957 47.0268 42.146 47.2765C41.9796 47.3597 41.8131 47.443 41.6467 47.443C41.4802 47.443 41.3137 47.3597 41.1473 47.2765L25 36.04L8.85275 47.1933C8.51981 47.443 8.10365 47.443 7.85395 47.1933C7.60425 47.0268 7.43778 46.6106 7.60425 46.2777L14.3461 28.6322L0.362954 18.9772ZM5.77312 20.7251L15.8443 27.7167C16.1773 27.8831 16.2605 28.2993 16.094 28.6322L11.0168 41.8663L23.585 26.2185L5.77312 20.7251ZM24.5006 34.3753C24.6671 34.2921 24.8335 34.2089 25 34.2089C25.1665 34.2089 25.3329 34.2921 25.4162 34.3753L37.4018 42.6987L25 27.134L12.515 42.6987L24.5006 34.3753ZM38.9 41.9496L33.8227 28.7155C33.7395 28.2993 33.8227 27.8831 34.1557 27.7167L44.2269 20.7251L26.415 26.2185L38.9 41.9496ZM43.6442 19.1436H30.7431C30.4102 19.1436 30.0772 18.8939 29.994 18.6442L25.8323 7.82393V24.637L43.6442 19.1436ZM20.006 18.6442C19.9228 18.8939 19.5898 19.1436 19.2569 19.1436H6.35575L24.1677 24.7203V7.82393L20.006 18.6442ZM46.641 11.6527C44.3105 11.6527 42.4794 13.4838 42.4794 15.8143H40.8147C40.8147 12.5682 43.3949 9.98799 46.641 9.98799V11.6527ZM49.9704 9.98799H48.3057V11.6527H49.9704V9.98799ZM13.3474 0H11.6827V1.66467H13.3474V0ZM38.3177 3.32933C38.3177 4.7443 39.3997 5.82633 40.8147 5.82633C41.3141 5.82633 41.647 6.15926 41.647 6.65866C41.647 7.15806 41.3141 7.49099 40.8147 7.49099C39.3997 7.49099 38.3177 8.57302 38.3177 9.98799C38.3177 10.4874 37.9848 10.8203 37.4854 10.8203C36.986 10.8203 36.653 10.4874 36.653 9.98799C36.653 8.57302 35.571 7.49099 34.156 7.49099C33.6566 7.49099 33.3237 7.15806 33.3237 6.65866C33.3237 6.15926 33.6566 5.82633 34.156 5.82633C35.571 5.82633 36.653 4.7443 36.653 3.32933C36.653 2.82993 36.986 2.497 37.4854 2.497C37.9848 2.497 38.3177 2.82993 38.3177 3.32933ZM36.653 6.65866C36.986 6.90836 37.2357 7.15806 37.4854 7.49099C37.7351 7.15806 37.9848 6.90836 38.3177 6.65866C37.9848 6.40896 37.7351 6.15926 37.4854 5.82633C37.2357 6.15926 36.986 6.40896 36.653 6.65866ZM7.5212 3.32933C6.10624 3.32933 5.0242 2.2473 5.0242 0.832332C5.0242 0.332933 4.69127 0 4.19187 0C3.69247 0 3.35954 0.332933 3.35954 0.832332C3.35954 2.2473 2.27751 3.32933 0.862541 3.32933C0.363141 3.32933 0.0302083 3.66226 0.0302083 4.16166C0.0302083 4.66106 0.363141 4.99399 0.862541 4.99399C2.27751 4.99399 3.35954 6.07603 3.35954 7.49099C3.35954 7.99039 3.69247 8.32333 4.19187 8.32333C4.69127 8.32333 5.0242 7.99039 5.0242 7.49099C5.0242 6.07603 6.10624 4.99399 7.5212 4.99399C8.0206 4.99399 8.35353 4.66106 8.35353 4.16166C8.35353 3.66226 8.0206 3.32933 7.5212 3.32933ZM4.19187 4.99399C3.94217 4.66106 3.69247 4.41136 3.35954 4.16166C3.69247 3.91196 3.94217 3.66226 4.19187 3.32933C4.44157 3.66226 4.69127 3.91196 5.0242 4.16166C4.69127 4.41136 4.44157 4.66106 4.19187 4.99399ZM48.3057 0H49.9704V1.66467H48.3057V0ZM10.8504 6.65862H9.18573V8.32329H10.8504V6.65862ZM0.0302371 12.485H1.6949V14.1497H0.0302371V12.485ZM8.3534 14.1496H6.68874V15.8143H8.3534V14.1496ZM44.9762 0H46.6409V1.66467H44.9762V0ZM46.641 31.6286C43.3949 31.6286 40.8147 34.2088 40.8147 37.4549H42.4794C42.4794 35.1244 44.3105 33.2933 46.641 33.2933V31.6286ZM48.3057 31.6286H49.9704V33.2933H48.3057V31.6286ZM9.18606 28.2993H7.52139C7.52139 30.6299 5.69026 32.461 3.35973 32.461V34.1257C6.60583 34.1257 9.18606 31.5454 9.18606 28.2993ZM0.0302371 32.461H1.6949V34.1256H0.0302371V32.461ZM1.6949 48.2753H0.0302371V49.94H1.6949V48.2753ZM20.8387 42.449H22.5034V44.1136H20.8387V42.449ZM31.6589 48.2753H29.9942V49.94H31.6589V48.2753ZM48.3057 48.2753H49.9704V49.94H48.3057V48.2753Z" fill="#CE2127"/>
</svg>
