<svg width="44" height="37" viewBox="0 0 44 37" fill="none" xmlns="http://www.w3.org/2000/svg">
<path d="M16.8203 34.3438C15.5312 34.3438 15.6484 33.875 15.2969 32.7031L11.5469 20.3984L40.2578 3.52344" fill="#C8DAEA"/>
<path d="M16.8203 34.3438C17.6406 34.3438 18.1094 33.875 18.6953 33.4062L23.9688 28.3672L17.4062 24.3828" fill="#A9C9DD"/>
<path d="M17.4062 24.3827L33.2266 35.9843C34.8672 37.039 36.2734 36.453 36.7422 34.3437L43.1875 4.10928C43.7734 1.53115 42.1328 0.359278 40.375 1.17959L2.75781 15.7108C0.296871 16.6483 0.296871 18.1718 2.28906 18.7577L12.0156 21.8046L34.2812 7.6249C35.3359 7.03897 36.2734 7.27334 35.5703 8.09365" fill="#F6FBFE"/>
</svg>
