<svg width="61" height="60" viewBox="0 0 61 60" fill="none" xmlns="http://www.w3.org/2000/svg">
<g clip-path="url(#clip0_350_1694)">
<path d="M60.4824 0H0.517578C0.50787 0 0.5 0.00787 0.5 0.0175781V59.9824C0.5 59.9921 0.50787 60 0.517578 60H60.4824C60.4921 60 60.5 59.9921 60.5 59.9824V0.0175781C60.5 0.00787 60.4921 0 60.4824 0Z" fill="#010101"/>
<path fill-rule="evenodd" clip-rule="evenodd" d="M38.1752 55.1996C40.0009 55.1996 41.481 53.7315 41.481 51.9207C41.481 50.1099 40.0009 48.6416 38.1752 48.6416H37.6772C39.5029 48.6416 40.983 50.1099 40.983 51.9207C40.983 53.7315 39.5029 55.1996 37.6772 55.1996H38.1752Z" fill="#EE1D51"/>
<path fill-rule="evenodd" clip-rule="evenodd" d="M37.6321 48.6416H37.1341C35.3084 48.6416 33.8281 50.1099 33.8281 51.9207C33.8281 53.7315 35.3084 55.1996 37.1341 55.1996H37.6321C35.8062 55.1996 34.3261 53.7315 34.3261 51.9207C34.3261 50.1099 35.8062 48.6416 37.6321 48.6416Z" fill="#66C8CF"/>
<path d="M37.6546 53.5148C38.5426 53.5148 39.2624 52.801 39.2624 51.9205C39.2624 51.04 38.5426 50.3262 37.6546 50.3262C36.7667 50.3262 36.0469 51.04 36.0469 51.9205C36.0469 52.801 36.7667 53.5148 37.6546 53.5148Z" fill="#010101"/>
<path fill-rule="evenodd" clip-rule="evenodd" d="M12.5 47.1602V48.8222H14.4469V55.1553H16.3945V48.867H17.9792L18.5226 47.1602H12.5ZM28.4396 47.1602V48.8222H30.3865V55.1553H32.3341V48.867H33.9188L34.4622 47.1602H28.4396ZM18.8852 48.1034C18.8852 47.5826 19.3102 47.1602 19.8354 47.1602C20.361 47.1602 20.7865 47.5826 20.7865 48.1034C20.7865 48.6242 20.3612 49.0466 19.8354 49.0466C19.3102 49.0463 18.8852 48.6242 18.8852 48.1034ZM18.8852 49.7205H20.7865V55.1553H18.8852V49.7205ZM21.6018 47.1602V55.1553H23.5038V53.0894L24.0925 52.5498L25.9489 55.2002H27.9865L25.3146 51.3374L27.7146 49.0014H25.4053L23.5038 50.8878V47.1602H21.6018ZM42.1146 47.1602V55.1553H44.0168V53.0894L44.6053 52.5498L46.4622 55.2002H48.5L45.8281 51.3374L48.2281 49.0014H45.9188L44.0168 50.8878V47.1602H42.1146Z" fill="white"/>
<path fill-rule="evenodd" clip-rule="evenodd" d="M39.1801 19.4842C41.8066 21.3608 45.0246 22.465 48.4998 22.465V15.7808C47.842 15.781 47.186 15.7124 46.5426 15.576V20.8376C43.0676 20.8376 39.8502 19.7333 37.2229 17.8568V31.4972C37.2229 38.3208 31.6885 43.8521 24.8617 43.8521C22.3146 43.8521 19.947 43.0824 17.9802 41.7624C20.2249 44.0564 23.3552 45.4796 26.8184 45.4796C33.6457 45.4796 39.1803 39.9483 39.1803 33.1244V19.4842H39.1801ZM41.5945 12.7407C40.2522 11.275 39.3709 9.38068 39.1801 7.28644V6.42676H37.3254C37.7922 9.08836 39.3846 11.3624 41.5945 12.7407ZM22.298 36.5264C21.5481 35.5436 21.1428 34.3411 21.1446 33.1049C21.1446 29.984 23.6761 27.4536 26.7992 27.4536C27.3812 27.4532 27.9597 27.5425 28.5145 27.7184V20.8848C27.8663 20.7961 27.2121 20.7584 26.558 20.7723V26.0912C26.003 25.9153 25.4242 25.826 24.842 25.8264C21.7189 25.8264 19.1876 28.3568 19.1876 31.478C19.1876 33.6848 20.4529 35.5956 22.298 36.5264Z" fill="#EE1D52"/>
<path fill-rule="evenodd" clip-rule="evenodd" d="M37.2229 17.8568C39.8502 19.7333 43.0676 20.8376 46.5426 20.8376V15.576C44.6029 15.1632 42.8857 14.15 41.5945 12.7407C39.3846 11.3624 37.7922 9.08836 37.3254 6.42676H32.4536V33.1241C32.4426 36.2364 29.9154 38.7564 26.799 38.7564C24.9625 38.7564 23.331 37.8816 22.2978 36.5264C20.4527 35.5956 19.1874 33.6848 19.1874 31.478C19.1874 28.3568 21.7187 25.8264 24.8418 25.8264C25.4401 25.8264 26.0168 25.9196 26.5578 26.0912V20.7723C19.851 20.9108 14.457 26.388 14.457 33.1244C14.457 36.487 15.8003 39.5355 17.9802 41.7627C19.947 43.0827 22.3146 43.8524 24.8617 43.8524C31.6885 43.8524 37.2229 38.3208 37.2229 31.4974V17.8568Z" fill="white"/>
<path fill-rule="evenodd" clip-rule="evenodd" d="M46.5426 15.5763V14.1536C44.7933 14.1562 43.0786 13.6666 41.5945 12.7407C42.9082 14.1782 44.6381 15.1696 46.5426 15.5763ZM37.3254 6.427C37.2808 6.17267 37.2466 5.91661 37.2229 5.65948V4.7998H30.4962V31.4974C30.4854 34.6095 27.9584 37.1295 24.8418 37.1295C23.9266 37.1295 23.0629 36.9125 22.2978 36.5266C23.331 37.8819 24.9625 38.7567 26.799 38.7567C29.9151 38.7567 32.4426 36.2367 32.4536 33.1244V6.427H37.3254ZM26.558 20.7725V19.2579C25.9959 19.181 25.4292 19.1426 24.8619 19.1429C18.0344 19.1429 12.5 24.6744 12.5 31.4974C12.5 35.7752 14.6751 39.5451 17.9804 41.7627C15.8005 39.5355 14.4572 36.487 14.4572 33.1244C14.4572 26.3883 19.851 20.911 26.558 20.7725Z" fill="#69C9D0"/>
<path fill-rule="evenodd" clip-rule="evenodd" d="M37.6769 55.1996C39.5026 55.1996 40.9829 53.7315 40.9829 51.9207C40.9829 50.1099 39.5026 48.6416 37.6769 48.6416H37.6318C35.8061 48.6416 34.326 50.1099 34.326 51.9207C34.326 53.7315 35.8061 55.1996 37.6318 55.1996H37.6769ZM36.0469 51.9207C36.0469 51.0399 36.7668 50.3264 37.6549 50.3264C38.5421 50.3264 39.2621 51.0399 39.2621 51.9207C39.2621 52.8015 38.5421 53.5155 37.6549 53.5155C36.7668 53.5153 36.0469 52.8015 36.0469 51.9207Z" fill="white"/>
</g>
<defs>
<clipPath id="clip0_350_1694">
<rect x="0.5" width="60" height="60" rx="10" fill="white"/>
</clipPath>
</defs>
</svg>
