<svg width="37" height="52" viewBox="0 0 37 52" fill="none" xmlns="http://www.w3.org/2000/svg">
<path fill-rule="evenodd" clip-rule="evenodd" d="M26.1752 51.1996C28.0009 51.1996 29.481 49.7315 29.481 47.9207C29.481 46.1099 28.0009 44.6416 26.1752 44.6416H25.6772C27.5029 44.6416 28.983 46.1099 28.983 47.9207C28.983 49.7315 27.5029 51.1996 25.6772 51.1996H26.1752Z" fill="#EE1D51"/>
<path fill-rule="evenodd" clip-rule="evenodd" d="M25.6321 44.6416H25.1341C23.3084 44.6416 21.8281 46.1099 21.8281 47.9207C21.8281 49.7315 23.3084 51.1996 25.1341 51.1996H25.6321C23.8062 51.1996 22.3261 49.7315 22.3261 47.9207C22.3261 46.1099 23.8062 44.6416 25.6321 44.6416Z" fill="#66C8CF"/>
<path d="M25.6546 49.5148C26.5426 49.5148 27.2624 48.801 27.2624 47.9205C27.2624 47.04 26.5426 46.3262 25.6546 46.3262C24.7667 46.3262 24.0469 47.04 24.0469 47.9205C24.0469 48.801 24.7667 49.5148 25.6546 49.5148Z" fill="#010101"/>
<path fill-rule="evenodd" clip-rule="evenodd" d="M0.5 43.1602V44.8222H2.44688V51.1553H4.39448V44.867H5.9792L6.52256 43.1602H0.5ZM16.4396 43.1602V44.8222H18.3865V51.1553H20.3341V44.867H21.9188L22.4622 43.1602H16.4396ZM6.8852 44.1034C6.8852 43.5826 7.31024 43.1602 7.83536 43.1602C8.36096 43.1602 8.78648 43.5826 8.78648 44.1034C8.78648 44.6242 8.3612 45.0466 7.83536 45.0466C7.31024 45.0463 6.8852 44.6242 6.8852 44.1034ZM6.8852 45.7205H8.78648V51.1553H6.8852V45.7205ZM9.60176 43.1602V51.1553H11.5038V49.0894L12.0925 48.5498L13.9489 51.2002H15.9865L13.3146 47.3374L15.7146 45.0014H13.4053L11.5038 46.8878V43.1602H9.60176ZM30.1146 43.1602V51.1553H32.0168V49.0894L32.6053 48.5498L34.4622 51.2002H36.5L33.8281 47.3374L36.2281 45.0014H33.9188L32.0168 46.8878V43.1602H30.1146Z" fill="white"/>
<path fill-rule="evenodd" clip-rule="evenodd" d="M27.1801 15.4842C29.8066 17.3608 33.0246 18.465 36.4998 18.465V11.7808C35.842 11.781 35.186 11.7124 34.5426 11.576V16.8376C31.0676 16.8376 27.8502 15.7333 25.2229 13.8568V27.4972C25.2229 34.3208 19.6885 39.8521 12.8617 39.8521C10.3146 39.8521 7.94696 39.0824 5.98016 37.7624C8.22488 40.0564 11.3552 41.4796 14.8184 41.4796C21.6457 41.4796 27.1803 35.9483 27.1803 29.1244V15.4842H27.1801ZM29.5945 8.74068C28.2522 7.275 27.3709 5.38068 27.1801 3.28644V2.42676H25.3254C25.7922 5.08836 27.3846 7.36236 29.5945 8.74068ZM10.298 32.5264C9.54811 31.5436 9.14275 30.3411 9.14456 29.1049C9.14456 25.984 11.6761 23.4536 14.7992 23.4536C15.3812 23.4532 15.9597 23.5425 16.5145 23.7184V16.8848C15.8663 16.7961 15.2121 16.7584 14.558 16.7723V22.0912C14.003 21.9153 13.4242 21.826 12.842 21.8264C9.71888 21.8264 7.1876 24.3568 7.1876 27.478C7.1876 29.6848 8.45288 31.5956 10.298 32.5264Z" fill="#EE1D52"/>
<path fill-rule="evenodd" clip-rule="evenodd" d="M25.2229 13.8568C27.8502 15.7333 31.0676 16.8376 34.5426 16.8376V11.576C32.6029 11.1632 30.8857 10.15 29.5945 8.74068C27.3846 7.36236 25.7922 5.08836 25.3254 2.42676H20.4536V29.1241C20.4426 32.2364 17.9154 34.7564 14.799 34.7564C12.9625 34.7564 11.331 33.8816 10.2978 32.5264C8.45265 31.5956 7.18737 29.6848 7.18737 27.478C7.18737 24.3568 9.71865 21.8264 12.8418 21.8264C13.4401 21.8264 14.0168 21.9196 14.5578 22.0912V16.7723C7.85097 16.9108 2.45697 22.388 2.45697 29.1244C2.45697 32.487 3.80025 35.5355 5.98017 37.7627C7.94697 39.0827 10.3146 39.8524 12.8617 39.8524C19.6885 39.8524 25.2229 34.3208 25.2229 27.4974V13.8568Z" fill="white"/>
<path fill-rule="evenodd" clip-rule="evenodd" d="M34.5426 11.5763V10.1536C32.7933 10.1562 31.0786 9.66659 29.5945 8.74069C30.9082 10.1782 32.6381 11.1696 34.5426 11.5763ZM25.3254 2.427C25.2808 2.17267 25.2466 1.91661 25.2229 1.65948V0.799805H18.4962V27.4974C18.4854 30.6095 15.9584 33.1295 12.8418 33.1295C11.9266 33.1295 11.0629 32.9125 10.2978 32.5266C11.331 33.8819 12.9625 34.7567 14.799 34.7567C17.9151 34.7567 20.4426 32.2367 20.4536 29.1244V2.427H25.3254ZM14.558 16.7725V15.2579C13.9959 15.181 13.4292 15.1426 12.8619 15.1429C6.0344 15.1429 0.5 20.6744 0.5 27.4974C0.5 31.7752 2.67512 35.5451 5.9804 37.7627C3.80048 35.5355 2.4572 32.487 2.4572 29.1244C2.4572 22.3883 7.85096 16.911 14.558 16.7725Z" fill="#69C9D0"/>
<path fill-rule="evenodd" clip-rule="evenodd" d="M25.6769 51.1996C27.5026 51.1996 28.9829 49.7315 28.9829 47.9207C28.9829 46.1099 27.5026 44.6416 25.6769 44.6416H25.6318C23.8061 44.6416 22.326 46.1099 22.326 47.9207C22.326 49.7315 23.8061 51.1996 25.6318 51.1996H25.6769ZM24.0469 47.9207C24.0469 47.0399 24.7668 46.3264 25.6549 46.3264C26.5421 46.3264 27.2621 47.0399 27.2621 47.9207C27.2621 48.8015 26.5421 49.5155 25.6549 49.5155C24.7668 49.5153 24.0469 48.8015 24.0469 47.9207Z" fill="white"/>
</svg>
