<svg width="61" height="60" viewBox="0 0 61 60" fill="none" xmlns="http://www.w3.org/2000/svg">
<g clip-path="url(#clip0_349_1649)">
<path d="M60.4824 0H0.517578C0.50787 0 0.5 0.00787 0.5 0.0175781V59.9824C0.5 59.9921 0.50787 60 0.517578 60H60.4824C60.4921 60 60.5 59.9921 60.5 59.9824V0.0175781C60.5 0.00787 60.4921 0 60.4824 0Z" fill="#0077FF"/>
<path d="M32.425 43.226C18.75 43.226 10.9501 33.851 10.6251 18.251H17.4751C17.7001 29.701 22.75 34.551 26.75 35.551V18.251H33.2002V28.126C37.1502 27.701 41.2997 23.201 42.6997 18.251H49.1499C48.0749 24.351 43.5749 28.851 40.3749 30.701C43.5749 32.201 48.7001 36.126 50.6501 43.226H43.5499C42.0249 38.476 38.2252 34.801 33.2002 34.301V43.226H32.425Z" fill="white"/>
</g>
<defs>
<clipPath id="clip0_349_1649">
<rect x="0.5" width="60" height="60" rx="10" fill="white"/>
</clipPath>
</defs>
</svg>
