<svg width="36" height="37" viewBox="0 0 36 37" fill="none" xmlns="http://www.w3.org/2000/svg">
<path fill-rule="evenodd" clip-rule="evenodd" d="M18.6788 3.17334C15.1224 3.05986 11.6468 4.24797 8.90412 6.51478C6.16141 8.78159 4.34009 11.9713 3.78187 15.4854C3.22366 18.9996 3.96691 22.5967 5.87218 25.6018L6.21417 26.1412L4.98426 31.8515L10.6067 30.2702L11.1663 30.5783C14.2835 32.2943 17.9196 32.8138 21.3925 32.0395C24.8655 31.2652 27.9365 29.2502 30.0295 26.3727C32.1225 23.4951 33.0936 19.9527 32.7605 16.4101C32.4275 12.8676 30.8132 9.56822 28.2206 7.13116C25.628 4.69411 22.2352 3.28682 18.6788 3.17334ZM6.91648 4.10985C10.2448 1.35902 14.4626 -0.0827882 18.7783 0.0549262C23.0941 0.192641 27.2113 1.90042 30.3575 4.85785C33.5037 7.81527 35.4627 11.8191 35.8668 16.1181C36.271 20.4171 35.0926 24.7159 32.5527 28.2079C30.0128 31.6999 26.286 34.1451 22.0715 35.0847C18.0692 35.9771 13.8883 35.4534 10.2378 33.615L0.843821 36.2571L2.89874 26.7164C0.838252 23.1865 0.0571953 19.0458 0.700507 14.996C1.37792 10.7315 3.58814 6.86068 6.91648 4.10985Z" fill="white"/>
<path d="M24.5937 19.992C24.2422 19.7576 23.8906 19.6404 23.5391 20.1092L22.1328 21.9842C21.7812 22.2186 21.5469 22.3357 21.0781 22.1014C19.3203 21.1639 16.8594 20.1092 14.75 16.5936C14.6328 16.1248 14.8672 15.8904 15.1016 15.6561L16.1562 14.0154C16.3906 13.7811 16.2734 13.5467 16.1562 13.3123L14.75 9.91387C14.3984 8.97637 14.0469 9.09355 13.6953 9.09355H12.7578C12.5234 9.09355 12.0547 9.21074 11.5859 9.67949C9.00781 12.2576 10.0625 15.8904 11.9375 18.2342C12.2891 18.7029 14.6328 22.9217 19.6719 25.1482C23.4219 26.7889 24.2422 26.5545 25.2969 26.3201C26.5859 26.2029 27.875 25.1482 28.4609 24.0936C28.5781 23.742 29.1641 22.2186 28.6953 21.9842" fill="white"/>
</svg>
