<svg width="61" height="60" viewBox="0 0 61 60" fill="none" xmlns="http://www.w3.org/2000/svg">
<g clip-path="url(#clip0_349_1688)">
<path d="M60.4824 0H0.517578C0.50787 0 0.5 0.00787 0.5 0.0175781V59.9824C0.5 59.9921 0.50787 60 0.517578 60H60.4824C60.4921 60 60.5 59.9921 60.5 59.9824V0.0175781C60.5 0.00787 60.4921 0 60.4824 0Z" fill="#2C3036"/>
<path d="M60.5 30.3214V29.6786C47.2143 29.25 41.15 28.9286 36.2857 24.2143C31.5714 19.35 31.2286 13.2857 30.8214 0H30.1786C29.75 13.2857 29.4286 19.35 24.7143 24.2143C19.85 28.9286 13.7857 29.2714 0.5 29.6786V30.3214C13.7857 30.75 19.85 31.0714 24.7143 35.7857C29.4286 40.65 29.7714 46.7143 30.1786 60H30.8214C31.25 46.7143 31.5714 40.65 36.2857 35.7857C41.15 31.0714 47.2143 30.7286 60.5 30.3214Z" fill="white"/>
</g>
<defs>
<clipPath id="clip0_349_1688">
<rect x="0.5" width="60" height="60" rx="10" fill="white"/>
</clipPath>
</defs>
</svg>
